<?xml version="1.0" standalone="no"?>
<!DOCTYPE svg PUBLIC "-//W3C//DTD SVG 1.1//EN" "http://www.w3.org/Graphics/SVG/1.1/DTD/svg11.dtd" >
<svg xmlns="http://www.w3.org/2000/svg" xmlns:xlink="http://www.w3.org/1999/xlink" version="1.1">
<metadata></metadata>
<defs>
<font id="franziskaff-regularitalicIt" horiz-adv-x="953" >
<font-face units-per-em="2048" ascent="1638" descent="-410" />
<missing-glyph horiz-adv-x="356" />
<glyph unicode="&#xfb01;" horiz-adv-x="1019" d="M764 -14q-112 0 -112 102q0 88 79 700h-378l-72 -741q-22 -227 -98 -329.5t-209 -101.5q-73 0 -139.5 26.5t-109.5 72.5l29 74q191 -74 316 -74q51 65 69 254l72 808l-113 11v68q63 22 126 35q40 325 206 419q84 47 198 47q233 0 284 -153l-61 -92l-240 155 q-88 2 -150 -24q-22 -37 -36 -70q-39 -90 -62 -294h293q91 27 187 36l36 -23q-77 -658 -91 -799q72 1 175 77l26 -67q-113 -117 -225 -117z" />
<glyph unicode="&#xfb02;" horiz-adv-x="1057" d="M767 -24q-118 0 -118 127q0 110 120 1128q-88 31 -177.5 31t-147.5 -19q-42 -69 -58 -175q-16 -104 -25 -189h198v-36l-13 -55h-195l-70 -741q-22 -227 -98 -329.5t-209 -101.5q-73 0 -139.5 26.5t-109.5 72.5l29 74q191 -74 316 -74q51 65 69 254l72 808l-113 11v68 q61 22 122 35q29 237 119.5 351.5t253.5 114.5q101 0 193 -45q41 34 101 45l34 -23q-15 -139 -77 -632t-63 -618q44 0 107.5 23t110.5 53l26 -67q-50 -50 -122 -83.5t-136 -33.5z" />
<glyph horiz-adv-x="0" />
<glyph unicode="&#xd;" horiz-adv-x="599" />
<glyph unicode=" "  horiz-adv-x="356" />
<glyph unicode="&#x09;" horiz-adv-x="356" />
<glyph unicode="&#xa0;" horiz-adv-x="356" />
<glyph unicode="!" horiz-adv-x="461" d="M211 198q42 0 63 -7q20 -36 20 -77.5t-40 -113.5h-122l-10 186q47 12 89 12zM363 1222l26 -27q-47 -461 -122 -869h-87q6 87 35 869q84 27 148 27z" />
<glyph unicode="&#x22;" horiz-adv-x="664" d="M476 927v369q72 26 146 25l25 -25l-79 -369h-92zM209 927v369q73 26 146 25l25 -25l-79 -369h-92z" />
<glyph unicode="#" horiz-adv-x="929" d="M627 700h-250l-56 -329h250zM838 371v-122l-184 -24l-43 -249h-78l-24 26l39 230h-252l-43 -256h-80l-23 26l39 230h-131v121l157 24l53 323h-154v122l180 24l43 250h79l24 -25l-40 -233h252l44 258h78l24 -25l-39 -233h132v-121l-157 -24l-55 -322h159z" />
<glyph unicode="$" horiz-adv-x="810" d="M569 221q0 80 -30.5 120.5t-115.5 102.5l-21 -375q74 3 114 27q53 45 53 125zM267 843q-1 -60 25.5 -100.5t84.5 -82.5l22 341q-36 -4 -60 -14q-72 -46 -72 -144zM715 274.5q0 -70.5 -15 -116.5q-53 -166 -303 -182l-13 -201l-85 -9l-14 10l19 202q-133 11 -246 67 q-10 67 -11 121q0 55 8 149l100 10l48 -235q47 -16 110 -21l42 425q-83 60 -126 100q-100 93 -100 217t75 198t200 85l12 204l83 9l15 -11l-20 -202q60 -7 111 -29l2 17q52 14 86 14l37 -23q14 -104 -23 -287h-95l-10 205q-57 13 -117 15l-38 -397l16 -11q168 -114 208 -179 q44 -74 44 -144.5z" />
<glyph unicode="%" horiz-adv-x="1484" d="M1265 378q0 186 -121 186q-36 0 -77 -14q-46 -47 -67 -138.5t-21 -173.5q0 -186 120 -186q38 1 76 15q46 45 68 137.5t22 173.5zM1162 640q116 0 173 -74t57 -201t-70 -247q-35 -63 -98.5 -102.5t-145.5 -39.5q-114 0 -171 73t-56 189q0 176 102 308q34 42 88.5 68.5 t120.5 25.5zM339 429q-229 0 -229 289q0 140 80 250t185 128l20 -63q-73 -30 -115 -116t-42 -202.5t29 -163t80 -46.5t88 14q53 49 71 148q18 98 18 165q0 66 -25 140q-33 30 -57 73q31 40 59 58h32q36 -51 58 -102q81 -42 183 -42q178 0 363 176l79 -39l6 -22 q-438 -517 -802 -1114l-79 40l-7 24q156 228 373.5 518t337.5 428l-12 12q-113 -110 -269 -110q-78 0 -138 22q7 -45 7 -100q0 -123 -61 -234q-32 -59 -91.5 -95t-141.5 -36z" />
<glyph unicode="&#x26;" horiz-adv-x="1212" d="M198 301q0 -114 70 -174q71 -60 181 -60t223 61q-192 203 -301 440q-173 -105 -173 -267zM701 1001q0 73 -24 104q-24 32 -77 32t-98 -19q-60 -78 -60 -210t46 -258q213 148 213 351zM1168 575h-169q-4 -217 -179 -403q146 -143 317 -256l-33 -66q-176 29 -385 231 q-154 -105 -317.5 -105t-258.5 74t-96 218q0 269 302 352q-59 148 -59 264q0 156 101.5 246.5t219.5 90.5t179 -58q62 -59 63 -169q-1 -109 -92.5 -222.5t-250.5 -176.5q87 -193 269 -382q48 81 70 179.5t21 249.5q143 39 270 44l28 -28v-83z" />
<glyph unicode="'" horiz-adv-x="397" d="M209 927v369q73 26 146 25l25 -25l-79 -369h-92z" />
<glyph unicode="(" horiz-adv-x="518" d="M247 341q0 -319 108 -653l-63 -29q-177 287 -177 709q0 247 72.5 518t237.5 471l60 -33q-238 -445 -238 -983z" />
<glyph unicode=")" horiz-adv-x="518" d="M416 691q0 -457 -158 -794q-64 -134 -152 -238l-59 33q237 445 238 984q0 179 -24.5 329t-83.5 323l62 29q88 -143 132 -328.5t45 -337.5z" />
<glyph unicode="*" horiz-adv-x="822" d="M492 977l60 43q97 -74 138 -139q14 -22 29 -56l-76 -61l-34 -16q-26 22 -52.5 63.5t-64.5 165.5zM402 1022l54 -42q-60 -154 -152 -232l-72 47l-24 29q12 27 47 72t147 126zM831 1148l3 -39q-29 -16 -59 -27q-81 -26 -206 -30l-15 67q147 103 249 112zM173 1200l20 33 q86 -5 232 -110l-26 -67q-164 0 -258 53zM586 1369q0 -96 -58 -227h-70q-37 155 -4 265h92l38 -7q2 -12 2 -31z" />
<glyph unicode="+" d="M96 478v31l9 71h330l43 371h83l30 -12l-41 -359h326v-30l-9 -72h-328l-44 -373h-86l-27 12l41 361h-327z" />
<glyph unicode="," horiz-adv-x="390" d="M169 180q42 0 80 -23q20 -40 20 -106q0 -65 -19 -125t-83.5 -121.5t-168.5 -96.5l-24 49q80 40 135 99q55 60 55 120v22l-78 14l12 163q29 5 71 5z" />
<glyph unicode="-" horiz-adv-x="601" d="M98 478v31l8 71h418v-30l-8 -72h-418z" />
<glyph unicode="." horiz-adv-x="390" d="M165.5 203q42.5 0 61.5 -7q20 -36 20 -80t-39 -116h-124l-8 191q47 12 89.5 12z" />
<glyph unicode="/" horiz-adv-x="545" d="M65 -328h-83l-18 18l524 1608h83l19 -18z" />
<glyph unicode="0" horiz-adv-x="967" d="M535 1009q-60 0 -121 -29q-82 -82 -123.5 -254t-41.5 -334q0 -331 203 -330q65 0 123 28q84 81 124 252q38 172 38 332q0 335 -202 335zM557 1094q167 0 249 -123q83 -124 83 -334t-102 -421q-51 -106 -144.5 -173t-212.5 -67q-167 1 -249.5 124.5t-82.5 312.5t71 373 t211 263q79 45 177 45z" />
<glyph unicode="1" horiz-adv-x="657" d="M48 0v72q98 27 199 31l76 784q-70 -27 -201 -31v43l7 47q179 11 293 148l54 -16l-96 -994l195 -8v-36l-6 -40h-521z" />
<glyph unicode="2" horiz-adv-x="791" d="M690 139q0 -91 -34 -170h-92q-91 1 -234 17t-216 41l-69 -51q-36 9 -65 29l-2 22q142 114 245 208q103 95 135 131q124 142 158 207q64 126 63 219t-55 139t-131.5 46t-128.5 -46t-51 -135q0 -41 14 -96l-57 -24q-69 70 -69 148q0 115 93.5 193.5t229 78.5t221 -84.5 t85.5 -213.5q0 -171 -154 -352t-380 -358h359l40 143l90 -11q5 -47 5 -81z" />
<glyph unicode="3" horiz-adv-x="832" d="M707 234q0 -169 -119 -276.5t-307 -107.5q-121 0 -240 47l13 70q82 -10 149 -10q351 0 352 275q0 78 -32.5 130.5t-113.5 81.5q-68 -24 -139 -33l-27 22q-5 22 -5 41.5t3 41.5q11 14 77.5 14t90.5 -2q177 99 177 263q0 96 -54.5 141t-142.5 45q-90 0 -140 -58t-51 -133 q0 -24 2 -40l-61 -9q-38 64 -38 116q0 99 89 171t236 72t229 -82t82 -216q0 -200 -204 -286v-18q174 -69 174 -260z" />
<glyph unicode="4" horiz-adv-x="872" d="M471 964.5q0 -77.5 -73 -228t-259 -459.5l7 -16q134 11 196 11h162q18 151 42 297q51 29 112 40l23 -19q-24 -154 -41 -318h158v-34l-9 -68h-160q-16 -144 -27 -296h-136q13 153 28 296h-442l-26 62q214 433 304 671l-45 165l122 33q64 -59 64 -136.5z" />
<glyph unicode="5" horiz-adv-x="756" d="M261 614q197 0 302.5 -102t105.5 -269t-116.5 -280t-298.5 -113q-117 0 -236 47l13 70q77 -10 144 -10q175 0 259 76q83 78 83 213.5t-95 192t-323 73.5l65 562l101 22q93 -44 198 -44t235 44l17 -59q-120 -121 -285 -122q-96 0 -187 40l-52 -343q29 2 70 2z" />
<glyph unicode="6" horiz-adv-x="934" d="M853 429q-1 -202 -128 -327t-302 -126q-84 0 -147 34q-63 33 -94.5 79.5t-56.5 128.5t-26 219q0 138 43.5 281.5t121.5 256t197 180t260 67.5q60 0 132 -15v-68q-374 0 -518 -304q-86 -183 -84 -436q0 -337 205 -337q54 0 117 22q127 103 127 326t-160 223 q-71 0 -167 -42l-12 59q91 91 214.5 91t201 -79t76.5 -233z" />
<glyph unicode="7" horiz-adv-x="803" d="M158 -7q0 91 83 254q83 165 276 442q53 80 111 163t62 89q3 5 6.5 8.5t4.5 7.5h-450l-40 -142h-90q-9 58 -9 130t29 144q242 -1 392 -21q152 -19 211 -38l40 57q47 -12 72 -29l6 -21q-364 -509 -505 -862q-29 -70 -38 -112l29 -175l-117 -39q-29 14 -51 52q-22 39 -22 92 z" />
<glyph unicode="8" horiz-adv-x="909" d="M227 270q0 -98 47.5 -152.5t135.5 -54.5t149 29q39 32 63 90q24 59 24 127.5t-55 127.5q-53 59 -187 136q-177 -97 -177 -303zM529.5 1135q-75.5 0 -137.5 -29q-79 -68 -79 -197q0 -64 46 -115t138 -111l20 -12q170 103 169 277q0 85 -40.5 136t-116 51zM735 509 q61 -64 61 -183.5t-88 -227.5q-44 -54 -123.5 -87.5t-182.5 -34.5q-149 0 -237 72q-86 71 -86 210q0 241 258 347v19q-81 50 -126.5 111t-46.5 154q0 137 99.5 235.5t250.5 97.5q151 0 235.5 -69.5t84.5 -202t-88 -213.5q-63 -58 -155 -103v-18q54 -35 82 -54.5t62 -52.5z " />
<glyph unicode="9" horiz-adv-x="936" d="M380 332q-123 0 -200 79t-77 232q0 202 126 327t303 126q82 0 144.5 -33.5t96.5 -80.5q83 -116 83 -327t-74 -391.5t-219 -297t-329 -116.5q-60 0 -131 14v69q160 0 279 58t187 162q136 204 136 525q0 323 -206 323q-54 0 -117 -24q-128 -102 -128 -324t159 -223 q72 1 170 51l12 -59q-92 -90 -215 -90z" />
<glyph unicode=":" horiz-adv-x="390" d="M165.5 203q42.5 0 61.5 -7q20 -36 20 -80t-39 -116h-124l-8 191q47 12 89.5 12zM233 910q42 0 63 -7q19 -36 19 -80t-40 -116h-122l-9 191q47 12 89 12z" />
<glyph unicode=";" horiz-adv-x="390" d="M169 180q42 0 80 -23q20 -40 20 -106q0 -65 -19 -125t-83.5 -121.5t-168.5 -96.5l-24 49q80 40 135 99q55 60 55 120v22l-78 14l12 163q29 5 71 5zM233 910q42 0 63 -7q19 -36 19 -80t-40 -116h-122l-9 191q47 12 89 12z" />
<glyph unicode="&#x3c;" d="M225 533v-17l561 -337l-49 -105l-675 391l12 130l766 391l39 -97z" />
<glyph unicode="=" d="M74 297v31l9 72h771v-30l-8 -73h-772zM115 658v30l9 72h772v-30l-9 -72h-772z" />
<glyph unicode="&#x3e;" d="M867 465l-766 -391l-39 98l653 354v18l-560 337l48 105l676 -391z" />
<glyph unicode="?" horiz-adv-x="594" d="M231.5 198q42.5 0 62.5 -7q19 -36 19 -77.5t-39 -113.5h-123l-8 186q46 12 88.5 12zM301 1207q157 0 232.5 -93t75.5 -229q0 -162 -149 -273q-66 -48 -163 -93l-23 -193h-92q-23 162 -9 215q14 52 84 99q25 15 106 64t118.5 93t37.5 113q0 27 -5 69q-115 84 -330 84 l14 136q60 8 103 8z" />
<glyph unicode="@" horiz-adv-x="1608" d="M890.5 834q-72.5 0 -121.5 -16q-79 -75 -118.5 -202t-39.5 -245t25.5 -153t89.5 -34q24 0 48 3q61 76 117 208q58 132 147 394q-75 45 -147.5 45zM915 -146v-65q-74 -18 -183 -18t-227 40q-257 86 -356 321q-53 125 -53 294t63 324q131 314 447 443q160 65 342 65 q292 0 444 -156.5t152 -423.5q0 -138 -39.5 -249.5t-105.5 -182.5q-137 -145 -314 -145q-101 -1 -103 73q-1 35 33 197q32 162 50 269l-18 3q-68 -232 -118.5 -347.5t-105 -163t-138.5 -48.5q-224 0 -224 277q0 195 102 372q49 85 133.5 138t194.5 53t165 -62l4 50 q36 12 108 13l31 -20l-81 -716q149 19 229 138.5t80 341.5t-119 361q-120 138 -367 138q-123 0 -260 -35q-277 -131 -385 -413q-55 -140 -55 -295q-1 -435 402 -539q121 -32 272 -32z" />
<glyph unicode="A" horiz-adv-x="1147" d="M359 449h360q-55 243 -117 530h-18q-106 -235 -225 -530zM671 0v70q58 28 129 35l-59 254h-418l-107 -273l135 -9v-36l-5 -41h-370v70q60 29 134 36q243 590 447 1026l-20 84l29 24q74 0 115 -14q162 -712 276 -1142l125 -7v-36l-6 -41h-405z" />
<glyph unicode="B" horiz-adv-x="967" d="M458 90q147 0 214 46q60 61 59 221q0 109 -52.5 164t-188.5 55h-124l-43 -486h135zM487 1118h-73l-41 -454h239q68 51 101 151q19 55 19 117t-23 102q-47 84 -222 84zM27 0v70q69 26 152 36l88 995l-145 10v36l6 43q187 17 350 17q414 0 414 -282q0 -141 -96 -226 q-46 -43 -115 -68v-19q210 -55 211 -238q0 -87 -24 -150q-89 -224 -419 -224h-422z" />
<glyph unicode="C" horiz-adv-x="1035" d="M681.5 1126q-90.5 0 -180.5 -34q-100 -60 -166.5 -225.5t-66.5 -375t73 -304t216 -94.5q69 0 165 41t184 122l35 -67q-94 -105 -206.5 -159t-222.5 -54q-208 0 -307.5 136.5t-99.5 374.5q0 289 146 506q70 103 183.5 166t233.5 63t197 -44l2 29q52 14 86 15l36 -23 q4 -26 4 -80.5t-27 -224.5h-94l-9 198q-91 34 -181.5 34z" />
<glyph unicode="D" horiz-adv-x="1136" d="M458 90q165 0 272 70q89 92 129 236t40 300q0 217 -80 320t-260 102h-145l-91 -1028h135zM507 1207q313 0 434.5 -137.5t121.5 -360.5q0 -354 -181 -551q-64 -70 -169.5 -114t-238.5 -44h-447v70q69 26 152 36l88 995l-145 10v36l6 43q215 17 379 17z" />
<glyph unicode="E" horiz-adv-x="970" d="M867 189q0 -97 -42 -216l-23 -2l-544 29h-231v70q69 26 152 36l88 995l-145 8v35l7 46q226 9 421 9h270q58 23 92 23l36 -23q3 -26 3 -85t-26 -195h-94l-9 177l-409 18l-40 -454l325 12l17 -32l-10 -83l-339 14l-43 -488h384l60 192l96 -10q4 -50 4 -76z" />
<glyph unicode="F" horiz-adv-x="896" d="M930 1114q0 -59 -27 -195h-93l-10 177l-387 18l-43 -490l328 12l17 -32l-10 -83l-342 14l-40 -447l164 -9v-38l-6 -41h-454v70q69 29 152 36l88 995l-145 8v35l7 46q226 9 421 9h248q58 23 93 23l36 -23q3 -26 3 -85z" />
<glyph unicode="G" horiz-adv-x="1118" d="M1058 521v-70q-31 -13 -83 -26l-34 -423l-35 -24q-48 0 -84 15l-7 62q-103 -79 -267 -79q-214 0 -328 136.5t-114 381.5q0 184 64.5 350t193.5 272q131 106 317 106q107 0 184 -44l2 29q50 14 86 15l36 -23q4 -26 4 -80.5t-27 -224.5h-94l-10 198q-90 34 -181 34 t-180 -34q-101 -60 -167 -225.5t-66 -369.5q0 -325 182 -402q52 -23 121 -23q139 0 246 69l15 292l-140 7v38l8 43h358z" />
<glyph unicode="H" horiz-adv-x="1257" d="M1267 1199v-71q-72 -29 -156 -36l-89 -1006l148 -9v-36l-6 -41h-436v70q70 29 153 36l40 467h-555l-41 -487l148 -9v-36l-7 -41h-435v70q70 29 153 36l84 1006l-144 9v36l5 42h440v-71q-74 -31 -158 -36l-38 -430h555l38 450l-144 9v36l5 42h440z" />
<glyph unicode="I" horiz-adv-x="559" d="M569 1199v-71q-72 -29 -156 -36l-88 -1006l148 -9v-36l-7 -41h-435v70q70 29 153 36l84 1006l-144 9v36l5 42h440z" />
<glyph unicode="J" horiz-adv-x="760" d="M788 1199v-71q-66 -25 -152 -36l-79 -894q-18 -200 -85.5 -297t-224.5 -97q-93 0 -173.5 31t-127.5 86l30 74q195 -76 370 -85q45 69 61 238l85 961l-258 9v36l7 45h547z" />
<glyph unicode="K" horiz-adv-x="1104" d="M1126 1199v-71q-59 -24 -137 -34q-177 -258 -355 -467q136 -331 267 -529l129 7l12 -74q-85 -45 -148 -45t-97.5 23.5t-62.5 67.5q-105 162 -192 484h-178l-39 -475l148 -9v-36l-7 -41h-435v70q70 29 153 36l84 1006l-144 9v36l5 42h440v-71q-74 -31 -158 -36l-40 -449 l184 11q167 222 308 458l-146 9v36l5 42h404z" />
<glyph unicode="L" horiz-adv-x="901" d="M834 189q0 -97 -41 -216l-24 -2l-508 29h-230v70q67 24 153 36l84 1006l-144 9v36l5 42h459v-71q-83 -31 -175 -36l-88 -1009h349l62 192l95 -10q3 -50 3 -76z" />
<glyph unicode="M" horiz-adv-x="1465" d="M1449 1199v-71q-77 -31 -162 -36q-11 -456 -38 -1004l156 -11v-36l-5 -41h-441v70q64 28 145 35q47 605 64 982h-18q-120 -267 -413 -1027q-36 -20 -79 -26l-27 7q-141 690 -229 1046h-18q-67 -489 -121 -999l155 -11v-36l-5 -41h-401v70q62 28 143 35q61 504 139 994 l-153 12v36l5 41q150 11 377 11q45 -162 104 -440.5t88 -486.5h19q200 571 360 927h355z" />
<glyph unicode="N" horiz-adv-x="1228" d="M1242 1199v-71q-67 -31 -150 -36l-98 -1092q-44 -14 -96 -20h-31l-355 786q-81 176 -132 316h-17l-64 -994l155 -11v-36l-5 -41h-418v70q75 33 158 36l86 993l-165 12v36l5 41q175 11 359 11l290 -647q38 -83 149 -344h19l50 903l-155 10v36l5 42h410z" />
<glyph unicode="O" horiz-adv-x="1205" d="M664.5 1126q-71.5 0 -162.5 -34q-99 -60 -165.5 -225.5t-66.5 -369.5q0 -323 182 -402q52 -23 123.5 -23t161.5 34q100 60 166.5 225.5t66.5 369.5q0 323 -182 403q-52 22 -123.5 22zM690 1222q215 0 329 -140.5t114 -383.5q0 -286 -147 -497q-71 -102 -184.5 -163.5 t-251.5 -61.5q-215 0 -329.5 141t-114.5 384q0 181 66 347.5t200 270t318 103.5z" />
<glyph unicode="P" horiz-adv-x="913" d="M506 1202q112 0 196 -27q203 -65 203 -306q0 -300 -231 -384q-65 -24 -121.5 -24t-105.5 7v74q121 5 198 31q96 98 96 289q0 125 -51 190.5t-189 65.5h-88l-90 -1030l164 -9v-38l-6 -41h-454v70q69 29 152 36l88 995l-145 8v35l7 46q265 12 377 12z" />
<glyph unicode="Q" horiz-adv-x="1217" d="M106 504q0 287 150 497q72 101 185 160.5t249 60.5q215 0 329 -140t114 -389q0 -359 -190 -571q-98 -110 -231 -129l-2 -19q141 -104 260.5 -147t264.5 -43q63 0 149 7l7 -68q-101 -52 -221 -52q-221 -1 -353 92.5t-188 193.5v70q172 52 256.5 225.5t84.5 426.5 q0 161 -28.5 240.5t-61.5 118.5q-74 88 -211 88q-76 0 -167 -34q-99 -60 -166 -225.5t-66 -369.5q1 -380 282 -450l-20 -71q-208 7 -317 149.5t-109 378.5z" />
<glyph unicode="R" horiz-adv-x="1057" d="M748 889q0 115 -61 169t-190 54h-84l-45 -515h234q146 104 146 292zM856 -14q-64 0 -97 23.5t-63 67.5q-96 147 -175 425h-162l-36 -416l155 -9v-36l-5 -41h-444v70q67 29 150 36l88 995l-145 10v36l6 43q214 17 355 17q427 0 427 -316q0 -134 -72 -228.5t-196 -146.5 q117 -270 221 -418l130 7l11 -74q-84 -45 -148 -45z" />
<glyph unicode="S" horiz-adv-x="915" d="M526 1126q-84 0 -137 -20q-81 -52 -81 -162q0 -81 47 -136t146 -122l54 -36q182 -124 225 -242q19 -54 20 -119q0 -131 -86 -222t-281 -91t-350 76q-13 70 -13 133.5t11 149.5l96 9l47 -234q79 -38 191.5 -38t168.5 33q60 50 59.5 147.5t-49.5 152t-128 105.5l-57 40 q-124 84 -184.5 167t-60.5 193q0 146 98.5 229t249.5 83q105 0 188 -45l1 30q52 14 87 15l36 -23q3 -26 3 -89t-27 -198h-93l-9 182q-88 32 -172 32z" />
<glyph unicode="T" horiz-adv-x="920" d="M966 1114q0 -59 -27 -195h-93l-10 178l-229 14l-86 -1025l162 -9v-36l-5 -41h-470v70q82 31 169 36l88 1010h-214l-62 -203l-86 10q-4 50 -4 76q0 108 42 227l23 2l378 -29h292q58 23 93 23l36 -23q3 -26 3 -85z" />
<glyph unicode="U" horiz-adv-x="1169" d="M1214 1199v-71q-75 -34 -158 -36q-4 -52 -10 -145.5t-11 -161.5t-12 -177.5t-21 -205.5q-60 -425 -431 -426q-182 0 -278.5 103t-96.5 298q0 110 60 734l-144 10v36l5 42h440v-71q-77 -29 -157 -34q-61 -617 -61 -714q0 -172 60 -240t175 -68t201 42q88 79 116.5 289.5 t56.5 707.5l-143 10v36l6 42h403z" />
<glyph unicode="V" horiz-adv-x="1123" d="M1182 1199v-71q-45 -22 -109 -32q-71 -221 -206.5 -545t-244.5 -551q-43 -14 -105 -14l-32 21q-43 172 -267 1107l-117 7v36l5 42h406v-71q-60 -29 -134 -34q189 -895 202 -960h18q260 605 363 978l-153 9v36l5 42h369z" />
<glyph unicode="W" horiz-adv-x="1684" d="M1742 1199v-71q-44 -22 -110 -32q-68 -226 -196.5 -552t-229.5 -544q-44 -14 -105 -14l-33 21q-84 389 -151 779h-18q-96 -308 -306 -786q-43 -14 -105 -14l-32 21q-66 272 -238 1107l-117 7v36l5 42h406v-71q-60 -29 -134 -36q146 -817 174 -958h17q98 230 296 810 l-34 172l-76 5v36l5 42h370v-71q-65 -31 -139 -36l173 -958h18q233 583 340 978l-154 9v36l6 42h368z" />
<glyph unicode="X" horiz-adv-x="1142" d="M1137 1199v-71q-48 -25 -102 -34q-215 -284 -371 -463q182 -337 282 -547l117 -7v-36l-5 -41h-453v70q74 29 159 36q-128 287 -198 415h-18q-119 -150 -314 -433l143 -11v-36l-6 -41h-382v70q54 28 121 35q136 177 400 493q-176 323 -264 514l-127 9v36l5 42h452v-71 l-151 -32q101 -233 184 -386h18q85 114 281 401l-139 10v36l6 42h362z" />
<glyph unicode="Y" horiz-adv-x="1111" d="M1166 1199v-71q-72 -32 -139 -36q-124 -274 -378 -665l-31 -341l164 -9v-36l-5 -41h-473v70q67 29 170 36l28 324q-79 205 -277 682l-122 9v36l5 42h422v-71q-56 -25 -148 -34q157 -387 218 -566h18q209 335 305 583l-137 10v36l5 42h375z" />
<glyph unicode="Z" horiz-adv-x="1014" d="M927 189q0 -97 -42 -216l-23 -2l-630 27h-155l-12 38q404 606 728 1067l-5 13l-520 -20l-25 -177h-93q-11 86 -11 162t11 118l37 23q29 0 87 -23h706l14 -37q-574 -865 -729 -1066l7 -13h494l61 192l96 -10q4 -50 4 -76z" />
<glyph unicode="[" horiz-adv-x="528" d="M502 1334v-82l-185 -9q2 -61 0 -99q-11 -658 -112 -1369l175 -9l-5 -83h-236l-40 34l128 1617h275z" />
<glyph unicode="\" horiz-adv-x="653" d="M698 -310l-19 -18h-82l-525 1608l18 18h83z" />
<glyph unicode="]" horiz-adv-x="528" d="M38 -317v81l186 9v99q12 659 111 1370l-175 8l5 84h237l40 -34l-129 -1617h-275z" />
<glyph unicode="^" horiz-adv-x="808" d="M679 847l-206 315h-19l-246 -315l-91 61l316 413h129l222 -413z" />
<glyph unicode="_" horiz-adv-x="758" d="M11 -239v30l7 59h582v-30l-7 -59h-582z" />
<glyph unicode="`" horiz-adv-x="419" d="M348 1033l-198 259q48 67 117 90h43l123 -349h-85z" />
<glyph unicode="a" horiz-adv-x="1012" d="M521 840q-58 0 -119 -18q-90 -86 -135 -239.5t-45 -307.5t47 -189q25 -17 59 -17t64 5q69 77 141 242t177 470q-88 54 -189 54zM743 -14q-101 0 -101 93q0 35 12.5 98.5t21.5 113.5t26 137.5t34 173.5l-21 5q-79 -265 -138.5 -398t-119.5 -183t-162 -50t-163.5 69 t-61.5 241.5t73 347.5q117 291 403 291q110 0 178 -71l6 56q36 14 101 15l34 -24l-91 -808q80 1 181 77l27 -67q-68 -71 -157 -102q-43 -15 -82 -15z" />
<glyph unicode="b" horiz-adv-x="961" d="M741 609q0 137 -26.5 180t-87.5 43q-25 0 -56 -5q-69 -77 -140 -242.5t-184 -488.5q100 -34 175.5 -34t138.5 17q89 86 135 240q45 153 45 290zM892 618q0 -222 -104 -421q-52 -98 -149 -160t-232 -61q-136 0 -304 55l121 1198l-123 18l7 69q110 32 233 41l34 -23 l-76 -598q-36 -251 -72 -437l20 -5q79 264 138.5 397.5t119.5 183.5q61 49 164 49q104 0 163 -68q60 -68 60 -238z" />
<glyph unicode="c" horiz-adv-x="791" d="M229 359q0 -268 156 -269q54 0 129.5 33.5t150.5 101.5l33 -65q-160 -184 -345 -184q-94 1 -158 54q-118 98 -118 318q0 155 68 313.5t203 225.5q77 38 171 38q175 0 211 -114l-61 -92l-215 119q-40 -6 -74 -21q-109 -92 -142 -342q-9 -61 -9 -116z" />
<glyph unicode="d" horiz-adv-x="1012" d="M538.5 840q-75.5 0 -136.5 -18q-89 -86 -134.5 -239.5t-45.5 -307.5t47 -189q25 -17 58.5 -17t64.5 5q125 150 320 722q-98 44 -173.5 44zM743 -14q-101 0 -101 93q0 37 12.5 99.5t21.5 112t26 137.5q18 87 34 174l-21 5q-77 -264 -138 -398q-61 -133 -121 -182.5 t-162 -49.5t-162 68q-62 69 -62 245t67 334q125 301 410 301q111 0 181 -60l36 364l-122 18l7 69q110 32 232 41l34 -23l-143 -1241q82 1 183 77l27 -67q-68 -71 -157 -102q-43 -15 -82 -15z" />
<glyph unicode="e" horiz-adv-x="814" d="M605 712q0 128 -113 128q-56 0 -112 -23q-113 -96 -144 -356q248 23 327 120q42 51 42 131zM527.5 925q105.5 0 167.5 -57t62 -158t-74 -176q-147 -149 -454 -139v-46q0 -133 43 -196t110 -63t146 40.5t155 112.5l32 -64q-167 -202 -362 -203q-139 0 -207.5 104 t-68.5 265.5t61 303.5q34 79 82 139.5t125 98.5t182.5 38z" />
<glyph unicode="f" horiz-adv-x="543" d="M576 879v-36l-12 -55h-213l-70 -741q-22 -227 -98 -329.5t-209 -101.5q-73 0 -139.5 26.5t-109.5 72.5l29 74q191 -74 316 -74q51 65 69 254l72 808l-113 11v68q61 22 122 35q55 466 387 466q121 0 184 -74l-38 -103l-265 70q-30 -8 -59 -24q-45 -110 -68 -347h215z" />
<glyph unicode="g" horiz-adv-x="857" d="M117 -167q0 -64 57 -98t154 -34q167 0 277 70q33 38 33 76t-19 60.5t-67 42.5l-204 79q-29 11 -51 23q-180 -115 -180 -219zM246 574q0 -120 47.5 -158.5t109 -38.5t109.5 20q40 34 68.5 108.5t28.5 162.5t-44 129t-105 41t-118 -21q-41 -33 -68.5 -105.5t-27.5 -137.5z M769 -90q0 -117 -126.5 -205.5t-345.5 -88.5q-331 0 -331 188q0 93 84 163.5t211 115.5q-27 29 -27 68q0 71 76 146q-105 18 -161 87.5t-56 172.5q0 153 110 260.5t263 107.5q110 0 188 -62q61 186 184 186l47 -99l-189 -126q65 -80 64 -184q0 -134 -103 -241t-275 -107h-19 l-15 -130l135 -47q213 -71 249.5 -109.5t36.5 -95.5z" />
<glyph unicode="h" horiz-adv-x="1025" d="M762 -14q-113 0 -112 97q0 41 45.5 298t45.5 314.5t-11 84.5q-22 52 -99 52q-27 0 -58 -3q-146 -177 -341 -829q-36 -14 -98 -14l-35 23l125 1220l-123 18l7 69q110 32 233 41l34 -23l-76 -598q-36 -285 -61 -419l20 -5q115 371 192.5 492t209.5 121q99 0 156.5 -52.5 t57.5 -156t-90 -623.5q78 1 184 77l26 -67q-50 -52 -114.5 -84.5t-117.5 -32.5z" />
<glyph unicode="i" horiz-adv-x="490" d="M234 -14q-112 0 -112 102q0 88 80 700h-147v68q117 47 258 59l36 -23q-77 -658 -91 -799q72 0 175 77l26 -67q-113 -117 -225 -117zM399 1221.5q0 -38.5 -40 -110.5h-116l-9 179q93 25 144 6q21 -36 21 -74.5z" />
<glyph unicode="j" horiz-adv-x="454" d="M55 788v68q117 47 260 59l34 -23l-100 -872q-43 -404 -304 -404q-119 0 -184 71l30 74q154 -45 242 -46q58 72 75 251l94 822h-147zM364 1221.5q0 -38.5 -39 -110.5h-116l-9 179q93 25 144 6q20 -36 20 -74.5z" />
<glyph unicode="k" horiz-adv-x="983" d="M759 721q0 111 -104 111q-46 0 -77 -3q-151 -180 -344 -829q-36 -14 -98 -14l-35 23l123 1220l-123 18l7 69q110 32 233 41l34 -23l-76 -598q-39 -312 -60 -419l21 -5q81 261 138.5 388t117 176t159 49t167.5 -50.5t68 -166t-87 -211t-211 -133.5q52 -180 112 -268 q74 4 175 71l28 -66q-110 -115 -231 -115q-74 0 -107.5 48.5t-66 174.5t-32.5 200l110 27q71 64 115 143t44 142z" />
<glyph unicode="l" horiz-adv-x="507" d="M99 103q0 79 125 1126l-123 18l7 69q112 32 229 41l34 -23q-15 -139 -76 -625.5t-64 -624.5q44 0 107.5 22.5t110.5 53.5l27 -67q-50 -50 -122.5 -83.5t-135.5 -33.5q-119 0 -119 127z" />
<glyph unicode="m" horiz-adv-x="1605" d="M1231 88q0 39 45 294t45 313t-11 85q-21 52 -99 52q-26 0 -54 -3q-148 -177 -342 -829q-36 -14 -101 -14l-35 23q11 97 43.5 347t32.5 332q0 81 -23.5 112.5t-86.5 31.5q-27 0 -55 -3q-148 -179 -343 -829q-36 -14 -99 -14l-34 23l88 779h-147v68q117 47 258 59l35 -23 l-95 -575l19 -5q79 258 136.5 385t115.5 177q60 50 150 51q211 0 211 -201q0 -79 -65 -407l20 -5q115 373 191.5 492.5t211.5 120.5q212 0 212 -218q0 -94 -91 -614q77 1 184 77l27 -67q-50 -52 -115 -85.5t-109 -31.5q-44 0 -67 9t-38 31.5t-15 61.5z" />
<glyph unicode="n" horiz-adv-x="1039" d="M777 -14q-112 0 -112 97q0 41 45 297t45 325t-26 98t-67.5 29t-70.5 -3q-169 -198 -344 -829q-36 -14 -99 -14l-34 23l88 779h-147v68q117 47 258 59l35 -23l-95 -575l19 -5q115 371 192.5 492t209.5 121q100 0 157.5 -52.5t57.5 -156t-91 -623.5q78 1 184 77l27 -67 q-50 -52 -115 -84.5t-117 -32.5z" />
<glyph unicode="o" horiz-adv-x="911" d="M494 840q-58 0 -114 -23q-77 -67 -114 -208t-37 -272q0 -275 191 -275q58 0 113 22q78 67 114 208t36 272q0 276 -189 276zM514 925q160 0 240 -105.5t80 -285.5q0 -178 -98 -354q-50 -90 -138 -147t-201 -57q-159 0 -239.5 105t-80.5 284t97 357q50 89 138 146t202 57z " />
<glyph unicode="p" horiz-adv-x="978" d="M757 608q0 138 -25.5 181t-86.5 43q-27 0 -59 -5q-67 -77 -139 -239t-177 -469q88 -58 193 -57q55 0 117 17q90 85 134 238q43 153 43 291zM444 -24q-129 0 -193 79l-42 -425q-36 -14 -104 -14l-35 23l132 1149h-147v68q117 47 258 59l35 -23l-107 -593l20 -5 q78 264 139.5 397.5t122.5 183.5q61 49 163 49t162 -68q61 -68 60 -234q0 -224 -104 -425q-51 -98 -141.5 -160t-218.5 -61z" />
<glyph unicode="q" horiz-adv-x="972" d="M521 840q-58 0 -119 -18q-89 -86 -134.5 -239.5t-45.5 -307.5t47 -189q25 -17 58.5 -17t63.5 5q68 77 140.5 241t178.5 471q-88 54 -189 54zM546 925q111 0 178 -71l6 56q36 14 101 15l34 -24l-124 -1157l122 -18l-7 -68q-110 -33 -232 -42l-34 23l62 473q38 280 84 490 l-21 5q-79 -264 -139 -398q-60 -133 -120 -182.5t-162 -49.5t-162 68q-62 69 -62 243t73 349q119 288 403 288z" />
<glyph unicode="r" horiz-adv-x="689" d="M55 788v68q117 47 258 59l35 -23l-95 -575l19 -5q101 344 170.5 478.5t173.5 134.5q67 0 103 -56l-26 -116l-143 16q-74 -115 -142.5 -291.5t-160.5 -477.5q-36 -14 -99 -14l-34 23l88 779h-147z" />
<glyph unicode="s" horiz-adv-x="675" d="M580 204q0 -92 -81 -160t-211 -68t-204 61q-41 33 -55 84l72 94l234 -153q43 5 83 22q29 37 28 97.5t-29 99t-102 104.5t-94.5 84t-57.5 59t-47.5 74.5t-10.5 75.5q0 113 90 180t221 67q188 0 229 -115l-61 -93l-221 124q-47 -5 -84 -23q-41 -48 -41 -101t12 -73 q12 -21 18 -30q14 -22 88 -84q115 -99 169.5 -166.5t54.5 -159.5z" />
<glyph unicode="t" horiz-adv-x="586" d="M134 117q0 154 71 660l-109 11v68q65 22 128 35q22 124 39 192q40 24 92 33l23 -20l-27 -217h240v-36l-13 -55h-237q-73 -580 -76 -704q117 0 254 76l27 -67q-58 -52 -140.5 -84.5t-148.5 -32.5t-94.5 32t-28.5 109z" />
<glyph unicode="u" horiz-adv-x="1054" d="M784 -14q-101 0 -101 95q0 30 7.5 70t14.5 84t15 89.5t20.5 116.5t25.5 143l-20 6q-87 -287 -139 -394.5t-89 -145.5q-72 -74 -172.5 -74t-158.5 52.5t-58 160t36.5 310.5t50.5 289h-146v68q117 47 258 59l35 -23q-2 -17 -51 -304t-49 -389q1 -102 59 -123q21 -7 48 -7 t55 3q150 179 347 829q36 14 98 14l35 -23l-90 -799q79 1 182 77l26 -67q-117 -117 -239 -117z" />
<glyph unicode="v" horiz-adv-x="925" d="M872 700.5q0 -79.5 -50 -205.5q-113 -282 -311 -436q-105 -82 -207 -82t-149 91q-26 48 -26 143t87 577h-146v68q119 47 255 59l34 -23q-96 -551 -96 -698q0 -66 25.5 -95.5t84.5 -29.5h19q255 206 370 589l-128 191l96 76q70 -15 106 -80t36 -144.5z" />
<glyph unicode="w" horiz-adv-x="1422" d="M324 -24q-195 1 -195 237q0 93 87 575h-146v68q119 47 255 59l34 -23l-27 -166q-69 -416 -69 -506.5t26 -120.5t91 -30h11q165 178 280 493q27 200 57 339q36 14 101 14l34 -23q0 -133 -68 -357q-28 -267 -28 -338t22 -99.5t81 -28.5h21q235 192 369 589l-128 191l96 76 q70 -16 105.5 -80t35.5 -144.5t-50 -205.5t-127.5 -239.5t-184 -197t-193 -82.5t-130.5 43.5t-44 114t31 172.5l-22 6q-73 -158 -124.5 -224t-98 -89t-102.5 -23z" />
<glyph unicode="x" horiz-adv-x="896" d="M638 -14q-61 0 -92 35q-66 72 -139 332h-20q-65 -193 -135.5 -280t-156.5 -87q-88 0 -124 59l25 98l161 -19q89 98 206 318q-94 323 -102 346h-178v68q127 50 258 59l32 -23q63 -216 90 -319h18q49 148 126.5 245.5t169.5 96.5q55 0 85 -23l15 -110l-185 -34 q-65 -62 -193 -258q69 -234 168 -397q74 6 173 77l27 -67q-112 -117 -229 -117z" />
<glyph unicode="y" horiz-adv-x="868" d="M813 700q0 -143 -88.5 -358.5t-244.5 -418.5q-234 -307 -426 -307q-52 0 -104.5 22.5t-86.5 64.5l31 73q156 -53 254 -59q88 65 186 185q-119 583 -195 886h-146v68q135 52 225 59l36 -23q150 -638 175 -872h18q83 136 158.5 312.5t97.5 325.5l-128 191l96 76 q66 -16 104 -75t38 -150z" />
<glyph unicode="z" horiz-adv-x="786" d="M703 136q0 -188 -137 -188q-65 0 -181.5 39t-224.5 89l-74 -100q-38 6 -75 24l-15 22l568 769l-340 5l-37 -131h-89q-6 38 -6 102t34 148q270 0 498 -45l40 55q41 -5 77 -24l14 -22l-537 -724q210 -67 336 -76l57 174l87 -12q5 -54 5 -105z" />
<glyph unicode="{" horiz-adv-x="509" d="M339 384q0 -90 -137 -575l193 -47l-6 -75q-50 -7 -93 -8q-202 0 -203 132q0 47 55 266q54 217 83 341l-139 62l6 89l149 62q-7 103 -29 295t-22 237q0 100 54 138t120 39q68 1 125 -6v-76l-183 -47q5 -45 28.5 -223t24.5 -266t-36 -124.5t-149 -64.5v-17q85 -22 122 -51 t37 -81z" />
<glyph unicode="|" horiz-adv-x="478" d="M198 -216v1568h108v-1568h-108z" />
<glyph unicode="}" horiz-adv-x="506" d="M157 325.5q0 63.5 15 96.5q31 61 170 94v17q-86 24 -122 52t-36 97q-1 69 62.5 276.5t74.5 250.5l-193 47l6 75q50 7 95 8q200 0 200 -130q0 -55 -54 -261q-54 -207 -83 -317l138 -62l-5 -89l-150 -62q9 -103 29.5 -288t21.5 -252q2 -167 -117 -192q-68 -16 -180 -1v76 l182 46q-2 16 -28 236q-26 219 -26 282.5z" />
<glyph unicode="~" d="M656 380q-36 0 -75 19.5t-165 100.5t-129 83l-161 -145l-40 47q24 60 69 107q83 89 164 87q30 0 71 -19t129 -77.5t166 -104.5l158 144l41 -46q-28 -69 -89.5 -132.5t-138.5 -63.5z" />
<glyph unicode="&#xa1;" horiz-adv-x="461" d="M200 598h87q-4 -594 -34 -868q-85 -27 -148 -27l-28 27q35 194 123 868zM191 726l-9 186q99 26 152 5q20 -37 20 -77.5t-41 -113.5h-122z" />
<glyph unicode="&#xa2;" horiz-adv-x="827" d="M232 442q0 -126 41.5 -191t110.5 -76q38 332 74 748q-42 -5 -74 -24q-78 -65 -115 -198.5t-37 -258.5zM81 436q0 235 125 415q42 59 109 101t148 52l15 195l79 8l18 -10l-23 -191q65 -7 120 -36l2 29q52 14 86 14l36 -24q4 -25 4 -88t-26 -198h-95l-10 186 q-56 25 -129 34q-41 -368 -69 -743q115 29 234 128l32 -65q-129 -140 -276 -173l-14 -196l-81 -10l-18 12l22 184q-139 2 -214 107.5t-75 268.5z" />
<glyph unicode="&#xa3;" horiz-adv-x="954" d="M263 385q0 44 -9 114h-158v31l5 54h142q-9 71 -9 114q0 216 151 331q87 67 222 67q78 0 136 -25v11q52 14 86 14l36 -23q4 -26 4 -89.5t-28 -197.5h-93l-11 207q-66 15 -141 15t-123 -21q-87 -77 -88 -265q0 -48 10 -138h276v-30l-6 -55h-261q5 -69 5 -107 q0 -89 -40.5 -147t-136.5 -106l6 -18q175 -38 460 -38l59 189l83 -12q7 -58 7 -105q0 -132 -99 -225q-289 20 -521 125l-146 -96l-65 67q0 89 66 111q32 11 80 11q101 103 101 237z" />
<glyph unicode="&#xa4;" horiz-adv-x="970" d="M642 559q0 118 -30 149.5t-88 31.5q-57 1 -102 -14q-83 -58 -83 -245q0 -89 25 -133q43 -72 195 -27q83 58 83 238zM805 542q0 -97 -62 -191l141 -162l-86 -81l-138 159q-79 -52 -192.5 -52t-193.5 66l-171 -159l-76 80l178 162q-31 62 -30 130q0 124 85 223l-145 167 l87 77l149 -170q74 40 171.5 40t167.5 -47l180 162l71 -83l-175 -158q39 -66 39 -163z" />
<glyph unicode="&#xa5;" horiz-adv-x="1066" d="M1087 1073v-71q-74 -34 -141 -36q-84 -167 -212 -355h183v-31l-5 -54h-236l-72 -101l-7 -66h290v-31l-6 -54h-291l-17 -188l164 -9v-36l-6 -41h-471v70q66 29 169 36l15 168h-287v30l5 55h290l6 71l-38 96h-233v31l6 54h192q-44 113 -154 375l-123 8v36l6 43h421v-71 q-55 -25 -148 -34q128 -323 168 -445h18q165 230 270 461l-119 10v36l6 43h357z" />
<glyph unicode="&#xa6;" horiz-adv-x="478" d="M198 -216v522h108v-522h-108zM198 829v523h108v-523h-108z" />
<glyph unicode="&#xa7;" horiz-adv-x="872" d="M609 283.5q0 165.5 -71.5 348.5t-207.5 338q-55 -109 -55 -274.5t69 -348.5q70 -183 208 -338q57 109 57 274.5zM593 1144q-134 0 -222 -109q175 -105 282 -291t107 -420t-139 -400.5t-334 -166.5q-96 0 -145 41q-50 40 -50 95.5t32 77.5h94l54 -136h18q132 0 222 110 q-175 104 -282.5 289t-107.5 421q0 234 140 400t335 167q136 0 182 -88q12 -23 12 -63.5t-32 -62.5h-94l-56 136h-16z" />
<glyph unicode="&#xa8;" horiz-adv-x="597" d="M556.5 1285q40.5 0 55.5 -7q18 -36 18.5 -73t-33.5 -96h-107l-9 163q35 13 75.5 13zM223.5 1285q41.5 0 55.5 -7q18 -40 18 -77t-34 -92h-106l-9 163q34 13 75.5 13z" />
<glyph unicode="&#xa9;" horiz-adv-x="1389" d="M586 552q0 -152 68 -192q31 -19 76 -19q46 0 88.5 18t106.5 59l28 -59q-64 -72 -168 -104q-55 -17 -111 -17q-113 0 -175 73.5t-61 212.5q0 183 96 313q97 130 252 131q69 0 127.5 -29t66.5 -93l-77 -84l-150 115q-31 -1 -53 -8q-114 -87 -114 -317zM1202 654 q0 233 -130 359.5t-329 126.5t-314 -95q-156 -130 -196 -366q-11 -68 -11 -137q0 -234 124 -359t338 -125t358 147q160 166 160 449zM747 1222q116 0 219 -34t181.5 -101t122.5 -177t44 -232.5t-24 -220t-75 -185.5t-125 -153t-182 -104t-237 -39q-258 0 -409.5 146 t-151.5 418q0 175 62.5 325.5t203.5 252.5q142 104 371 104z" />
<glyph unicode="&#xaa;" horiz-adv-x="743" d="M198 583q-1 -127 64 -127q30 0 57 5q82 110 193 458q-53 32 -102 32t-87 -12q-121 -116 -125 -356zM254 378q-89 0 -133 46q-42 46 -42 140t17.5 168t55.5 141q37 68 101.5 109t147 41t125.5 -46l6 38q29 8 84 8l24 -15l-62 -537q62 0 123 46l20 -54q-36 -37 -85.5 -58 t-95.5 -21q-70 0 -69 63q0 44 69 356l-19 7q-83 -277 -130.5 -354.5t-136.5 -77.5z" />
<glyph unicode="&#xab;" horiz-adv-x="846" d="M584 502l109 -291l-71 -47l-206 323v25l280 322l61 -48zM272 502l110 -291l-72 -47l-205 323v25l279 322l61 -48z" />
<glyph unicode="&#xac;" d="M96 478v31l9 71h686l17 -30l-42 -375h-112l34 303h-592z" />
<glyph unicode="&#xad;" horiz-adv-x="601" d="M98 478v31l8 71h418v-30l-8 -72h-418z" />
<glyph unicode="&#xae;" horiz-adv-x="1041" d="M656 973q0 79 -88 79h-36l-13 -180h85q52 41 52 101zM557 1104q195 0 195 -124q0 -106 -110 -149q10 -21 30.5 -64t44.5 -81l69 4l5 -40q-105 -60 -162 24q-32 50 -60 144h-55l-15 -139l60 -5v-24l-2 -19h-202v41q36 11 61 14l31 358l-52 3v26l5 23q67 8 157 8zM580 1235 q-269 0 -349 -259q-21 -70 -20 -144q0 -163 93.5 -254.5t264.5 -92.5q172 0 263 119q92 119 92 283t-93 255q-94 92 -251 93zM586 1300q196 0 309.5 -107.5t113.5 -302t-115 -332.5t-342 -138q-193 0 -310 104q-116 105 -116 303q0 272 198 402q107 71 262 71z" />
<glyph unicode="&#xaf;" horiz-adv-x="542" d="M573 1190.5q0 -35.5 -16 -67.5h-418q-3 12 -3 45.5t15 66.5h418q4 -9 4 -44.5z" />
<glyph unicode="&#xb0;" horiz-adv-x="603" d="M387 1229q-153 0 -153 -161q0 -70 36 -110.5t90.5 -40.5t88.5 20q63 42 63 141q0 70 -36 110.5t-89 40.5zM384.5 1321q102.5 0 167.5 -70q64 -70 64 -172t-76.5 -178t-178.5 -76t-167 69t-65 172.5t77 178.5q76 76 178.5 76z" />
<glyph unicode="&#xb1;" d="M779 103v-33l-5 -70h-690l-1 31l7 72h689zM843 665v-34l-9 -69h-288l-32 -288h-87l-27 13l30 275h-284v31l9 72h289l32 288h83l31 -12l-31 -276h284z" />
<glyph unicode="&#xb2;" horiz-adv-x="550" d="M544 783q0 -49 -25 -91h-53q-89 0 -182 14q-91 14 -129 24l-52 -37q-20 4 -49 26l-2 18q25 21 96 72q111 81 194 160q83 80 81 159q0 50 -31.5 74t-78 24t-76.5 -23q-29 -23 -29 -54.5t10 -66.5l-54 -17q-49 43 -49 103.5t64 106.5t160.5 46t158.5 -47.5t61 -127.5 q0 -81 -83 -164t-245 -184h218l19 71l71 -4q5 -33 5 -82z" />
<glyph unicode="&#xb3;" horiz-adv-x="578" d="M239 774q178 0 177 110q1 36 -18.5 57.5t-62.5 33.5q-46 -16 -94 -24l-19 15q-6 16 -6 36l2 27q27 16 112 8q103 43 103 111q0 81 -110 81q-60 0 -89 -27t-29 -65l3 -21l-57 -4q-27 38 -27 70q0 55 61 98q60 42 162 41q102 0 161 -41.5t58 -113.5q0 -105 -143 -139v-18 q130 -23 131 -128q0 -81 -75 -135q-76 -54 -188.5 -54t-194.5 36l7 53q50 -7 136 -7z" />
<glyph unicode="&#xb4;" horiz-adv-x="411" d="M321 1382h43q64 -27 90 -90l-246 -259h-87z" />
<glyph unicode="&#xb5;" horiz-adv-x="1054" d="M784 -14q-101 0 -101 95q0 30 10.5 92.5t19.5 109.5q8 48 24 133q15 85 29 168l-20 6q-134 -444 -224 -536q-56 -58 -115 -71q-29 -6 -63 -7q-98 0 -141 87l-17 -8q43 -285 41 -425q-45 -14 -121 -14l-25 27q33 551 135 1145h-146v68q117 47 258 59l35 -23 q-2 -17 -51.5 -303t-48.5 -389q0 -102 59 -124q21 -7 47.5 -7t55.5 3q150 179 347 829q36 14 98 14l35 -23l-90 -799q79 1 182 77l26 -67q-117 -117 -239 -117z" />
<glyph unicode="&#xb6;" horiz-adv-x="1003" d="M1049 1199v-71q-77 -32 -164 -36l-77 -890q-16 -186 -100.5 -269t-234.5 -83q-195 0 -291 95l43 64q105 -62 224.5 -62t179.5 56q60 54 71 190l88 1006h261zM555 1199h88l-68 -785h-87q-196 -1 -300 87.5t-104 251.5t93 294q48 69 146 110.5t232 41.5z" />
<glyph unicode="&#xb7;" horiz-adv-x="390" d="M213 633q42 0 62 -7q21 -36 21 -80t-40 -117h-122l-10 191q47 13 89 13z" />
<glyph unicode="&#xb8;" horiz-adv-x="435" d="M304 -224q0 -66 -53 -113t-143 -47t-144 49l20 61q67 -25 106 -25t67.5 20.5t28.5 50.5t-20 40.5t-87 25.5l43 173h71l-14 -133q125 -4 125 -102z" />
<glyph unicode="&#xb9;" horiz-adv-x="454" d="M101 705v48q64 18 123 22l36 403q-56 -10 -123 -10v29l6 38q122 7 196 86l53 -12l-48 -547l117 -7v-24l-3 -26h-357z" />
<glyph unicode="&#xba;" horiz-adv-x="660" d="M375 951q-41 0 -74 -16q-45 -44 -69.5 -135.5t-23.5 -172.5q0 -176 122 -176q41 0 77 15q45 44 68 135.5t22 173.5q0 176 -122 176zM396 1023q107 0 163.5 -71t56.5 -194.5t-68 -240.5q-34 -61 -95.5 -100t-140.5 -39q-112 0 -167.5 71.5t-56.5 183.5q0 202 128 323 q73 67 180 67z" />
<glyph unicode="&#xbb;" horiz-adv-x="846" d="M724 487l-280 -323l-62 47l175 284l-108 291l70 48l205 -322v-25zM413 487l-281 -323l-62 47l176 284l-109 291l71 48l205 -322v-25z" />
<glyph unicode="&#xbc;" horiz-adv-x="1379" d="M1068 684.5q0 -49.5 -31 -123.5q-32 -74 -190 -312l6 -11q93 7 134 8h100q10 99 27 198q41 23 97 34l24 -17q-16 -117 -28 -215h105v-30l-7 -54h-106q-9 -83 -15 -162h-121q5 83 15 162h-304l-22 54q118 229 192 411l-31 119l103 29q52 -41 52 -90.5zM81 476v54 q63 20 134 24l50 511q-43 -14 -133 -18v33l5 39q130 7 211 103l52 -13l-65 -669l130 -8l-2 -28l-4 -28h-378zM1135 1199l5 -21q-254 -353 -363 -517q-108 -165 -240 -374.5t-212 -327.5l-72 41l-6 20q346 488 540.5 794t273.5 426z" />
<glyph unicode="&#xbd;" horiz-adv-x="1414" d="M1319 82q0 -51 -27 -106h-70q-113 1 -201 17q-89 16 -120 27l-52 -40q-32 9 -51 25l-2 21q10 8 57.5 45t63.5 51t60 50.5t61 56.5q18 20 51 53q34 35 49 59.5t41.5 67.5t26.5 108q0 123 -121 123q-52 0 -85.5 -29t-33.5 -69.5t11 -82.5l-52 -19q-50 50 -50 119.5 t67 124.5q69 55 171 55q101 0 164.5 -57t63.5 -156q0 -186 -362 -443h239l24 90l72 -6q5 -34 5 -85zM81 476v54q63 20 134 24l50 511q-43 -14 -133 -18v33l5 39q130 7 211 103l52 -13l-65 -669l130 -8l-2 -28l-4 -28h-378zM1135 1199l5 -21q-254 -353 -363 -517 q-108 -165 -240 -374.5t-212 -327.5l-72 41l-6 20q346 488 540.5 794t273.5 426z" />
<glyph unicode="&#xbe;" horiz-adv-x="1412" d="M1101 684.5q0 -49.5 -33 -123.5q-32 -76 -189 -312l6 -11q94 7 135 8h99q11 99 28 198q41 23 96 34l24 -17q-16 -119 -27 -215h105v-30l-7 -54h-107q-9 -83 -15 -162h-120q5 83 15 162h-306l-21 54q119 229 193 411l-31 119l103 29q52 -41 52 -90.5zM562 693 q0 -103 -82 -169q-82 -65 -202 -65t-202 38l8 55q52 -7 107 -8q236 0 236 154q-1 41 -20.5 67.5t-71.5 44.5q-50 -18 -99 -26l-20 16q-5 17 -5 32.5t4 34.5q12 10 54.5 10t62.5 -1q117 59 117 151q0 98 -117 98q-71 0 -103.5 -35.5t-32.5 -85.5l2 -25l-55 -6q-28 43 -28 81 q0 67 65 117t172 50t169 -51t62 -133q-1 -129 -153 -172v-18q132 -27 132 -154zM1168 1199l5 -21q-254 -353 -363.5 -517.5t-241.5 -374t-211 -327.5l-72 41l-6 20q355 500 545 800q191 300 270 420z" />
<glyph unicode="&#xbf;" horiz-adv-x="594" d="M447 453q0 -44 -7 -73q-11 -48 -82 -95q-25 -16 -106 -65t-118 -93t-38 -113q0 -27 5 -68q115 -84 329 -85l-14 -135q-60 -9 -122 -9t-123 27q-110 49 -145.5 168t-7.5 218q27 101 136 182q66 48 163 94l24 192h92q14 -101 14 -145zM337 726l-9 186q99 26 152 5 q20 -37 20 -77.5t-41 -113.5h-122z" />
<glyph unicode="&#xc0;" horiz-adv-x="1147" d="M359 449h360q-55 243 -117 530h-18q-106 -235 -225 -530zM671 0v70q58 28 129 35l-59 254h-418l-107 -273l135 -9v-36l-5 -41h-370v70q60 29 134 36q243 590 447 1026l-20 84l29 24q74 0 115 -14q162 -712 276 -1142l125 -7v-36l-6 -41h-405zM561 1303l-208 216 q43 61 110 89h43l144 -305h-89z" />
<glyph unicode="&#xc1;" horiz-adv-x="1147" d="M359 449h360q-55 243 -117 530h-18q-106 -235 -225 -530zM671 0v70q58 28 129 35l-59 254h-418l-107 -273l135 -9v-36l-5 -41h-370v70q60 29 134 36q243 590 447 1026l-20 84l29 24q74 0 115 -14q162 -712 276 -1142l125 -7v-36l-6 -41h-405zM555 1303l217 307h43 q61 -28 88 -88l-258 -219h-90z" />
<glyph unicode="&#xc2;" horiz-adv-x="1147" d="M359 449h360q-55 243 -117 530h-18q-106 -235 -225 -530zM671 0v70q58 28 129 35l-59 254h-418l-107 -273l135 -9v-36l-5 -41h-370v70q60 29 134 36q243 590 447 1026l-20 84l29 24q74 0 115 -14q162 -712 276 -1142l125 -7v-36l-6 -41h-405zM349 1303l267 290h84 l163 -241l-104 -67l-141 164h-16l-155 -146h-98z" />
<glyph unicode="&#xc3;" horiz-adv-x="1147" d="M359 449h360q-55 243 -117 530h-18q-106 -235 -225 -530zM671 0v70q58 28 129 35l-59 254h-418l-107 -273l135 -9v-36l-5 -41h-370v70q60 29 134 36q243 590 447 1026l-20 84l29 24q74 0 115 -14q162 -712 276 -1142l125 -7v-36l-6 -41h-405zM533 1544q38 0 91 -30 l113 -66l97 93l40 -47q-65 -155 -167 -155q-36 0 -95 33l-111 64l-97 -91l-40 45q65 154 169 154z" />
<glyph unicode="&#xc4;" horiz-adv-x="1147" d="M359 449h360q-55 243 -117 530h-18q-106 -235 -225 -530zM671 0v70q58 28 129 35l-59 254h-418l-107 -273l135 -9v-36l-5 -41h-370v70q60 29 134 36q243 590 447 1026l-20 84l29 24q74 0 115 -14q162 -712 276 -1142l125 -7v-36l-6 -41h-405zM752 1353l-11 166 q33 14 76 14t59 -6q44 -65 -14 -174h-110zM506 1457q0 -44 -32 -104h-110l-11 166q32 14 76 14t59 -6q18 -26 18 -70z" />
<glyph unicode="&#xc5;" horiz-adv-x="1147" d="M359 449h360q-55 243 -117 530h-18q-106 -235 -225 -530zM671 0v70q58 28 129 35l-59 254h-418l-107 -273l135 -9v-36l-5 -41h-370v70q60 29 134 36q243 590 447 1026l-20 84l29 24q74 0 115 -14q162 -712 276 -1142l125 -7v-36l-6 -41h-405zM552 1438q0 -72 57 -72 q29 0 47 11q30 38 30 99.5t-55 60.5q-28 0 -48 -10q-31 -38 -31 -89zM598 1294q-156 0 -156 140q0 85 56 131q57 45 145 45q153 0 153 -140q0 -85 -55 -130.5t-143 -45.5z" />
<glyph unicode="&#xc6;" horiz-adv-x="1491" d="M788 1114h-36q-148 -247 -368 -665h346zM1388 189q0 -97 -42 -216l-23 -2l-544 29h-231v70q69 26 152 36l21 251h-384q-77 -151 -137 -271l134 -9v-36l-6 -41h-352v70q49 28 114 35q241 481 559 1009l-107 4v36l8 45h791q58 23 92 23l36 -23q3 -26 3 -85t-27 -195h-93 l-9 177l-409 18l-40 -454l324 12l18 -32l-10 -83l-339 14l-44 -488h385l60 192l96 -10q4 -50 4 -76z" />
<glyph unicode="&#xc7;" horiz-adv-x="1035" d="M681 1126q-90 0 -180 -34q-100 -60 -166.5 -225.5t-66.5 -374.5t73 -304t216 -95q68 0 164.5 40.5t184.5 122.5l35 -67q-150 -167 -344 -205l-13 -106q126 -4 126 -102q-1 -66 -53.5 -113t-142.5 -47t-144 49l19 61q69 -25 107.5 -25t66.5 21t28 51t-20 40t-86 25l34 138 h-7q-208 0 -308 136.5t-99 374.5q0 288 146 506q70 104 183.5 166.5t233.5 62.5t197 -44l2 29q52 14 86 15l36 -23q4 -26 4 -80.5t-27 -224.5h-94l-9 198q-92 34 -182 34z" />
<glyph unicode="&#xc8;" horiz-adv-x="970" d="M867 189q0 -97 -42 -216l-23 -2l-544 29h-231v70q69 26 152 36l88 995l-145 8v35l7 46q226 9 421 9h270q58 23 92 23l36 -23q3 -26 3 -85t-26 -195h-94l-9 177l-409 18l-40 -454l325 12l17 -32l-10 -83l-339 14l-43 -488h384l60 192l96 -10q4 -50 4 -76zM514 1303 l-208 216q43 61 110 89h43l145 -305h-90z" />
<glyph unicode="&#xc9;" horiz-adv-x="970" d="M867 189q0 -97 -42 -216l-23 -2l-544 29h-231v70q69 26 152 36l88 995l-145 8v35l7 46q226 9 421 9h270q58 23 92 23l36 -23q3 -26 3 -85t-26 -195h-94l-9 177l-409 18l-40 -454l325 12l17 -32l-10 -83l-339 14l-43 -488h384l60 192l96 -10q4 -50 4 -76zM509 1303 l215 307h43q64 -28 89 -88l-258 -219h-89z" />
<glyph unicode="&#xca;" horiz-adv-x="970" d="M867 189q0 -97 -42 -216l-23 -2l-544 29h-231v70q69 26 152 36l88 995l-145 8v35l7 46q226 9 421 9h270q58 23 92 23l36 -23q3 -26 3 -85t-26 -195h-94l-9 177l-409 18l-40 -454l325 12l17 -32l-10 -83l-339 14l-43 -488h384l60 192l96 -10q4 -50 4 -76zM303 1303 l266 290h83l165 -241l-105 -67l-141 164h-16l-155 -146h-97z" />
<glyph unicode="&#xcb;" horiz-adv-x="970" d="M867 189q0 -97 -42 -216l-23 -2l-544 29h-231v70q69 26 152 36l88 995l-145 8v35l7 46q226 9 421 9h270q58 23 92 23l36 -23q3 -26 3 -85t-26 -195h-94l-9 177l-409 18l-40 -454l325 12l17 -32l-10 -83l-339 14l-43 -488h384l60 192l96 -10q4 -50 4 -76zM705 1353 l-12 166q32 14 76 14t60 -6q45 -65 -14 -174h-110zM459 1457q0 -44 -32 -104h-110l-11 166q33 14 76 14t60 -6q17 -26 17 -70z" />
<glyph unicode="&#xcc;" horiz-adv-x="559" d="M569 1199v-71q-72 -29 -156 -36l-88 -1006l148 -9v-36l-7 -41h-435v70q70 29 153 36l84 1006l-144 9v36l5 42h440zM315 1303l-207 216q43 61 110 89h43l145 -305h-91z" />
<glyph unicode="&#xcd;" horiz-adv-x="559" d="M569 1199v-71q-72 -29 -156 -36l-88 -1006l148 -9v-36l-7 -41h-435v70q70 29 153 36l84 1006l-144 9v36l5 42h440zM310 1303l216 307h43q62 -28 89 -88l-258 -219h-90z" />
<glyph unicode="&#xce;" horiz-adv-x="559" d="M569 1199v-71q-72 -29 -156 -36l-88 -1006l148 -9v-36l-7 -41h-435v70q70 29 153 36l84 1006l-144 9v36l5 42h440zM105 1303l266 290h83l164 -241l-104 -67l-141 164h-16l-155 -146h-97z" />
<glyph unicode="&#xcf;" horiz-adv-x="559" d="M569 1199v-71q-72 -29 -156 -36l-88 -1006l148 -9v-36l-7 -41h-435v70q70 29 153 36l84 1006l-144 9v36l5 42h440zM454 1353l-7 166q33 14 76 14t60 -6q19 -27 19 -75t-38 -99h-110zM150 1353l-7 166q32 14 75 14t59 -6q19 -27 19 -78.5t-36 -95.5h-110z" />
<glyph unicode="&#xd0;" horiz-adv-x="1136" d="M458 90q165 0 272 70q88 92 128.5 236t40.5 300q0 216 -80 319.5t-260 102.5h-145l-39 -451h236v-31l-9 -63h-236l-43 -483h135zM507 1207q314 0 435 -138q123 -138 122 -362q-2 -351 -182 -549q-64 -70 -169.5 -114t-238.5 -44h-447v70q69 26 152 36l41 467h-115v31 l9 63h115l38 434l-145 10v36l6 43q215 17 379 17z" />
<glyph unicode="&#xd1;" horiz-adv-x="1228" d="M1242 1199v-71q-67 -31 -150 -36l-98 -1092q-44 -14 -96 -20h-31l-355 786q-81 176 -132 316h-17l-64 -994l155 -11v-36l-5 -41h-418v70q75 33 158 36l86 993l-165 12v36l5 41q175 11 359 11l290 -647q38 -83 149 -344h19l50 903l-155 10v36l5 42h410zM649 1544 q37 0 90 -30l114 -66l97 93l39 -47q-65 -155 -167 -155q-36 0 -94 33l-112 64l-97 -91l-39 45q65 154 169 154z" />
<glyph unicode="&#xd2;" horiz-adv-x="1205" d="M270 497q0 -325 182 -402q52 -23 123.5 -23t161.5 34q100 60 166 226q67 165 67 342t-40 275q-71 177 -266 177q-71 0 -162 -34q-99 -60 -166 -225.5t-66 -369.5zM690 1222q215 0 329 -140.5t114 -383.5q0 -286 -147 -498q-71 -103 -184.5 -163t-251.5 -61 q-215 0 -329.5 141t-114.5 384q0 186 67 350q106 262 342 343q82 28 175 28zM643 1303l-207 216q44 61 110 89h44l144 -305h-91z" />
<glyph unicode="&#xd3;" horiz-adv-x="1205" d="M270 497q0 -325 182 -402q52 -23 123.5 -23t161.5 34q100 60 166 226q67 165 67 342t-40 275q-71 177 -266 177q-71 0 -162 -34q-99 -60 -166 -225.5t-66 -369.5zM690 1222q215 0 329 -140.5t114 -383.5q0 -286 -147 -498q-71 -103 -184.5 -163t-251.5 -61 q-215 0 -329.5 141t-114.5 384q0 186 67 350q106 262 342 343q82 28 175 28zM854 1610h44q61 -28 88 -88l-258 -219h-90z" />
<glyph unicode="&#xd4;" horiz-adv-x="1205" d="M270 497q0 -325 182 -402q52 -23 123.5 -23t161.5 34q100 60 166 226q67 165 67 342t-40 275q-71 177 -266 177q-71 0 -162 -34q-99 -60 -166 -225.5t-66 -369.5zM690 1222q215 0 329 -140.5t114 -383.5q0 -286 -147 -498q-71 -103 -184.5 -163t-251.5 -61 q-215 0 -329.5 141t-114.5 384q0 186 67 350q106 262 342 343q82 28 175 28zM841 1285l-140 164h-16l-155 -146h-97l267 290h82l164 -241z" />
<glyph unicode="&#xd5;" horiz-adv-x="1205" d="M970 701q0 325 -182 403q-52 22 -123.5 22t-162.5 -34q-99 -60 -166 -225.5t-66 -369.5q0 -325 182 -402q51 -23 123.5 -23t161.5 34q100 60 166 226q67 165 67 369zM1133 698q0 -286 -147 -498q-71 -103 -184.5 -163t-254.5 -61q-140 0 -242 65q-199 130 -199 460 q0 233 99.5 421.5t277.5 259.5q96 39 207 40q215 0 329 -140.5t114 -383.5zM616 1544q38 0 91 -30l113 -66l97 93l40 -47q-66 -155 -168 -155q-36 0 -93 33l-112 64l-97 -91l-40 45q65 154 169 154z" />
<glyph unicode="&#xd6;" horiz-adv-x="1205" d="M270 497q0 -325 182 -402q52 -23 123.5 -23t161.5 34q100 60 166 226q67 165 67 342t-40 275q-71 177 -266 177q-71 0 -162 -34q-99 -60 -166 -225.5t-66 -369.5zM690 1222q215 0 329 -140.5t114 -383.5q0 -286 -147 -498q-71 -103 -184.5 -163t-251.5 -61 q-215 0 -329.5 141t-114.5 384q0 186 67 350q106 262 342 343q82 28 175 28zM977 1457q0 -44 -33 -104h-110l-10 166q32 14 75 14t60 -6q18 -26 18 -70zM447 1353l-11 166q33 14 76 14t59 -6q45 -65 -14 -174h-110z" />
<glyph unicode="&#xd7;" d="M876 815l-315 -289l264 -290l-46 -57l-29 -17l-267 292l-319 -294l-54 56l-9 27l312 289l-267 292l47 57l29 17l268 -296l321 296l52 -52z" />
<glyph unicode="&#xd8;" horiz-adv-x="1205" d="M573 72q74 0 164 34q100 60 166.5 225.5t66.5 342t-40 274.5l-560 -795q74 -81 203 -81zM667 1126q-74 0 -165 -34q-99 -60 -165.5 -225.5t-66.5 -345.5t43 -282l566 798q-76 89 -212 89zM1133 698q0 -286 -147 -497q-71 -102 -184.5 -163.5t-260 -61.5t-251.5 76 l-130 -181l-72 31l-7 21l139 194q-114 139 -114 384q0 181 66 347.5t199 269.5q134 104 307.5 104t282.5 -83l133 189l72 -32l7 -20l-146 -203q106 -139 106 -375z" />
<glyph unicode="&#xd9;" horiz-adv-x="1169" d="M1214 1199v-71q-75 -34 -158 -36q-7 -104 -16 -239q-22 -341 -38 -451q-60 -425 -431 -426q-182 0 -279 103t-96 298q0 110 60 734l-144 10v36l5 42h440v-71q-77 -29 -157 -34q-61 -617 -61 -714t14 -151q40 -157 231 -157q105 0 191 42q88 78 116.5 289t56.5 708 l-143 10v36l6 42h403zM643 1303l-207 216q44 61 110 89h44l144 -305h-91z" />
<glyph unicode="&#xda;" horiz-adv-x="1169" d="M1214 1199v-71q-75 -34 -158 -36q-7 -104 -16 -239q-22 -341 -38 -451q-60 -425 -431 -426q-182 0 -279 103t-96 298q0 110 60 734l-144 10v36l5 42h440v-71q-77 -29 -157 -34q-61 -617 -61 -714t14 -151q40 -157 231 -157q105 0 191 42q88 78 116.5 289t56.5 708 l-143 10v36l6 42h403zM638 1303l216 307h44q61 -28 88 -88l-258 -219h-90z" />
<glyph unicode="&#xdb;" horiz-adv-x="1169" d="M1214 1199v-71q-75 -34 -158 -36q-7 -104 -16 -239q-22 -341 -38 -451q-60 -425 -431 -426q-182 0 -279 103t-96 298q0 110 60 734l-144 10v36l5 42h440v-71q-77 -29 -157 -34q-61 -617 -61 -714t14 -151q40 -157 231 -157q105 0 191 42q88 78 116.5 289t56.5 708 l-143 10v36l6 42h403zM433 1303l267 290h82l164 -241l-105 -67l-140 164h-16l-155 -146h-97z" />
<glyph unicode="&#xdc;" horiz-adv-x="1169" d="M1214 1199v-71q-75 -34 -158 -36q-7 -104 -16 -239q-22 -341 -38 -451q-60 -425 -431 -426q-182 0 -279 103t-96 298q0 110 60 734l-144 10v36l5 42h440v-71q-77 -29 -157 -34q-61 -617 -61 -714t14 -151q40 -157 231 -157q105 0 191 42q88 78 116.5 289t56.5 708 l-143 10v36l6 42h403zM977 1457q0 -44 -33 -104h-110l-10 166q32 14 75 14t60 -6q18 -26 18 -70zM447 1353l-11 166q33 14 76 14t59 -6q45 -65 -14 -174h-110z" />
<glyph unicode="&#xdd;" horiz-adv-x="1111" d="M1166 1199v-71q-72 -32 -139 -36q-124 -274 -378 -665l-31 -341l164 -9v-36l-5 -41h-473v70q67 29 170 36l28 324q-79 205 -277 682l-122 9v36l5 42h422v-71q-56 -25 -148 -34q157 -387 218 -566h18q209 335 305 583l-137 10v36l5 42h375zM597 1303l216 307h43 q62 -28 88 -88l-258 -219h-89z" />
<glyph unicode="&#xde;" horiz-adv-x="927" d="M504 1008q236 0 320 -108q70 -90 71 -214q3 -320 -230 -401q-65 -24 -121 -24t-106 7v74q121 6 198 31q96 98 95 289q0 126 -47.5 189t-173.5 62h-113l-72 -825l163 -9v-38l-5 -41h-454v70q69 29 151 36l88 1006l-144 9v36l5 42h278l13 -26l-14 -165h98z" />
<glyph unicode="&#xdf;" horiz-adv-x="936" d="M664 1357q235 0 235 -234q0 -159 -119 -315q-63 -80 -178 -192q155 -162 207.5 -235t52.5 -147q0 -110 -88 -184t-215 -74q-150 0 -196 122l67 75l141 -115q62 0 121 19q39 51 39 125.5t-88 170.5q-102 102 -116 156q-4 21 -4 55.5t13 54.5q13 19 20 28t20 28 q13 20 36 49q53 70 95 162q41 92 41 176t-14 122q-25 67 -108 68q-49 0 -103 -20q-76 -55 -127 -177.5t-73 -357.5l-62 -670q-22 -227 -98 -329q-77 -102 -206 -102t-200 74l30 74q157 -45 263 -47q50 67 69 252l70 808l-112 11v68q74 26 128 36q41 204 161 334.5t298 130.5 z" />
<glyph unicode="&#xe0;" horiz-adv-x="1012" d="M521 840q-58 0 -119 -18q-89 -86 -134.5 -239.5t-45.5 -307.5t47 -189q25 -17 58.5 -17t64.5 5q69 77 141 241.5t177 470.5q-88 54 -189 54zM743 -14q-101 0 -101 93q0 37 12.5 99.5t21.5 112t26 137.5q18 87 34 174l-21 5q-79 -264 -139 -398q-60 -133 -120 -182.5 t-162 -49.5t-162 68q-62 69 -62 243t73 349q119 288 403 288q111 0 178 -71l6 56q36 14 101 15l34 -24l-91 -808q80 1 181 77l27 -67q-68 -71 -157 -102q-43 -15 -82 -15zM509 1033l-199 259q50 67 117 90h44l122 -349h-84z" />
<glyph unicode="&#xe1;" horiz-adv-x="1012" d="M521 840q-58 0 -119 -18q-89 -86 -134.5 -239.5t-45.5 -307.5t47 -189q25 -17 58.5 -17t64.5 5q69 77 141 241.5t177 470.5q-88 54 -189 54zM743 -14q-101 0 -101 93q0 37 12.5 99.5t21.5 112t26 137.5q18 87 34 174l-21 5q-79 -264 -139 -398q-60 -133 -120 -182.5 t-162 -49.5t-162 68q-62 69 -62 243t73 349q119 288 403 288q111 0 178 -71l6 56q36 14 101 15l34 -24l-91 -808q80 1 181 77l27 -67q-68 -71 -157 -102q-43 -15 -82 -15zM504 1033l201 349h43q34 -11 58 -42q25 -30 32 -48l-247 -259h-87z" />
<glyph unicode="&#xe2;" horiz-adv-x="1012" d="M521 840q-58 0 -119 -18q-89 -86 -134.5 -239.5t-45.5 -307.5t47 -189q25 -17 58.5 -17t64.5 5q69 77 141 241.5t177 470.5q-88 54 -189 54zM743 -14q-101 0 -101 93q0 37 12.5 99.5t21.5 112t26 137.5q18 87 34 174l-21 5q-79 -264 -139 -398q-60 -133 -120 -182.5 t-162 -49.5t-162 68q-62 69 -62 243t73 349q119 288 403 288q111 0 178 -71l6 56q36 14 101 15l34 -24l-91 -808q80 1 181 77l27 -67q-68 -71 -157 -102q-43 -15 -82 -15zM313 1035l248 339h81l146 -291l-107 -54l-120 200h-17l-144 -194h-87z" />
<glyph unicode="&#xe3;" horiz-adv-x="1012" d="M521 840q-58 0 -119 -18q-89 -86 -134.5 -239.5t-45.5 -307.5t47 -189q25 -17 58.5 -17t64.5 5q69 77 141 241.5t177 470.5q-88 54 -189 54zM743 -14q-101 0 -101 93q0 37 12.5 99.5t21.5 112t26 137.5q18 87 34 174l-21 5q-79 -264 -139 -398q-60 -133 -120 -182.5 t-162 -49.5t-162 68q-62 69 -62 243t73 349q119 288 403 288q111 0 178 -71l6 56q36 14 101 15l34 -24l-91 -808q80 1 181 77l27 -67q-68 -71 -157 -102q-43 -15 -82 -15zM638 1089q-34 0 -88 32l-99 61l-98 -92l-40 47q87 162 175 163q35 0 88 -35l98 -59l100 92l37 -46 q-84 -163 -173 -163z" />
<glyph unicode="&#xe4;" horiz-adv-x="1012" d="M521 840q-58 0 -119 -18q-89 -86 -134.5 -239.5t-45.5 -307.5t47 -189q25 -17 58.5 -17t64.5 5q69 77 141 241.5t177 470.5q-88 54 -189 54zM743 -14q-101 0 -101 93q0 37 12.5 99.5t21.5 112t26 137.5q18 87 34 174l-21 5q-79 -264 -139 -398q-60 -133 -120 -182.5 t-162 -49.5t-162 68q-62 69 -62 243t73 349q119 288 403 288q111 0 178 -71l6 56q36 14 101 15l34 -24l-91 -808q80 1 181 77l27 -67q-68 -71 -157 -102q-43 -15 -82 -15zM736.5 1285q40.5 0 56.5 -7q18 -36 18 -73t-34 -96h-106l-9 163q34 13 74.5 13zM404 1285q41 0 55 -7 q18 -40 18 -77t-33 -92h-107l-9 163q35 13 76 13z" />
<glyph unicode="&#xe5;" horiz-adv-x="1012" d="M521 840q-58 0 -119 -18q-89 -86 -134.5 -239.5t-45.5 -307.5t47 -189q25 -17 58.5 -17t64.5 5q69 77 141 241.5t177 470.5q-88 54 -189 54zM743 -14q-101 0 -101 93q0 37 12.5 99.5t21.5 112t26 137.5q18 87 34 174l-21 5q-79 -264 -139 -398q-60 -133 -120 -182.5 t-162 -49.5t-162 68q-62 69 -62 243t73 349q119 288 403 288q111 0 178 -71l6 56q36 14 101 15l34 -24l-91 -808q80 1 181 77l27 -67q-68 -71 -157 -102q-43 -15 -82 -15zM501 1196q0 -71 58 -71q29 0 46 10q31 38 31 109.5t-58 71.5q-26 0 -46 -11q-31 -38 -31 -109z M584 1388q162 0 162 -159q0 -81 -54.5 -129t-123.5 -48q-66 0 -102 16q-75 34 -75 129t57 142.5t136 48.5z" />
<glyph unicode="&#xe6;" horiz-adv-x="1329" d="M222 292q0 -137 26 -180t89 -43q22 0 50 3q43 56 86.5 140.5t68 147t72 192t116.5 220.5q-105 68 -206 68q-61 0 -122 -18q-90 -86 -135 -239.5t-45 -290.5zM1121 717.5q0 122.5 -113 122.5q-57 0 -112 -23q-114 -96 -144 -356q192 20 280.5 77t88.5 179.5zM1008 925 q264 0 264 -214q0 -102 -73 -178q-145 -148 -455 -138v-46q0 -133 44 -196t110 -63t146.5 41t154.5 112l32 -64q-167 -202 -368 -203q-133 0 -182.5 80.5t-49.5 166t14 161.5l-19 5q-80 -278 -150 -345.5t-177.5 -67.5t-168 69.5t-60.5 242.5t69 337q36 86 87 152t130.5 107 t175.5 41q154 0 237 -105q102 105 239 105z" />
<glyph unicode="&#xe7;" horiz-adv-x="791" d="M229 359q0 -268 156 -269q53 0 129 33.5t151 101.5l33 -65q-130 -149 -282 -178l-10 -104q126 -4 126 -102q0 -66 -53 -113t-143 -47t-145 49l20 61q67 -25 107.5 -25t67 22t27.5 51q0 28 -20.5 38.5t-86.5 25.5l35 138q-133 6 -198.5 110.5t-65.5 262t63 300.5 q73 171 208 238q77 38 171 38q175 0 211 -114l-61 -92l-215 119q-40 -6 -74 -21q-118 -99 -147 -367q-4 -48 -4 -91z" />
<glyph unicode="&#xe8;" horiz-adv-x="814" d="M605 712q0 128 -113 128q-56 0 -112 -23q-113 -96 -144 -356q248 24 327 120q42 51 42 131zM527.5 925q105.5 0 167.5 -57q62 -58 62 -158.5t-74 -175.5q-147 -149 -454 -139v-46q0 -133 43 -196t110 -63t146 40.5t155 112.5l32 -64q-167 -202 -362 -203q-138 0 -207 104 t-69 267.5t61 301.5q34 79 82 139.5t125 98.5t182.5 38zM465 1033l-198 259q48 67 117 90h43l123 -349h-85z" />
<glyph unicode="&#xe9;" horiz-adv-x="814" d="M605 712q0 128 -113 128q-56 0 -112 -23q-113 -96 -144 -356q248 24 327 120q42 51 42 131zM527.5 925q105.5 0 167.5 -57q62 -58 62 -158.5t-74 -175.5q-147 -149 -454 -139v-46q0 -133 43 -196t110 -63t146 40.5t155 112.5l32 -64q-167 -202 -362 -203q-138 0 -207 104 t-69 267.5t61 301.5q34 79 82 139.5t125 98.5t182.5 38zM461 1033l201 349h43q57 -22 90 -90l-247 -259h-87z" />
<glyph unicode="&#xea;" horiz-adv-x="814" d="M605 712q0 128 -113 128q-56 0 -112 -23q-113 -96 -144 -356q248 24 327 120q42 51 42 131zM527.5 925q105.5 0 167.5 -57q62 -58 62 -158.5t-74 -175.5q-147 -149 -454 -139v-46q0 -133 43 -196t110 -63t146 40.5t155 112.5l32 -64q-167 -202 -362 -203q-138 0 -207 104 t-69 267.5t61 301.5q34 79 82 139.5t125 98.5t182.5 38zM270 1035l247 339h81l146 -291l-106 -54l-121 200h-16l-144 -194h-87z" />
<glyph unicode="&#xeb;" horiz-adv-x="814" d="M605 712q0 128 -113 128q-56 0 -112 -23q-113 -96 -144 -356q248 24 327 120q42 51 42 131zM527.5 925q105.5 0 167.5 -57q62 -58 62 -158.5t-74 -175.5q-147 -149 -454 -139v-46q0 -133 43 -196t110 -63t146 40.5t155 112.5l32 -64q-167 -202 -362 -203q-138 0 -207 104 t-69 267.5t61 301.5q34 79 82 139.5t125 98.5t182.5 38zM691.5 1285q40.5 0 58.5 -7q17 -36 17 -73t-33 -96h-107l-9 163q33 13 73.5 13zM360.5 1285q41.5 0 55.5 -7q19 -40 19 -77t-35 -92h-106l-9 163q34 13 75.5 13z" />
<glyph unicode="&#xec;" horiz-adv-x="490" d="M234 -14q-112 0 -112 102q0 88 80 700h-147v68q117 47 258 59l36 -23q-77 -658 -91 -799q72 0 175 77l26 -67q-113 -117 -225 -117zM254 1033l-177 259q49 67 117 90h44l101 -349h-85z" />
<glyph unicode="&#xed;" horiz-adv-x="490" d="M234 -14q-112 0 -112 102q0 88 80 700h-147v68q117 47 258 59l36 -23q-77 -658 -91 -799q72 0 175 77l26 -67q-113 -117 -225 -117zM404 1382h43q65 -27 88 -90l-200 -259h-86z" />
<glyph unicode="&#xee;" horiz-adv-x="490" d="M234 -14q-112 0 -112 102q0 88 80 700h-147v68q117 47 258 59l36 -23q-77 -658 -91 -799q72 0 175 77l26 -67q-113 -117 -225 -117zM404 1051l-91 169h-16l-111 -169h-87l211 323h82l117 -273z" />
<glyph unicode="&#xef;" horiz-adv-x="490" d="M234 -14q-112 0 -112 102q0 88 80 700h-147v68q117 47 258 59l36 -23q-77 -658 -91 -799q72 0 175 77l26 -67q-113 -117 -225 -117zM462.5 1285q40.5 0 56.5 -7q18 -26 18 -71.5t-35 -97.5h-105l-10 163q35 13 75.5 13zM162 1285q42 0 56 -7q18 -29 18 -74t-34 -95h-106 l-10 163q34 13 76 13z" />
<glyph unicode="&#xf0;" horiz-adv-x="927" d="M705 614q0 64 -5 132q-107 49 -189.5 49t-135.5 -18q-74 -69 -111 -197.5t-37 -252t49.5 -195.5t139.5 -72q56 -1 119 28q83 67 127 206q43 139 43 320zM165 70q-89 95 -89 258q0 255 140 429q103 128 286 128q96 0 170 -54l14 5q-36 151 -194 296l-188 -114l-63 40 l-5 18l187 114q-79 61 -176 113l38 59q132 -48 232 -115l183 110l62 -40l4 -19l-173 -105q261 -214 261 -582t-204 -545q-104 -91 -250.5 -91t-234.5 95z" />
<glyph unicode="&#xf1;" horiz-adv-x="1039" d="M665 83q0 41 45 297t45 332q0 120 -110 120q-25 0 -54 -3q-169 -198 -344 -829q-36 -14 -99 -14l-34 23l88 779h-147v68q117 47 258 59l35 -23l-95 -575l19 -5q115 371 192.5 491.5t209.5 121.5q99 1 157 -52t58 -157t-91 -623q78 1 184 77l27 -67q-50 -52 -115 -85.5 t-122 -31.5q-107 0 -107 97zM712 1089q-34 0 -88 32l-100 61l-97 -92l-40 47q86 162 175 163q35 0 88 -35l98 -59l99 92l38 -46q-84 -163 -173 -163z" />
<glyph unicode="&#xf2;" horiz-adv-x="911" d="M494 840q-58 0 -114 -23q-77 -67 -114 -208t-37 -272q0 -275 191 -275q58 0 113 22q78 67 114 208t36 272q0 276 -189 276zM514 925q160 0 240 -105.5t80 -284.5t-97 -355q-51 -89 -139 -146.5t-201 -57.5q-159 0 -239 105q-81 105 -81 283.5t98 357.5q49 88 137 146 q88 57 202 57zM465 1033l-198 259q48 67 117 90h43l123 -349h-85z" />
<glyph unicode="&#xf3;" horiz-adv-x="911" d="M494 840q-58 0 -114 -23q-77 -67 -114 -208t-37 -272q0 -275 191 -275q58 0 113 22q78 67 114 208t36 272q0 276 -189 276zM514 925q160 0 240 -105.5t80 -284.5t-97 -355q-51 -89 -139 -146.5t-201 -57.5q-159 0 -239 105q-81 105 -81 283.5t98 357.5q49 88 137 146 q88 57 202 57zM662 1382h43q63 -27 90 -90l-247 -259h-87z" />
<glyph unicode="&#xf4;" horiz-adv-x="911" d="M494 840q-58 0 -114 -23q-77 -67 -114 -208t-37 -272q0 -275 191 -275q58 0 113 22q78 67 114 208t36 272q0 276 -189 276zM514 925q160 0 240 -105.5t80 -284.5t-97 -355q-51 -89 -139 -146.5t-201 -57.5q-159 0 -239 105q-81 105 -81 283.5t98 357.5q49 88 137 146 q88 57 202 57zM638 1029l-121 200h-16l-144 -194h-87l247 339h81l146 -291z" />
<glyph unicode="&#xf5;" horiz-adv-x="911" d="M683 564q0 276 -189 276q-58 0 -114 -23q-77 -67 -114 -208t-37 -272q0 -275 191 -275q58 -1 113 22q78 67 114 208t36 272zM514 925q160 0 240 -105.5t80 -284.5t-97 -355q-51 -89 -139 -146.5t-201 -57.5q-159 0 -239 105q-81 105 -81 283.5t98 357.5q49 88 137 146 q88 57 202 57zM595 1089q-34 0 -89 32l-99 61l-97 -92l-40 47q86 162 175 163q35 0 88 -35l98 -59l99 92l37 -46q-84 -163 -172 -163z" />
<glyph unicode="&#xf6;" horiz-adv-x="911" d="M494 840q-58 0 -114 -23q-77 -67 -114 -208t-37 -272q0 -275 191 -275q58 0 113 22q78 67 114 208t36 272q0 276 -189 276zM514 925q160 0 240 -105.5t80 -284.5t-97 -355q-51 -89 -139 -146.5t-201 -57.5q-159 0 -239 105q-81 105 -81 283.5t98 357.5q49 88 137 146 q88 57 202 57zM693.5 1285q40.5 0 56.5 -7q17 -36 17 -73t-33 -96h-107l-9 163q35 13 75.5 13zM360.5 1285q41.5 0 55.5 -7q19 -40 19 -77t-35 -92h-106l-9 163q34 13 75.5 13z" />
<glyph unicode="&#xf7;" d="M456.5 317q42.5 0 62.5 -7q20 -36 20 -78.5t-40 -114.5h-122l-9 187q46 13 88.5 13zM96 478v31l9 71h771v-30l-9 -72h-771zM532.5 973q42.5 0 62.5 -7q19 -36 19 -78t-39 -114h-123l-8 187q46 12 88.5 12z" />
<glyph unicode="&#xf8;" horiz-adv-x="911" d="M407.5 62q70.5 0 125.5 22q78 67 115.5 209.5t37.5 249t-17 164.5l-379 -595q47 -50 117.5 -50zM504.5 840q-68.5 0 -124.5 -23q-112 -102 -146 -356q-9 -65 -9 -133.5t14 -124.5l379 592q-45 45 -113.5 45zM392 -24q-96 0 -168 46l-107 -163l-69 33l-8 16l115 176 q-78 100 -78 261t63 305q119 275 374 275q99 0 169 -44l115 177l69 -33l7 -17l-122 -186q82 -101 82 -264.5t-68.5 -320.5t-201.5 -223q-76 -38 -172 -38z" />
<glyph unicode="&#xf9;" horiz-adv-x="1054" d="M784 -14q-101 0 -101 95q0 38 35 235q35 196 48 268l-20 6q-87 -287 -139 -394.5t-89 -145.5q-70 -72 -172 -73q-101 -2 -159.5 51t-57.5 166q0 112 41 323q7 42 24.5 145.5t21.5 125.5h-146v68q117 47 258 59l35 -23q-2 -17 -51.5 -303t-48.5 -389q0 -102 59 -124 q21 -7 47.5 -7t55.5 3q150 179 347 829q36 14 98 14l35 -23l-90 -799q79 1 182 77l26 -67q-117 -117 -239 -117zM519 1033l-198 259q49 67 117 90h43l123 -349h-85z" />
<glyph unicode="&#xfa;" horiz-adv-x="1054" d="M784 -14q-101 0 -101 95q0 38 35 235q35 196 48 268l-20 6q-87 -287 -139 -394.5t-89 -145.5q-70 -72 -172 -73q-101 -2 -159.5 51t-57.5 166q0 112 41 323q7 42 24.5 145.5t21.5 125.5h-146v68q117 47 258 59l35 -23q-2 -17 -51.5 -303t-48.5 -389q0 -102 59 -124 q21 -7 47.5 -7t55.5 3q150 179 347 829q36 14 98 14l35 -23l-90 -799q79 1 182 77l26 -67q-117 -117 -239 -117zM516 1033l199 349h44q63 -27 90 -90l-247 -259h-86z" />
<glyph unicode="&#xfb;" horiz-adv-x="1054" d="M784 -14q-101 0 -101 95q0 38 35 235q35 196 48 268l-20 6q-87 -287 -139 -394.5t-89 -145.5q-70 -72 -172 -73q-101 -2 -159.5 51t-57.5 166q0 112 41 323q7 42 24.5 145.5t21.5 125.5h-146v68q117 47 258 59l35 -23q-2 -17 -51.5 -303t-48.5 -389q0 -102 59 -124 q21 -7 47.5 -7t55.5 3q150 179 347 829q36 14 98 14l35 -23l-90 -799q79 1 182 77l26 -67q-117 -117 -239 -117zM325 1035l246 339h81l146 -291l-106 -54l-121 200h-16l-144 -194h-86z" />
<glyph unicode="&#xfc;" horiz-adv-x="1054" d="M784 -14q-101 0 -101 95q0 38 35 235q35 196 48 268l-20 6q-87 -287 -139 -394.5t-89 -145.5q-70 -72 -172 -73q-101 -2 -159.5 51t-57.5 166q0 112 41 323q7 42 24.5 145.5t21.5 125.5h-146v68q117 47 258 59l35 -23q-2 -17 -51.5 -303t-48.5 -389q0 -102 59 -124 q21 -7 47.5 -7t55.5 3q150 179 347 829q36 14 98 14l35 -23l-90 -799q79 1 182 77l26 -67q-117 -117 -239 -117zM747.5 1285q40.5 0 55.5 -7q19 -36 19 -73t-34 -96h-107l-9 163q35 13 75.5 13zM414.5 1285q41.5 0 56.5 -7q17 -40 17 -77t-34 -92h-106l-9 163q34 13 75.5 13 z" />
<glyph unicode="&#xfd;" horiz-adv-x="868" d="M813 700q0 -143 -88 -358.5t-245 -418.5q-234 -307 -426 -307q-52 0 -104 23t-87 64l31 73q156 -53 254 -59q88 65 186 185q-119 583 -195 886h-146v68q135 52 225 59l36 -23q150 -638 175 -872h18q83 137 158.5 313t97.5 325l-128 191l96 76q66 -16 104 -75t38 -150z M425 1033l201 349h43q63 -27 90 -90l-247 -259h-87z" />
<glyph unicode="&#xfe;" horiz-adv-x="951" d="M730 607q0 139 -25 182q-26 43 -87 43q-26 0 -56 -5q-68 -75 -140.5 -238t-178.5 -470q88 -58 193 -57q56 0 118 17q89 85 132.5 237t43.5 291zM855 405q-103 -429 -439 -429q-128 0 -192 79l-42 -425q-36 -14 -105 -14l-34 23l181 1590l-123 18l7 69q110 32 233 41 l34 -23l-79 -545q-49 -345 -81 -490l19 -5q78 264 139.5 397.5t122 183t162.5 49.5t163 -68t60 -234q0 -108 -26 -217z" />
<glyph unicode="&#xff;" horiz-adv-x="868" d="M813 700q0 -143 -88 -358.5t-245 -418.5q-234 -307 -426 -307q-52 0 -104 23t-87 64l31 73q156 -53 254 -59q88 65 186 185q-119 583 -195 886h-146v68q135 52 225 59l36 -23q150 -638 175 -872h18q83 137 158.5 313t97.5 325l-128 191l96 76q66 -16 104 -75t38 -150z M657.5 1285q40.5 0 56.5 -7q17 -36 17 -73t-33 -96h-107l-8 163q34 13 74.5 13zM324.5 1285q41.5 0 55.5 -7q18 -40 18 -77t-34 -92h-106l-9 163q34 13 75.5 13z" />
<glyph unicode="&#x152;" horiz-adv-x="1578" d="M695.5 1126q-95.5 0 -193.5 -34q-99 -60 -165.5 -225.5t-66.5 -371.5q0 -423 313 -423q118 0 203 38l86 977q-81 39 -176.5 39zM1474 189q0 -97 -41 -216l-23 -2l-545 29h-86q-124 -24 -222 -24q-220 0 -335.5 140t-115.5 408q0 266 150 476q72 100 187.5 161t256.5 61 q86 0 185 -23h542q58 23 92 23l36 -23q13 -98 -23 -280h-94l-9 177l-409 18l-40 -454l325 12l18 -32l-11 -83l-339 14l-43 -488h386l59 192l95 -10q4 -50 4 -76z" />
<glyph unicode="&#x153;" horiz-adv-x="1393" d="M1184 717.5q0 122.5 -113 122.5q-56 0 -112 -23q-113 -96 -144 -356q191 20 280 77t89 179.5zM683 564q0 276 -189 276q-58 0 -114 -23q-77 -67 -114 -208t-37 -272q0 -275 191 -275q58 -1 113 22q78 67 114 208t36 272zM1096.5 925q112.5 0 176 -56t63.5 -159t-76 -178 q-146 -147 -452 -137v-46q0 -133 43 -196t110 -63q138 0 301 153l32 -64q-81 -98 -175 -150.5t-185 -52.5q-175 0 -222 182h-19q-53 -89 -122.5 -135.5t-171.5 -46.5q-161 0 -241.5 105t-80.5 265t63 304q119 275 372 275q101 0 160 -46.5t92 -139.5h18q56 96 129 141 t185.5 45z" />
<glyph unicode="&#x178;" horiz-adv-x="1111" d="M1166 1199v-71q-72 -32 -139 -36q-124 -274 -378 -665l-31 -341l164 -9v-36l-5 -41h-473v70q67 29 170 36l28 324q-79 205 -277 682l-122 9v36l5 42h422v-71q-56 -25 -148 -34q157 -387 218 -566h18q209 335 305 583l-137 10v36l5 42h375zM793 1353l-11 166q33 14 76 14 t59 -6q45 -65 -14 -174h-110zM406 1353l-11 166q33 14 76 14t59 -6q45 -65 -14 -174h-110z" />
<glyph unicode="&#x2c6;" horiz-adv-x="576" d="M488 1029l-120 200h-17l-143 -194h-87l247 339h81l146 -291z" />
<glyph unicode="&#x2da;" horiz-adv-x="461" d="M328 1316q-29 0 -47 -11q-31 -38 -30.5 -109t57.5 -71q27 0 47 10q30 38 30.5 109.5t-57.5 71.5zM305 1052q-164 0 -164 159q0 81 56.5 129t136.5 48q161 0 161 -159q0 -81 -55 -129t-135 -48z" />
<glyph unicode="&#x2dc;" horiz-adv-x="590" d="M456 1089q-34 0 -88 32l-100 61l-96 -92l-40 47q86 162 174 163q35 0 89 -35l97 -59l99 92l38 -46q-84 -163 -173 -163z" />
<glyph unicode="&#x2000;" horiz-adv-x="805" />
<glyph unicode="&#x2001;" horiz-adv-x="1610" />
<glyph unicode="&#x2002;" horiz-adv-x="805" />
<glyph unicode="&#x2003;" horiz-adv-x="1610" />
<glyph unicode="&#x2004;" horiz-adv-x="536" />
<glyph unicode="&#x2005;" horiz-adv-x="402" />
<glyph unicode="&#x2006;" horiz-adv-x="268" />
<glyph unicode="&#x2007;" horiz-adv-x="268" />
<glyph unicode="&#x2008;" horiz-adv-x="201" />
<glyph unicode="&#x2009;" horiz-adv-x="322" />
<glyph unicode="&#x200a;" horiz-adv-x="89" />
<glyph unicode="&#x2010;" horiz-adv-x="601" d="M98 478v31l8 71h418v-30l-8 -72h-418z" />
<glyph unicode="&#x2011;" horiz-adv-x="601" d="M98 478v31l8 71h418v-30l-8 -72h-418z" />
<glyph unicode="&#x2012;" horiz-adv-x="601" d="M98 478v31l8 71h418v-30l-8 -72h-418z" />
<glyph unicode="&#x2013;" horiz-adv-x="960" d="M98 478v31l8 71h778v-30l-10 -72h-776z" />
<glyph unicode="&#x2014;" horiz-adv-x="1610" d="M98 478v31l8 71h1428v-30l-9 -72h-1427z" />
<glyph unicode="&#x2018;" horiz-adv-x="416" d="M272 905q-45 0 -79 22q-21 39 -21 122t55 163q53 81 168 122l23 -47q-54 -32 -95 -81q-41 -51 -42 -109v-19l74 -15l-11 -153q-27 -5 -72 -5z" />
<glyph unicode="&#x2019;" horiz-adv-x="416" d="M296 1319q45 0 79 -21q20 -40 21 -100q2 -61 -15.5 -114t-70.5 -107.5t-137 -85.5l-23 46q81 47 117 116q20 37 20 73v21l-74 14l11 153q27 5 72 5z" />
<glyph unicode="&#x201a;" horiz-adv-x="416" d="M164 164q45 0 79 -21q20 -40 21 -117t-49 -161.5t-174 -129.5l-23 47q58 34 97.5 84t39.5 105v20l-74 14l11 153q27 6 72 6z" />
<glyph unicode="&#x201c;" horiz-adv-x="698" d="M564 1097v-19l74 -15l-11 -153q-27 -5 -72 -5t-79 22q-20 39 -20 122t53 163q52 81 169 122l23 -47q-137 -81 -137 -190zM272 905q-45 0 -79 22q-21 39 -21 122t55 163q53 81 168 122l23 -47q-54 -32 -95 -81q-41 -51 -42 -109v-19l74 -15l-11 -153q-27 -5 -72 -5z" />
<glyph unicode="&#x201d;" horiz-adv-x="698" d="M578 1319q45 0 80 -21q21 -40 21 -100.5t-16.5 -113.5t-69.5 -107.5t-137 -85.5l-23 46q54 32 95 82t41 107v21l-74 14l11 153q27 5 72 5zM296 1319q45 0 79 -21q20 -40 21 -100q2 -61 -15.5 -114t-70.5 -107.5t-137 -85.5l-23 46q81 47 117 116q20 37 20 73v21l-74 14 l11 153q27 5 72 5z" />
<glyph unicode="&#x201e;" horiz-adv-x="698" d="M447 164q45 0 79 -21q20 -40 21 -117q2 -77 -49 -161.5t-173 -129.5l-24 47q58 34 97.5 84t39.5 105v20l-74 14l11 153q27 6 72 6zM164 164q45 0 79 -21q20 -40 21 -117t-49 -161.5t-174 -129.5l-23 47q58 34 97.5 84t39.5 105v20l-74 14l11 153q27 6 72 6z" />
<glyph unicode="&#x2022;" horiz-adv-x="713" d="M358 748q108 0 164.5 -59t56.5 -163t-58 -163q-56 -59 -163.5 -59t-164.5 59t-57 163t58 164q58 58 164 58z" />
<glyph unicode="&#x2026;" horiz-adv-x="1209" d="M983 203q42 0 62 -7q20 -36 20 -80t-40 -116h-122l-9 191q47 12 89 12zM570 203q42 0 63 -7q20 -36 20 -80t-41 -116h-122l-9 191q47 12 89 12zM165.5 203q42.5 0 61.5 -7q20 -36 20 -80t-39 -116h-124l-8 191q47 12 89.5 12z" />
<glyph unicode="&#x202f;" horiz-adv-x="322" />
<glyph unicode="&#x2039;" horiz-adv-x="535" d="M272 502l110 -291l-72 -47l-205 323v25l279 322l61 -48z" />
<glyph unicode="&#x203a;" horiz-adv-x="535" d="M442 487l-282 -323l-61 47l175 284l-109 291l71 48l206 -322v-25z" />
<glyph unicode="&#x205f;" horiz-adv-x="402" />
<glyph unicode="&#x20ac;" horiz-adv-x="980" d="M664 710v-31l-6 -53h-323q-16 -81 -18 -168h316v-31l-6 -54h-308q22 -289 236 -289q148 0 294 129l30 -60q-167 -175 -362 -175q-158 0 -245 106q-86 107 -99 289h-115v31l5 54h109q1 86 19 168h-103v30l5 54h120q77 237 247 335q91 51 183.5 51t154.5 -28v14 q52 14 87 14l36 -23q4 -26 4 -89.5t-27 -197.5h-95l-10 208q-63 14 -122.5 14t-138.5 -29q-55 -33 -101 -103.5t-74 -165.5h307z" />
<glyph unicode="&#x2122;" horiz-adv-x="1386" d="M1397 1199v-57q-35 -10 -81 -14q-14 -339 -31 -542l74 -6v-21l-4 -38h-263v57q40 14 86 19q18 173 46 528h-18q-6 -16 -198 -564q-35 -16 -73 -22l-22 9q-86 494 -96 577h-19q-36 -334 -59 -537l92 -8v-23l-4 -36h-251v57q40 14 89 19q45 360 74 538l-79 5v26l4 33 q77 7 242 7q44 -200 78 -510h18q83 292 173 503h222zM164 521v57q39 14 89 19l53 542h-104l-38 -130l-63 9q-2 20 -2 69.5t29 126.5l16 4l220 -19h150q41 15 64 15l29 -15v-38q0 -62 -16 -146h-68l-6 111l-103 7l-53 -547l79 -6v-23l-4 -36h-272z" />
<glyph unicode="&#x25fc;" horiz-adv-x="915" d="M0 915h915v-915h-915v915z" />
<glyph unicode="&#xfb03;" horiz-adv-x="1562" d="M550 1228q-69 0 -130 -17q-29 -52 -57 -332h354l49 12q20 167 74 271q-132 66 -290 66zM1173 1357q112 0 184 -39.5t98 -113.5l-62 -92l-239 155q-88 2 -150 -24q-22 -37 -36 -70q-38 -87 -63 -294h294q91 27 187 36l36 -23q-76 -646 -92 -799q72 1 175 77l27 -67 q-113 -117 -225 -117t-112 102q0 88 79 700h-378l-72 -741q-22 -227 -98.5 -329.5t-208.5 -101.5q-72 0 -139.5 26.5t-110.5 72.5l30 74q191 -74 315 -74q51 65 69 254l72 808l-113 11h-287l-72 -741q-22 -227 -98 -329.5t-209 -101.5q-73 0 -139.5 26.5t-109.5 72.5l29 74 q191 -74 316 -74q51 65 69 254l72 808l-113 11v68q63 22 124 35q28 244 110 341q82 96 236 94q191 0 304 -110q101 141 301 141z" />
<glyph unicode="&#xfb04;" horiz-adv-x="1599" d="M550 1228q-69 0 -130 -17q-29 -52 -57 -332h354l45 12q20 167 72 273q-132 64 -284 64zM1310 -24q-118 0 -118 127q0 110 120 1128q-89 31 -178.5 31t-147.5 -19q-29 -48 -47 -123.5t-36 -240.5h198v-36l-12 -55h-195l-70 -741q-40 -434 -307 -431q-72 0 -139.5 26.5 t-110.5 72.5l30 74q191 -74 315 -74q51 65 69 254l72 808l-113 11h-287l-72 -741q-22 -227 -98 -329.5t-209 -101.5q-73 0 -139.5 26.5t-109.5 72.5l29 74q191 -74 316 -74q51 65 69 254l72 808l-113 11v68q63 22 124 35q27 242 107 339q79 97 251.5 97t286.5 -105 q93 136 268 135q101 0 193 -45q41 34 101 45l34 -23q-15 -139 -77 -632.5t-63 -617.5q45 0 108 23t110 53l27 -67q-51 -50 -123 -83.5t-135 -33.5z" />
</font>
</defs>
</svg>
