<?xml version="1.0" standalone="no"?>
<!DOCTYPE svg PUBLIC "-//W3C//DTD SVG 1.1//EN" "http://www.w3.org/Graphics/SVG/1.1/DTD/svg11.dtd" >
<svg xmlns="http://www.w3.org/2000/svg" xmlns:xlink="http://www.w3.org/1999/xlink" version="1.1">
<metadata></metadata>
<defs>
<font id="franziskaff-boldbold" horiz-adv-x="1120" >
<font-face units-per-em="2048" ascent="1638" descent="-410" />
<missing-glyph horiz-adv-x="371" />
<glyph unicode="&#xfb01;" horiz-adv-x="1204" d="M1183 0h-492v102l102 37v617l-97 37h-270v-676l144 -15v-102h-521v102l109 37v654l-120 20v102l120 29v22q0 205 128.5 306.5t360.5 99.5q294 0 385 -111q29 -35 29 -78q0 -71 -53 -113h-204l-23 182q-73 9 -125 9q-230 0 -230 -242v-99h388l207 30l40 -18v-815l122 -15 v-102z" />
<glyph unicode="&#xfb02;" horiz-adv-x="1207" d="M1179 0h-501v102l111 37v1077q-91 26 -180 26q-89 -1 -135.5 -49t-47.5 -160v-113h167v-125h-167v-678l128 -15v-102h-505v102l109 37v654l-120 20v102l120 29v28q0 401 409 400q146 0 266 -52q97 43 184 52l40 -16v-1239l122 -15v-102z" />
<glyph horiz-adv-x="0" />
<glyph unicode="&#xd;" horiz-adv-x="606" />
<glyph unicode=" "  horiz-adv-x="371" />
<glyph unicode="&#x09;" horiz-adv-x="371" />
<glyph unicode="&#xa0;" horiz-adv-x="371" />
<glyph unicode="!" horiz-adv-x="557" d="M275 237q77 0 122 -23q22 -39 22 -87q0 -87 -60 -151l-211 24l-6 224q56 13 133 13zM428 1183q0 -245 -73 -815h-155q-3 35 -18 152q-55 452 -55 670q113 33 263 33z" />
<glyph unicode="&#x22;" horiz-adv-x="889" d="M736 866h-173l-60 457q113 33 252 33l38 -45zM330 866h-173l-60 457q111 33 249 33l40 -45z" />
<glyph unicode="#" horiz-adv-x="1108" d="M718 658h-301l-29 -233h303zM997 425v-183l-193 -36l-28 -230h-101l-35 31l26 207h-301l-29 -238h-103l-35 31l24 207h-169v183l197 35l25 226h-164v182l192 37l27 231h102l34 -31l-25 -207h303l29 238h102l35 -31l-26 -207h172v-185l-197 -34l-28 -226h166z" />
<glyph unicode="$" horiz-adv-x="1000" d="M647 240q1 63 -25.5 95t-87.5 60l9 -298q104 29 104 143zM344 861q0 -55 24.5 -88t85.5 -62l-7 284q-103 -28 -103 -134zM908 315q0 -153 -98 -236t-265 -99l8 -206l-113 -18l-33 20l7 202q-202 7 -292 100q-47 49 -47 125.5t64 123.5h165l30 -233q43 -5 85 -7l13 354 l-77 32q-246 105 -246 305q0 101 41 171q81 139 293 164l-5 200l112 16l33 -18l-7 -194q146 -7 242 -61.5t95 -158.5q0 -82 -62 -128h-166l-29 231q-44 4 -86 6l-12 -343l73 -30q149 -68 213 -134.5t64 -183.5z" />
<glyph unicode="%" horiz-adv-x="1612" d="M1240 560q-61 1 -85 -56q-23 -57 -23 -192.5t23 -190.5t84.5 -55t84.5 55t23 191q0 135 -23.5 192t-83.5 56zM1242.5 649q148.5 0 224 -88t75.5 -243q-1 -156 -90 -248.5t-238.5 -92.5t-222.5 87q-74 89 -74 244t88 248q89 93 237.5 93zM384 1028q-60 -1 -83 -58 t-24 -190q0 -134 24 -190q23 -56 83.5 -56t83.5 55t24 191q-1 134 -24 191t-84 57zM399 1117q147 0 222 -88t75 -243q0 -156 -88 -248.5t-237.5 -92.5t-224.5 88t-75 243t89 248q90 93 239 93zM1214 1110l14 -35q-37 -56 -172 -254q-136 -198 -200 -299.5t-174.5 -292 t-163.5 -280.5l-106 40l-17 35q333 494 383 572.5t173.5 290t154.5 263.5z" />
<glyph unicode="&#x26;" horiz-adv-x="1432" d="M328 352q0 -122 65.5 -181t179.5 -58q114 0 232 71q-245 202 -380 378q-97 -87 -97 -210zM668 1113q-56 0 -88 -35.5t-32 -100.5q0 -107 92 -245q135 93 134 247q1 134 -106 134zM654 1236q320 0 320 -261q0 -97 -73 -184t-216 -118q110 -137 298 -290q31 104 31 308 q151 31 362 31v-160h-197q-18 -129 -118 -240q129 -99 261 -180l99 -31l-3 -89q-58 -30 -101 -36q-42 -7 -85 -8q-164 2 -341 139q-159 -141 -375 -141q-337 0 -431 177q-34 66 -34 153q0 264 325 325q-110 166 -110 307t107.5 219t280.5 79z" />
<glyph unicode="'" horiz-adv-x="482" d="M330 866h-173l-60 457q111 33 249 33l40 -45z" />
<glyph unicode="(" horiz-adv-x="633" d="M337 514q0 -235 45.5 -432.5t142.5 -393.5l-92 -41q-162 153 -243 389q-81 238 -81 478.5t81 477t243 389.5l92 -42q-97 -194 -142.5 -392t-45.5 -433z" />
<glyph unicode=")" horiz-adv-x="633" d="M523 514.5q0 -240.5 -81 -477t-244 -390.5l-90 41q97 195 142 393t45 433t-45 433t-142 392l90 42q162 -153 243.5 -389.5t81.5 -477z" />
<glyph unicode="*" horiz-adv-x="896" d="M459 970l70 51q133 -82 180 -148q16 -22 35 -62l-148 -105q-27 22 -50 50q-45 65 -87 214zM365 1021l68 -49q-39 -188 -134 -264l-148 105q15 34 35 62q44 59 179 146zM621 1040q-29 0 -83 5l-28 80q124 99 201 122q29 9 67 14l59 -173q-88 -48 -216 -48zM61 1088l56 173 q25 -1 84 -18.5t185 -115.5l-27 -80q-153 -11 -235 12q-31 9 -63 29zM548 1363q0 -83 -56 -222h-85q-59 135 -59 222q0 35 9 70h184q7 -35 7 -70z" />
<glyph unicode="+" d="M651 466v-365h-181v365h-371v153h371v369h181v-369h370v-153h-370z" />
<glyph unicode="," horiz-adv-x="515" d="M247 284q65 0 116 -18q53 -75 53 -184q0 -150 -92 -257.5t-256 -137.5l-28 74q195 84 195 203q0 14 -4 34l-104 11l-7 257q62 18 127 18z" />
<glyph unicode="-" horiz-adv-x="683" d="M80 466v153h523v-153h-523z" />
<glyph unicode="." horiz-adv-x="513" d="M261 299q80 0 118 -11q35 -55 35 -137t-47 -151h-232l-34 264q80 35 160 35z" />
<glyph unicode="/" horiz-adv-x="586" d="M188 -332h-122l-31 28l362 1617h123l33 -28z" />
<glyph unicode="0" horiz-adv-x="1151" d="M576 995q-70 0 -111 -46q-75 -86 -76 -362.5t41.5 -383.5t145 -107t144.5 107q42 105 42 305t-17 297t-58 143.5t-111 46.5zM600 1115q156 -1 263 -70q203 -133 203 -475q0 -280 -139.5 -436.5t-376.5 -157.5q-155 0 -262 72q-201 136 -203 477q0 280 139 435t376 155z " />
<glyph unicode="1" horiz-adv-x="752" d="M720 0h-659v102l200 37v696q-80 -13 -200 -13v135q89 5 183 44t151 112l134 -9v-987l191 -15v-102z" />
<glyph unicode="2" horiz-adv-x="946" d="M401 997q-41 0 -84 -11l-35 -268h-176q-64 49 -64 137q0 115 118.5 188t301.5 74q183 0 291.5 -83.5t108.5 -222.5q0 -168 -171 -324q-149 -136 -449 -320l8 -16q144 28 258 37l214 18l20 114l138 -3q17 -55 17 -153t-22 -164h-822l-11 134q62 50 100 80q38 31 98.5 85 t98.5 95q107 114 161 217.5t56 217.5q0 168 -155 168z" />
<glyph unicode="3" horiz-adv-x="996" d="M400 -31q212 1 212 229q0 124 -51 181q-52 59 -191 59h-58v127h151q109 89 109 254q0 99 -41 138.5t-124 39.5q-40 0 -85 -7l-27 -226h-170q-59 51 -59 114q1 119 111 179t290 60t291.5 -79t111.5 -236q0 -215 -228 -279v-22q120 -18 194 -88t74 -191q0 -163 -136.5 -268 t-356.5 -105q-162 0 -267 57.5t-105 164.5q0 80 59 135h175l29 -230q47 -7 92 -7z" />
<glyph unicode="4" horiz-adv-x="1003" d="M821 129v-256h-268v256h-508l-10 106q163 412 308 884l253 -62l7 -38q-213 -454 -370 -727l6 -19q125 14 202 15h112v330l196 64l72 -13v-381h146v-159h-146z" />
<glyph unicode="5" horiz-adv-x="974" d="M496 654q186 0 301 -104q114 -105 114 -286.5t-138 -298t-364 -116.5q-155 0 -249 55q-92 55 -92 153t63 143h179l27 -224q42 -7 75 -7q95 -1 148.5 56t53.5 181.5t-73 186t-247 70.5l-152 5l22 622l133 27q116 -45 253 -45t285 45l29 -94q-111 -169 -328 -170 q-128 1 -254 51l-19 -288q121 38 233 38z" />
<glyph unicode="6" horiz-adv-x="1115" d="M570 97q176 0 176 268q0 133 -39 192t-133 57q-93 0 -188 -91q-3 -43 -3 -93q0 -333 187 -333zM1042 425q0 -201 -127 -324.5t-358.5 -123.5t-351.5 144q-120 145 -120 406q0 322 172 515t467 194q89 0 180 -24l-3 -106q-230 1 -367 -105.5t-151 -331.5h20 q111 134 286.5 134t264.5 -108q89 -107 88 -270z" />
<glyph unicode="7" horiz-adv-x="908" d="M179 70.5q0 179.5 211 458.5q100 131 306 368l-9 16l-465 -29l-25 -162h-135q-16 78 -16 189.5t22 182.5h819l12 -103q-321 -466 -421 -852l44 -240l-185 -52q-158 44 -158 223.5z" />
<glyph unicode="8" horiz-adv-x="1089" d="M715 269q0 66 -24 103t-68 64q-44 29 -129 67l-54 26q-93 -77 -94 -217q0 -216 181 -215q91 0 140 53q48 53 48 119zM718 932q0 184 -155 183q-76 0 -119 -42.5t-43 -112.5q1 -69 42 -112t140 -88l46 -20q89 65 89 192zM89 299q0 120 65 190.5t165 99.5v20 q-204 99 -204 292q0 89 39 155.5t106 104.5q127 73 307 74q181 1 294.5 -72t113.5 -226t-150 -224q-37 -19 -81 -29v-21q129 -56 193 -129q63 -73 63 -182q-1 -203 -137 -290q-137 -86 -338 -86q-201 1 -318.5 83t-117.5 240z" />
<glyph unicode="9" horiz-adv-x="1115" d="M545 988q-177 0 -177 -273q0 -137 39.5 -195.5t133.5 -58.5t188 92q2 43 2 92q0 343 -186 343zM421 282q-115 1 -196 56q-154 106 -154 319.5t129 336.5t359.5 123t350.5 -145q120 -146 120 -410q1 -327 -173.5 -520t-472.5 -193q-94 0 -194 24l3 105q237 0 381 109.5 t158 328.5h-19q-111 -134 -292 -134z" />
<glyph unicode=":" horiz-adv-x="513" d="M261 299q80 0 118 -11q35 -55 35 -137t-47 -151h-232l-34 264q80 35 160 35zM261 937q80 0 118 -13q35 -53 35 -134.5t-47 -151.5h-232l-34 264q80 35 160 35z" />
<glyph unicode=";" horiz-adv-x="515" d="M249 284q65 0 116 -18q52 -75 52 -184q0 -150 -91.5 -257.5t-256.5 -137.5l-27 74q195 84 195 203q0 14 -4 34l-104 11l-7 257q62 18 127 18zM262.5 937q80.5 0 118.5 -13q35 -53 35 -134.5t-48 -151.5h-231l-35 264q80 35 160.5 35z" />
<glyph unicode="&#x3c;" d="M352 546v-21l612 -323l-67 -136l-775 364v212l775 364l67 -136z" />
<glyph unicode="=" d="M99 284v154h922v-154h-922zM99 649v153h922v-153h-922z" />
<glyph unicode="&#x3e;" d="M995 430l-774 -364l-68 136l612 323v21l-612 324l68 136l774 -364v-212z" />
<glyph unicode="?" horiz-adv-x="680" d="M272.5 237q74.5 0 120.5 -23q23 -40 23 -87q0 -87 -63 -151l-209 24l-5 224q59 13 133.5 13zM543 855q0 114 -303 112q-58 0 -131 -3v248q79 16 146 16q145 0 235.5 -67.5t126.5 -162.5q35 -95 35 -214q0 -120 -59 -182q-61 -63 -232 -119l-17 -131h-140q-70 129 -70 200 t30 99q30 27 85 47q54 19 136 46q83 29 120.5 51t37.5 60z" />
<glyph unicode="@" horiz-adv-x="1788" d="M977 829q-53 0 -96 -39q-75 -67 -105 -228q-12 -66 -12 -140q0 -147 111 -147q75 0 146 69l54 449q-45 36 -98 36zM974 -118v-80q-109 -33 -235 -33q-268 0 -456 154q-92 75 -144.5 198t-53.5 282q0 244 123 443t344 313t496 114q321 0 501.5 -158.5t180.5 -430.5 q0 -139 -48 -253q-91 -214 -307 -297q-100 -40 -194 -40t-130 26t-30 86l3 33h-24q-49 -81 -112 -116.5t-148 -35.5q-268 0 -268 316q0 131 47 254.5t154 212.5q106 87 260 86t244 -74q75 38 146 50l42 -22l-85 -688q124 18 211.5 134t87.5 307q0 232 -140 360.5t-414 128.5 t-476 -154q-116 -88 -187 -238q-70 -149 -70 -335q0 -284 171 -414q172 -129 511 -129z" />
<glyph unicode="A" horiz-adv-x="1284" d="M390 463h356q-103 318 -170 504h-22q-67 -189 -164 -504zM1273 0h-546v106l117 36l-58 190h-436q-35 -115 -62 -214l113 -12v-106h-389v106l113 35q201 638 362 1062l240 33l42 -10q175 -450 388 -1108l116 -12v-106z" />
<glyph unicode="B" horiz-adv-x="1207" d="M473 131h150q166 0 201 123q11 38 11 92q0 104 -50 159.5t-174 56.5h-138v-431zM473 684h218q92 81 93 215q0 198 -208 198h-103v-413zM1143 328q0 -164 -117.5 -246t-371.5 -82h-590v106l129 36v948l-129 14v105q276 19 527 19q500 -1 501 -320q-1 -112 -54.5 -174.5 t-155.5 -93.5v-21q127 -23 194 -92.5t67 -198.5z" />
<glyph unicode="C" horiz-adv-x="1217" d="M682 -24q-192 0 -328.5 81.5t-202.5 218t-66 311.5q0 293 173.5 471t490.5 178q192 0 357 -71q9 -45 9 -129.5t-18 -188.5h-173l-51 233q-62 15 -125 16q-174 0 -257.5 -108t-83.5 -344.5t96.5 -354t272 -118t337.5 99.5l32 -107q-172 -188 -463 -188z" />
<glyph unicode="D" horiz-adv-x="1350" d="M485 131h106q197 0 275 110.5t78 373t-75 372.5t-264 110h-120v-966zM520 1228q414 0 580 -157t166 -447t-171 -457t-502 -167h-529v106l129 36v948l-129 14v106q240 18 456 18z" />
<glyph unicode="E" horiz-adv-x="1146" d="M1079 178q0 -77 -22 -178h-991v106l127 36v946l-129 18v106h999q10 -56 10 -138t-19 -175h-160l-43 176l-366 12v-407l202 5l21 97h109v-337h-109l-23 103l-200 6v-430l355 11l61 193l171 -11q7 -62 7 -139z" />
<glyph unicode="F" horiz-adv-x="1066" d="M64 1212h971q10 -51 10 -138.5t-19 -174.5h-162l-42 174l-337 14v-447l200 5l21 108h111v-358h-111l-24 115l-197 6v-392l167 -13v-111h-586v106l127 36v946l-129 18v106z" />
<glyph unicode="G" horiz-adv-x="1292" d="M690.5 -24q-137.5 0 -261 47.5t-197.5 132.5q-147 168 -147 447.5t178 456t497 176.5q215 0 365 -71q9 -45 9 -124.5t-19 -174.5h-172l-46 211q-68 18 -141 19q-180 0 -264.5 -117t-84.5 -374t81.5 -372.5t242.5 -115.5q83 0 166 31l-27 278l-146 15v105h501v-105 l-84 -36v-352q-73 -33 -193 -55t-257.5 -22z" />
<glyph unicode="H" horiz-adv-x="1415" d="M1371 0h-547v106l119 36v420h-458v-442l126 -14v-106h-547v106l129 36v950l-129 14v106h547v-106l-126 -36v-376h458v398l-129 14v106h551v-106l-131 -36v-950l137 -14v-106z" />
<glyph unicode="I" horiz-adv-x="677" d="M614 0h-550v106l129 36v950l-129 14v106h550v-106l-129 -36v-950l129 -14v-106z" />
<glyph unicode="J" horiz-adv-x="929" d="M753 350q0 -288 -246 -355q-69 -20 -155 -19q-161 0 -250.5 63t-89.5 155t66 149h159l50 -232q27 -5 52 -5q64 0 94 40t30 144v802l-171 14v106h590v-106l-129 -36v-720z" />
<glyph unicode="K" horiz-adv-x="1317" d="M506 550v-430l132 -14v-106h-553v106l130 36v950l-130 14v106h550v-106l-129 -36v-386h162q169 220 296 408l-136 14v106h431v-106l-107 -31q-129 -169 -301 -360q108 -152 339 -553l102 -44l-3 -94q-89 -44 -176.5 -44t-144.5 34q-78 47 -150 190q-73 142 -112.5 227 t-58.5 119h-141z" />
<glyph unicode="L" horiz-adv-x="1036" d="M66 0v106l127 36v950l-129 14v106h561v-106l-140 -36v-945l280 10l64 206l171 -11q19 -177 -14 -330h-920z" />
<glyph unicode="M" horiz-adv-x="1707" d="M1675 0h-545v106l126 36q-7 625 -16 888h-21q-27 -120 -73 -261l-233 -703l-188 -31l-43 10l-237 711q-44 138 -78 274h-21q-10 -315 -19 -912l143 -12v-106h-442v106l134 40q14 438 48 946l-135 14v106h523q94 -282 255 -829h22q135 476 254 829h499v-106l-127 -34 q31 -469 45 -954l129 -12v-106z" />
<glyph unicode="N" horiz-adv-x="1393" d="M508 0h-444v106l129 36v950l-129 14v106h505l335 -601q77 -141 146 -298h20l-23 779l-152 14v106h443v-106l-128 -36v-1061l-250 -31l-43 10l-428 756q-79 146 -136 286h-19l23 -912l151 -12v-106z" />
<glyph unicode="O" horiz-adv-x="1423" d="M712 1096q-150 0 -226.5 -117t-76.5 -371.5t76.5 -372.5t226.5 -118t226.5 118t76.5 372.5t-76.5 371.5t-226.5 117zM742 1236q194 -1 331 -81q266 -156 266 -524q0 -301 -182 -478t-473 -177q-194 1 -332 83q-267 160 -267 530q0 297 181 472t476 175z" />
<glyph unicode="P" horiz-adv-x="1160" d="M729 426q-80 0 -162 17v115h31q155 0 190 145q12 52 12 126q0 139 -50 203t-169 64h-96v-972l164 -13v-111h-583v106l127 36v948l-129 14v105q274 19 536 19t391 -97q130 -98 130 -297t-103 -303.5t-289 -104.5z" />
<glyph unicode="Q" horiz-adv-x="1423" d="M712 1096q-150 0 -226.5 -117t-76.5 -371.5t76.5 -372.5t226.5 -118t226.5 118t76.5 372.5t-76.5 371.5t-226.5 117zM682 -24q-193 1 -330 83q-267 160 -267 532q0 295 181 469.5t476 175.5q148 -1 262 -47t188 -128q147 -166 147 -430q0 -146 -47 -267 q-90 -232 -313 -320v-22l242 -191l110 -43l-4 -92q-88 -46 -184 -46t-156.5 29.5t-111.5 106.5l-146 190h-47z" />
<glyph unicode="R" horiz-adv-x="1246" d="M798 873q0 113 -50 167t-167 56h-108v-473h219q106 92 106 250zM473 490v-372l127 -12v-106h-536v106l129 36v948l-129 14v105q259 20 490 19q296 0 427 -86t131 -264q0 -90 -33.5 -156t-84.5 -100.5t-126 -59.5l-4 -23q63 -56 109 -123.5t100 -153l66 -104.5l99 -40 l-2 -94q-87 -44 -181 -44t-148 33.5t-87 87.5t-64.5 113t-76 146t-68.5 130h-138z" />
<glyph unicode="S" horiz-adv-x="1058" d="M983 344q0 -186 -131.5 -277t-351.5 -91t-387 69q-31 152 -9 291l167 10l63 -217q66 -20 159 -20q198 0 198 157q0 73 -40 111.5t-129 78.5l-165 69q-242 102 -242 343q0 175 120 271.5t326 96.5t356 -71q10 -54 10 -124.5t-19 -156.5h-168l-46 204q-60 15 -120 15 q-193 0 -193 -155q0 -62 33 -99.5t111 -70.5l162 -70q148 -63 222 -145t74 -219z" />
<glyph unicode="T" horiz-adv-x="1148" d="M1130 1061q0 -100 -18 -191h-157l-47 209l-188 8v-963l148 -13v-111h-588v111l148 37v939l-189 -8l-48 -208h-156q-18 89 -18 189.5t11 151.5h1093q9 -51 9 -151z" />
<glyph unicode="U" horiz-adv-x="1337" d="M1163 397q0 -195 -129.5 -308t-366 -113t-364.5 115.5t-128 318.5v682l-130 14v106h550v-106l-129 -36v-680q0 -192 120 -253q57 -28 145 -29q268 0 268 280v706l-146 12v106h437v-106l-127 -36v-673z" />
<glyph unicode="V" horiz-adv-x="1257" d="M12 1212h534v-106l-108 -36q146 -515 258 -826h22q136 401 257 850l-138 12v106h408v-106l-108 -34q-186 -604 -355 -1063l-237 -33l-42 10q-167 443 -381 1108l-110 12v106z" />
<glyph unicode="W" horiz-adv-x="1957" d="M12 1212h534v-106l-111 -36q152 -595 224 -826h21q115 330 237 722l-39 124l-105 16v106h538v-106l-144 -36q156 -562 247 -826h22q138 440 241 850l-141 12v106h409v-106l-106 -34q-164 -550 -338 -1063l-238 -33l-42 10q-173 537 -224 708h-22q-118 -372 -229 -685 l-240 -33l-41 10q-199 601 -345 1108l-108 12v106z" />
<glyph unicode="X" horiz-adv-x="1273" d="M1247 0h-569v106l106 36q-118 216 -214 356h-24q-100 -146 -240 -380l126 -12v-106h-404v106l107 33q146 210 338 463q-171 262 -304 492l-120 12v106h570v-106l-107 -34q91 -164 201 -336h23q53 85 207 358l-126 12v106h409v-106l-111 -33q-186 -284 -301 -438 q172 -265 318 -517l115 -12v-106z" />
<glyph unicode="Y" horiz-adv-x="1222" d="M922 0h-586v106l147 36v272q-202 374 -349 680l-122 12v106h534v-106l-97 -31q107 -240 236 -486h23q129 242 238 505l-144 12v106h408v-106l-109 -36q-129 -281 -327 -642v-308l148 -14v-106z" />
<glyph unicode="Z" horiz-adv-x="1084" d="M1042 176.5q0 -80.5 -21 -176.5h-957l-13 91l488 768q51 82 159 221l-9 17l-381 -18l-44 -195h-167q-20 89 -20 183t10 145h939l13 -91l-476 -751q-64 -104 -166 -239l12 -14l393 17l53 202l178 -11q9 -68 9 -148.5z" />
<glyph unicode="[" horiz-adv-x="610" d="M374 524q0 -380 -44 -721l192 -9v-114h-358v1669h358v-113l-192 -10q44 -322 44 -702z" />
<glyph unicode="\" horiz-adv-x="586" d="M553 -304l-31 -28h-122l-365 1617l33 28h122z" />
<glyph unicode="]" horiz-adv-x="610" d="M445 -320h-358v114l192 9q-44 341 -44 721t44 702l-192 10v113h358v-1669z" />
<glyph unicode="^" horiz-adv-x="850" d="M678 840l-243 305h-19l-242 -305l-130 84l292 419h180l291 -419z" />
<glyph unicode="_" horiz-adv-x="826" d="M62 -275v125h703v-125h-703z" />
<glyph unicode="`" horiz-adv-x="509" d="M339 1045l-285 253q40 94 104 130h152l146 -383h-117z" />
<glyph unicode="a" horiz-adv-x="1002" d="M554 405q-213 0 -213 -144q0 -68 23.5 -94t75.5 -26q87 0 162 80v184h-48zM764 -14q-150 0 -150 122v23h-21q-93 -155 -278 -155q-121 0 -187 66q-66 65 -66 157q0 168 120.5 233.5t287.5 65.5q66 0 133 -9v174q0 101 -40.5 141t-121.5 40q-31 0 -65 -6l-30 -222h-171 q-64 47 -64 115q0 98 116.5 161t285.5 63t263 -79t92 -227l-7 -491l116 -21v-101q-120 -50 -213 -50z" />
<glyph unicode="b" horiz-adv-x="1091" d="M569.5 765q-92.5 0 -169.5 -78v-560q64 -31 136 -30q113 0 161 86q49 87 49 266q0 178 -42 247t-134.5 69zM400 1063q0 -122 -21 -272h22q113 164 287 164t259 -122t86 -330q0 -250 -129 -389t-392 -138q-188 0 -381 59v1150l-115 34v99q162 47 343 54l41 -17v-292z" />
<glyph unicode="c" horiz-adv-x="949" d="M59 462q0 222 137.5 356.5t349.5 134.5q139 0 235 -55.5t96 -154t-68 -143.5h-178l-26 238q-29 4 -66 4q-80 0 -133 -79t-53 -253q0 -370 256 -369q115 0 242 74l29 -84q-140 -155 -371 -155t-340.5 132t-109.5 354z" />
<glyph unicode="d" horiz-adv-x="1102" d="M550 835q-109 0 -156.5 -87.5t-47.5 -265.5t42 -247q41 -69 133.5 -69t169.5 78v556q-64 35 -141 35zM59 445q0 226 114 368t326 142q106 0 192 -31v259l-113 35v100q169 49 342 54l39 -17v-1195l116 -33v-94q-184 -44 -333 -49l-41 16l12 141h-22q-114 -164 -288.5 -164 t-259 121t-84.5 347z" />
<glyph unicode="e" horiz-adv-x="978" d="M645 607q0 228 -127 228q-71 0 -119.5 -67t-55.5 -203l302 16v26zM612 144q128 0 263 78l29 -83q-144 -162 -384.5 -162t-350.5 132q-110 134 -110 336q0 240 136.5 375t357.5 135q180 0 267.5 -90.5t87.5 -241.5q0 -84 -26 -157h-539q16 -322 269 -322z" />
<glyph unicode="f" horiz-adv-x="642" d="M158 983q0 389 405 389q173 0 251 -80q40 -40 40 -101.5t-50 -107.5h-179l-22 178h-25q-72 0 -112 -40t-40 -148v-153h207v-125h-207v-678l169 -15v-102h-546v102l109 37v654l-120 20v102l120 29v39z" />
<glyph unicode="g" horiz-adv-x="1031" d="M468 -268q119 0 214.5 34t95.5 93q0 30 -35 47t-136 32l-327 38q-29 -51 -28 -107q0 -137 216 -137zM339 642q0 -195 141.5 -195t141 195t-141.5 195t-141 -195zM457 327q-48 0 -90 5v-110l333 -31q154 -17 223.5 -72t69.5 -154.5t-78 -181.5t-216.5 -126.5t-315.5 -44.5 q-371 0 -371 204q0 82 56 135.5t144 64.5q-4 35 -5 73q0 120 43 272q-181 72 -181 262q0 153 121.5 242.5t293.5 89.5t271 -60q18 93 52.5 141.5t101 48.5t105.5 -35l-15 -166h-142l-38 -42q71 -80 70 -195q0 -153 -120 -236.5t-312 -83.5z" />
<glyph unicode="h" horiz-adv-x="1144" d="M1130 0h-481v102l89 37v470q0 156 -140 156q-102 0 -179 -78v-570l104 -15v-102h-481v102l109 37v1044l-115 35v100q166 47 343 54l40 -17v-292q0 -95 -19 -272h21q115 164 300 164q185 -1 253 -136q32 -66 32 -160v-542l124 -15v-102z" />
<glyph unicode="i" horiz-adv-x="572" d="M550 0h-501v102l109 37v617l-109 44v99q158 40 337 51l40 -18v-815l124 -15v-102zM289.5 1356q75.5 0 107.5 -11q31 -47 31 -113t-52 -136h-212l-29 231q79 29 154.5 29z" />
<glyph unicode="j" horiz-adv-x="548" d="M417 9q0 -292 -335 -399l-54 58l120 168v920l-112 44v99q162 40 340 51l41 -18v-923zM277.5 1356q76.5 0 108.5 -11q31 -47 31 -113t-52 -136h-212l-29 231q77 29 153.5 29z" />
<glyph unicode="k" horiz-adv-x="1106" d="M419 423v-306l106 -15v-102h-483v102l109 37v1044l-115 36v99q178 49 343 54l40 -17v-809h120q128 139 226 259l-123 16v99h422v-99l-132 -35q-99 -99 -200 -188q61 -87 158.5 -256.5t113.5 -197.5l90 -38l-4 -84q-83 -42 -151.5 -42t-108.5 13q-74 24 -126 116 q-35 63 -151 314h-134z" />
<glyph unicode="l" horiz-adv-x="570" d="M543 0h-501v102l109 37v1044l-115 36v99q172 49 343 54l40 -17v-1238l124 -15v-102z" />
<glyph unicode="m" horiz-adv-x="1727" d="M1713 0h-471v102l81 37v470q0 156 -138 156q-93 0 -175 -74v-574l89 -15v-102h-431v102l74 37v470q0 156 -139 156q-102 0 -177 -78v-570l99 -15v-102h-476v102l109 37v617l-109 44v99q169 44 327 51l40 -18l-9 -141h21q115 164 304 164q132 0 185 -63q35 -42 58 -103h25 q117 166 311 166q134 0 207 -77.5t73 -218.5v-542l122 -15v-102z" />
<glyph unicode="n" horiz-adv-x="1151" d="M1139 0h-481v102l90 37v470q0 156 -143 156q-100 0 -179 -78v-570l104 -15v-102h-481v102l109 37v617l-109 44v99q186 44 327 51l40 -18l-9 -141h21q115 164 304 164q134 0 208.5 -77.5t74.5 -218.5v-542l124 -15v-102z" />
<glyph unicode="o" horiz-adv-x="1082" d="M541.5 835q-98.5 0 -141.5 -87t-43 -282t43 -282t141.5 -87t141 87t42.5 282t-42.5 282t-141 87zM565.5 955q229.5 0 345 -131.5t115.5 -350.5t-139 -358t-369 -139t-344.5 131.5t-114.5 352t138.5 358t368 137.5z" />
<glyph unicode="p" horiz-adv-x="1092" d="M571.5 765q-92.5 0 -168.5 -78v-556q66 -35 140 -34q109 0 156.5 86.5t48.5 265.5q0 181 -42 248.5t-134.5 67.5zM690.5 955q174.5 0 260 -121t84.5 -346q0 -225 -114 -368.5t-330 -143.5q-104 0 -188 31v-255l131 -15v-102h-510v102l111 37v982l-111 44v99 q169 44 328 51l40 -18l-9 -141h20q113 164 287.5 164z" />
<glyph unicode="q" horiz-adv-x="1092" d="M553 829q-110 0 -158 -86t-49 -263q0 -177 42 -246q41 -68 133.5 -68t169.5 78v537q-68 48 -138 48zM1070 -365h-520v102l141 37v146q0 73 22 221h-24q-111 -164 -285 -164t-260 121q-85 123 -85 347t117 367q118 143 347 143q139 0 251 -66q66 47 146 61l39 -21v-1177 l111 -15v-102z" />
<glyph unicode="r" horiz-adv-x="774" d="M598 0h-549v111l109 28v617l-109 44v99q164 44 321 51l40 -18l-13 -208h22q33 73 63 119t73 79t103 33t100 -61l-9 -196h-220q-63 -47 -103 -105v-469l172 -15v-109z" />
<glyph unicode="s" horiz-adv-x="861" d="M802 271q0 -149 -110.5 -222t-294 -73t-326.5 62q-10 47 -10 115.5t17 134.5h152l31 -179q59 -16 122 -16q163 0 163 111q0 50 -27.5 74t-92.5 54l-123 52q-110 48 -165.5 111t-55.5 168q0 139 97.5 215.5t270.5 76.5t296 -56q12 -51 12 -116t-18 -127h-133l-35 166 q-58 16 -116 16q-144 0 -144 -106q0 -40 23.5 -64.5t85.5 -48.5l129 -56q127 -52 189.5 -117t62.5 -175z" />
<glyph unicode="t" horiz-adv-x="715" d="M142 221v581l-120 20v93l147 31l168 221l73 -7v-240h258v-125h-258v-541q1 -69 26 -94q57 -57 242 6l23 -95q-118 -94 -268 -94q-291 0 -291 244z" />
<glyph unicode="u" horiz-adv-x="1136" d="M124 273v483l-112 44v99q185 44 340 51l40 -18v-607q0 -159 140 -159q101 0 179 80v516l-97 38v99q197 45 325 51l40 -18v-760l115 -33v-106q-169 -40 -332 -49l-40 16l9 142h-22q-114 -165 -304 -166q-134 0 -207.5 79t-73.5 218z" />
<glyph unicode="v" horiz-adv-x="1058" d="M9 920h464v-99l-63 -35q97 -306 190 -547h21q117 330 179 566l-127 16v99h377v-99l-106 -33q-82 -244 -295 -779l-179 -33l-42 10q-195 478 -311 819l-108 16v99z" />
<glyph unicode="w" horiz-adv-x="1596" d="M9 920h480v-99l-80 -37q50 -238 139 -545h21q120 353 207 671l170 34l42 -10q109 -407 205 -695h21q84 315 129 566l-133 16v99h378v-99l-103 -33q-92 -347 -236 -779l-195 -33l-42 10q-77 210 -190 590h-20q-150 -442 -199 -567l-196 -33l-40 10q-148 439 -249 821 l-109 14v99z" />
<glyph unicode="x" horiz-adv-x="1051" d="M1037 0h-498v102l63 33q-61 108 -139 235h-23q-99 -156 -153 -255l110 -13v-102h-383v102l121 35q79 108 249 319q-165 245 -227 349l-128 16v99h503v-99l-64 -33q2 -4 134 -219h19q77 131 128 238l-104 14v99h378v-99l-129 -39q-105 -146 -219 -295q154 -230 240 -372 l122 -13v-102z" />
<glyph unicode="y" horiz-adv-x="1058" d="M242 -386q-101 0 -149 64l11 124h312q38 60 60 113q-182 393 -356 890l-111 16v99h464v-99l-61 -33q89 -290 188 -549h21q101 276 176 566l-124 16v99h377v-99l-109 -37q-159 -470 -318 -833q-80 -173 -180 -255t-201 -82z" />
<glyph unicode="z" horiz-adv-x="863" d="M54 787q0 79 15 133h726l14 -109l-319 -479q-58 -91 -151 -212l9 -14l281 14l44 186l140 -9q31 -149 -16 -297h-744l-13 109l325 484q47 71 155 209l-10 17l-266 -19l-34 -173h-135q-21 81 -21 160z" />
<glyph unicode="{" horiz-adv-x="606" d="M419 728q0 -91 -49 -132q-49 -42 -175 -55v-21q125 -13 175 -55.5t49 -133.5q0 -91 -104 -510l190 -43v-100q-173 -20 -250 9q-75 29 -104 67q-28 38 -27 100q0 62 106 547l-161 72v114l161 72q-13 42 -60 255q-46 214 -46 263q0 85 65.5 133t200.5 48q52 0 115 -7v-101 l-188 -43q102 -388 102 -479z" />
<glyph unicode="|" horiz-adv-x="534" d="M190 -219v1586h153v-1586h-153z" />
<glyph unicode="}" horiz-adv-x="606" d="M224 -330q-71 0 -133 8v100l189 43q-104 419 -104 510t50 134q49 41 175 55v21q-125 13 -175 55.5t-49 131.5q0 91 102 479l-188 43v101q64 7 116 7q134 0 200 -47t65 -134q0 -48 -39.5 -233.5t-52 -230t-13.5 -54.5l162 -72v-114l-162 -72q105 -485 105 -547t-29 -100 q-28 -38 -88 -61t-131 -23z" />
<glyph unicode="~" d="M344 704q63 0 178 -59q102 -43 273 -139l140 157l91 -56q-27 -91 -87 -173t-158 -82t-454 194l-143 -156l-90 57q78 257 250 257z" />
<glyph unicode="&#xa1;" horiz-adv-x="557" d="M200 563h155q4 -34 20 -160q53 -426 53 -662q-111 -33 -262 -33l-39 38q0 238 53 652q17 131 20 165zM285.5 955q76.5 0 123.5 -23q22 -38 21 -88q0 -88 -62 -150l-210 24l-5 223q56 14 132.5 14z" />
<glyph unicode="&#xa2;" horiz-adv-x="972" d="M370 595.5q0 -239.5 111 -316.5q6 150 6 285.5t-7 330.5q-110 -60 -110 -299.5zM77 521.5q0 201.5 110 334.5q110 132 286 163l-7 193l113 16l33 -18l-7 -184q128 -6 213.5 -61t85.5 -149.5t-64 -140.5h-167l-30 236q-22 4 -43 4q-7 -206 -7 -352.5t5 -322.5q18 -1 37 -1 q125 0 249 76l31 -103q-122 -137 -310 -159l7 -180l-113 -17l-33 19l7 176q-201 17 -298.5 143t-97.5 327.5z" />
<glyph unicode="&#xa3;" horiz-adv-x="1089" d="M633 997q-157 0 -157 -177q0 -83 47 -209h241v-124h-216l2 -31q0 -104 -50.5 -164.5t-167.5 -119.5l9 -21q131 37 236 37t234 -26l57 174h147q9 -65 9 -129q0 -127 -55 -178.5t-185 -52.5q-184 0 -489 92q-47 -89 -133 -90q-49 0 -91 22l-17 167l158 57q51 73 51 132 t-23 131h-172v124h134q-22 78 -21 140q0 166 124.5 262t317.5 95q146 0 238.5 -54.5t91.5 -151.5q0 -98 -62 -144h-166l-31 233q-33 6 -61 6z" />
<glyph unicode="&#xa4;" horiz-adv-x="1031" d="M522 337q73 0 105 48q33 48 33 144t-33 144q-32 47 -105 47q-150 0 -150 -191.5t150 -191.5zM509 217q-103 0 -177 29l-163 -159l-113 110l150 147q-53 73 -53 181t68 188l-165 160l113 111l181 -179q84 35 180.5 35t161.5 -23l172 167l111 -113l-151 -147 q54 -75 54 -184.5t-57 -189.5l154 -152l-111 -111l-170 167q-82 -37 -185 -37z" />
<glyph unicode="&#xa5;" horiz-adv-x="1195" d="M1061 652v-123h-252l-67 -112v-40h319v-123h-319v-134l152 -14v-106h-569v106l143 36v112h-324v123h324v40l-67 112h-257v123h183q-113 186 -188 323h-2l-109 15v106h532v-106l-106 -33q99 -206 207 -399h23q109 191 211 417l-124 15v104h398v-104l-119 -39 q-69 -133 -168 -299h179z" />
<glyph unicode="&#xa6;" horiz-adv-x="534" d="M190 -219v578h153v-578h-153zM190 789v578h153v-578h-153z" />
<glyph unicode="&#xa7;" horiz-adv-x="985" d="M294 732q-100 -91 1 -184q52 -46 198 -146q147 -99 199 -145q101 97 -5 193q-54 48 -197.5 142.5t-195.5 139.5zM946 434q0 -83 -41 -143.5t-141 -106.5q47 -64 47 -148q0 -134 -95 -207q-93 -73 -244.5 -73t-239.5 59t-88 147q0 66 60 109h137l27 -195q145 -25 196 21 q34 30 34 79t-56 90q-56 42 -97 67q-42 25 -116 74q-209 143 -249 208.5t-40 145.5t41 140.5t141 105.5q-45 66 -45 150q0 131 94 205q94 75 245 74q152 0 239 -57.5t87 -148.5q0 -66 -58 -110h-139l-27 195q-145 25 -196 -20q-34 -31 -34 -67.5t10.5 -51.5t18.5 -25 q8 -11 35 -33q60 -49 207 -134q199 -135 243 -201t44 -149z" />
<glyph unicode="&#xa8;" horiz-adv-x="781" d="M604.5 1351q63.5 0 93.5 -13q29 -46 29 -104t-47 -126h-184l-30 214q75 29 138.5 29zM191.5 1351q64.5 0 95.5 -13q65 -109 -19 -230h-184l-30 214q73 29 137.5 29z" />
<glyph unicode="&#xa9;" horiz-adv-x="1496" d="M838 377q86 0 183 61l27 -79q-106 -122 -282.5 -122t-265.5 99q-88 98 -88 265.5t108 272.5q107 103 268 103q104 0 175 -42.5t72 -119.5q0 -76 -45 -111h-144l-22 167q-24 4 -43 4q-119 0 -120 -221q0 -277 177 -277zM746.5 94q221.5 0 358.5 139t138 376 q0 237 -135 373q-134 136 -356.5 136t-360.5 -137t-138 -374t137 -375q135 -138 356.5 -138zM760 1236q290 1 470 -170t181 -450q0 -191 -88 -338q-89 -147 -242.5 -224.5t-344.5 -77.5q-291 0 -471 173.5t-180 452.5q0 191 89 337t241 222q152 75 345 75z" />
<glyph unicode="&#xaa;" horiz-adv-x="694" d="M401 553l2 110h-27q-94 -4 -117 -44t-9 -81q11 -33 59 -33t92 48zM222 383q-175 0 -175 174q0 89 78 132q79 43 200 43q38 0 80 -3l2 100q2 70 -25 96.5t-62 25.5q-36 0 -59 -5l-21 -141h-120q-40 35 -40 81q0 64 76.5 106.5t191.5 42.5t184.5 -54.5t67.5 -158.5l-5 -312 l80 -14v-70q-84 -38 -163 -38q-99 0 -98 78v17h-13q-60 -100 -179 -100z" />
<glyph unicode="&#xab;" horiz-adv-x="1069" d="M800 496l143 -290l-110 -72l-304 325v75l302 325l112 -71zM359 496l144 -290l-111 -72l-305 325v75l305 325l109 -71z" />
<glyph unicode="&#xac;" d="M767 146v320h-668v153h838v-473h-170z" />
<glyph unicode="&#xad;" horiz-adv-x="683" d="M80 466v153h523v-153h-523z" />
<glyph unicode="&#xae;" horiz-adv-x="1142" d="M534 868h69q37 34 37 83q1 48 -15 67.5t-55 18.5h-36v-169zM740.5 607q-55.5 0 -85.5 45.5t-79 151.5h-42v-133l51 -5v-52h-235v52l55 14v353l-55 6v53q102 9 195 9q175 0 219 -61q22 -31 22 -81q0 -92 -99 -122v-8q49 -43 108 -142l34 -14v-50q-33 -16 -88.5 -16z M572.5 470q167.5 0 266 100.5t98.5 277t-100 272.5q-99 98 -265 98q-233 0 -322 -175q-44 -84 -44 -201q0 -176 99.5 -274t267 -98zM578 1315q144 0 256 -58q112 -59 174.5 -164t61.5 -244q0 -214 -144.5 -344.5t-361.5 -130.5t-356 129q-137 129 -137 340t144.5 341 t362.5 131z" />
<glyph unicode="&#xaf;" horiz-adv-x="657" d="M603 1206q0 -43 -8 -81h-531q-9 35 -9 81t9 79h531q8 -36 8 -79z" />
<glyph unicode="&#xb0;" horiz-adv-x="690" d="M344.5 1219q-54.5 0 -92.5 -37t-38 -97.5t38 -96.5q38 -37 93 -37t94 37q37 36 37 97q1 60 -38 97t-93.5 37zM357 1365q87 0 154 -39t101.5 -100.5t34.5 -133.5q0 -122 -92 -204q-90 -82 -222 -83q-132 0 -211 80q-78 79 -78 197q0 120 91 201.5t222 81.5z" />
<glyph unicode="&#xb1;" d="M966 153v-153h-811v153h811zM966 567h-315v-270h-181v270h-315v153h315v270h181v-270h315v-153z" />
<glyph unicode="&#xb2;" horiz-adv-x="584" d="M332 1167q0 85 -84 85q-20 0 -41 -5l-17 -143h-121q-40 26 -40 86.5t72 102.5q70 43 182 43t178 -48t66 -134t-87.5 -164.5t-275.5 -185.5l5 -15q94 21 150 28l113 11l11 59h93q10 -38 10 -93t-14 -94h-496l-7 88q221 156 276 268q27 54 27 111z" />
<glyph unicode="&#xb3;" horiz-adv-x="619" d="M47 1203q0 63 67 98.5t178 34.5q112 0 176 -43.5t64 -113t-35.5 -100t-103.5 -47.5v-17q162 -27 163 -147q0 -88 -77 -136t-196 -48t-183 33.5t-65 87.5q0 55 36 89h119l14 -121q27 -6 65.5 -6t67 23t28.5 71.5t-13 70.5q-24 43 -119 45h-36v82h90q54 37 54 111 q0 46 -20 64q-32 29 -107 13l-16 -118h-114q-37 32 -37 74z" />
<glyph unicode="&#xb4;" horiz-adv-x="515" d="M210 1428h151q66 -44 100 -130l-292 -253h-115z" />
<glyph unicode="&#xb5;" horiz-adv-x="1144" d="M401 325q0 -159 140 -159q101 0 177 80v665q126 33 230 39l38 -16v-762l115 -33v-106q-172 -42 -330 -49l-40 16l9 142h-22q-97 -165 -240 -166q-84 0 -134 64l-17 -9l40 -394q-97 -26 -245 -25l-37 40l49 473v788q111 30 227 37l40 -16v-609z" />
<glyph unicode="&#xb6;" horiz-adv-x="1058" d="M877 204q0 -184 -91 -269.5t-274.5 -85.5t-301.5 98l38 88q137 -68 275 -68q73 0 120 21q103 44 103 207v1017h264v-104l-133 -38v-866zM616 365h-117q-219 -2 -339 105t-120 311.5t119.5 317.5t338.5 113h118v-847z" />
<glyph unicode="&#xb7;" horiz-adv-x="513" d="M261 698q80 0 118 -11q35 -54 35 -136t-47 -151h-232l-34 263q80 35 160 35z" />
<glyph unicode="&#xb8;" horiz-adv-x="542" d="M312 -106q177 -3 177 -136q0 -62 -57.5 -104t-180 -42t-197.5 56l15 86q89 -24 129 -24q82 0 82 56q0 26 -23.5 38t-92.5 21l31 166h117v-117z" />
<glyph unicode="&#xb9;" horiz-adv-x="466" d="M443 700h-398v74l115 21v368q-40 -7 -116 -8v92q52 1 109 24t87 65l92 -5v-549l111 -8v-74z" />
<glyph unicode="&#xba;" horiz-adv-x="713" d="M357 942.5q-56 0.5 -79 -52.5t-23 -179.5t23 -182t79 -55.5t79 53.5t23 181.5q0 127 -23 180.5t-79 54zM372 1037q100 0 169 -44q130 -82 130 -273q0 -154 -90.5 -246.5t-238.5 -92.5q-149 0 -223.5 88t-74.5 235t89 239.5t239 93.5z" />
<glyph unicode="&#xbb;" horiz-adv-x="1071" d="M541 459l-304 -325l-112 72l145 290l-143 292l112 71l302 -325v-75zM984 459l-304 -325l-111 72l144 290l-144 292l113 71l302 -325v-75z" />
<glyph unicode="&#xbc;" horiz-adv-x="1603" d="M1473 113v-113h-210v113h-352l-7 85q119 287 208 575l193 -44l10 -40q-139 -264 -258 -449l6 -18q104 17 158 17h40v204l153 44l59 -9v-239h101v-126h-101zM51 1019v108q64 3 133.5 30t107.5 79l113 -8v-659l134 -11v-88h-486v88l138 25v445q-56 -9 -140 -9zM1232 1216 l15 -35q-275 -414 -366.5 -558t-216.5 -361.5t-179 -305.5l-106 39l-16 36q310 462 386.5 583t198.5 336.5t177 303.5z" />
<glyph unicode="&#xbd;" horiz-adv-x="1715" d="M1671 117q0 -64 -14 -117h-600l-7 106q20 17 107 83.5t119 103.5q81 91 97 124q36 78 36 139q0 112 -93 112q-22 0 -50 -9l-21 -174h-146q-49 33 -49 91t39 100q85 92 266 89q90 0 157 -27q135 -56 135 -184.5t-170 -254.5q-97 -71 -265 -168l6 -18q105 22 178 29l137 11 l15 75l111 -4q12 -43 12 -107zM51 1019v108q64 3 133.5 30t107.5 79l113 -8v-659l134 -11v-88h-486v88l138 25v445q-56 -9 -140 -9zM1232 1216l15 -35q-275 -414 -366.5 -558t-216.5 -361.5t-179 -305.5l-106 39l-16 36q310 462 386.5 583t198.5 336.5t177 303.5z" />
<glyph unicode="&#xbe;" horiz-adv-x="1703" d="M1571 113v-113h-209v113h-352l-8 85q120 289 210 575l192 -44l8 -40q-137 -264 -257 -449l6 -18q105 17 159 17h42v204l151 44l58 -9v-239h104v-126h-104zM324 1234q313 0 314 -202q0 -69 -41 -108t-119 -60v-20q188 -33 188 -173q0 -104 -95 -163q-94 -58 -260 -58 t-235 69q-38 35 -38 90t44 92h144l20 -147q107 -18 152 23q32 28 32 95t-34 97t-117 29h-42v99h95q35 29 52.5 59t18.5 79q0 101 -95 101q-24 0 -51 -6l-18 -146h-140q-47 39 -48 89q1 75 82.5 118t190.5 43zM1331 1216l16 -35q-275 -414 -368 -558t-215 -361 q-124 -218 -181 -306l-105 39l-17 36q310 462 386.5 583t200.5 337q122 215 175 303z" />
<glyph unicode="&#xbf;" horiz-adv-x="680" d="M579 379q0 -71 -31 -99.5t-166 -75t-174 -66.5q-37 -21 -36 -60q1 -58 70.5 -86.5t233.5 -27.5q59 0 127 3v-247q-175 -37 -300.5 10.5t-183.5 160.5q-58 112 -58 244.5t59 194.5q61 62 233 119l15 130h140q71 -129 71 -200zM452 955q78 0 124 -23q22 -42 22 -90 q0 -84 -62 -148l-209 24l-8 223q55 14 133 14z" />
<glyph unicode="&#xc0;" horiz-adv-x="1284" d="M390 463h356q-103 318 -170 504h-22q-67 -189 -164 -504zM1273 0h-546v106l117 36l-58 190h-436q-35 -113 -62 -214l113 -12v-106h-389v106l113 35q201 638 362 1062l240 33l42 -10q175 -450 388 -1108l116 -12v-106zM576 1308l-279 210q39 91 100 129h151l158 -339h-130 z" />
<glyph unicode="&#xc1;" horiz-adv-x="1284" d="M390 463h356q-103 318 -170 504h-22q-67 -189 -164 -504zM1273 0h-546v106l117 36l-58 190h-436q-35 -115 -62 -214l113 -12v-106h-389v106l113 35q201 638 362 1062l240 33l42 -10q175 -450 388 -1108l116 -12v-106zM534 1308l177 339h150q64 -40 101 -129l-299 -210 h-129z" />
<glyph unicode="&#xc2;" horiz-adv-x="1284" d="M390 463h356q-103 318 -170 504h-22q-67 -189 -164 -504zM1273 0h-546v106l117 36l-58 190h-436q-35 -115 -62 -214l113 -12v-106h-389v106l113 35q201 638 362 1062l240 33l42 -10q175 -450 388 -1108l116 -12v-106zM268 1308l271 322h162l223 -259l-160 -89l-190 169 h-18l-168 -143h-120z" />
<glyph unicode="&#xc3;" horiz-adv-x="1284" d="M390 463h356q-103 318 -170 504h-22q-67 -189 -164 -504zM1273 0h-546v106l117 36l-58 190h-436q-35 -115 -62 -214l113 -12v-106h-389v106l113 35q201 638 362 1062l240 33l42 -10q175 -450 388 -1108l116 -12v-106zM501 1598q47 0 97 -21l193 -81l87 101l72 -49 q-58 -158 -134 -197t-176 5l-193 80l-88 -100l-69 49q14 45 30 79q61 134 181 134z" />
<glyph unicode="&#xc4;" horiz-adv-x="1284" d="M390 463h356q-103 318 -170 504h-22q-67 -189 -164 -504zM1273 0h-546v106l117 36l-58 190h-436q-35 -115 -62 -214l113 -12v-106h-389v106l113 35q201 638 362 1062l240 33l42 -10q175 -450 388 -1108l116 -12v-106zM386 1581q63 0 97 -14q30 -42 30 -104t-50 -127h-184 l-29 215q73 30 136 30zM861.5 1581q62.5 0 95.5 -14q29 -42 29 -106t-47 -125h-184l-31 215q75 30 137.5 30z" />
<glyph unicode="&#xc5;" horiz-adv-x="1284" d="M390 463h356q-103 318 -170 504h-22q-67 -189 -164 -504zM1273 0h-546v106l117 36l-58 190h-436q-35 -115 -62 -214l113 -12v-106h-389v106l113 35q201 638 362 1062l240 33l42 -10q175 -450 388 -1108l116 -12v-106zM617.5 1569q-71.5 0 -71.5 -85.5t71.5 -85.5 t71.5 85.5t-71.5 85.5zM633 1663q220 0 220 -178q0 -88 -66 -136q-66 -46 -182 -46q-226 0 -226 168q0 95 71.5 143.5t182.5 48.5z" />
<glyph unicode="&#xc6;" horiz-adv-x="1756" d="M813 1072h-62q-175 -354 -292 -599h354v599zM1689 177.5q0 -71.5 -21 -177.5h-984v106l129 36v201h-416q-59 -122 -103 -225l115 -12v-106h-397v106l113 35q181 379 484 949l-126 16v106h1188q11 -51 11 -138.5t-18 -174.5h-162l-41 174l-358 14v-407l193 5l20 97h112 v-337h-112l-22 103l-191 8v-432l348 11l60 193l171 -11q7 -68 7 -139.5z" />
<glyph unicode="&#xc7;" horiz-adv-x="1217" d="M939 -242q0 -62 -58 -104t-180 -42t-196 56l17 86q87 -24 129 -24q80 0 80 56q0 26 -23 38q-24 11 -94 21l24 133q-264 11 -408.5 180.5t-144.5 445t174 454.5q174 178 490 178q192 0 357 -71q9 -45 9 -129t-18 -189h-173l-51 233q-62 15 -125 16q-174 0 -257.5 -108 t-83.5 -345q1 -236 97 -354t272 -118t337 100l32 -107q-146 -160 -381 -184v-86q175 -3 175 -136z" />
<glyph unicode="&#xc8;" horiz-adv-x="1146" d="M1079 178q0 -77 -22 -178h-991v106l127 36v946l-129 18v106h999q10 -56 10 -138t-19 -175h-160l-43 176l-366 12v-407l202 5l21 97h109v-337h-109l-23 103l-200 6v-430l355 11l61 193l171 -11q7 -62 7 -139zM538 1308l-279 210q38 91 100 129h151l158 -339h-130z" />
<glyph unicode="&#xc9;" horiz-adv-x="1146" d="M1079 178q0 -77 -22 -178h-991v106l127 36v946l-129 18v106h999q10 -56 10 -138t-19 -175h-160l-43 176l-366 12v-407l202 5l21 97h109v-337h-109l-23 103l-200 6v-430l355 11l61 193l171 -11q7 -62 7 -139zM496 1308l175 339h151q64 -40 100 -129l-297 -210h-129z" />
<glyph unicode="&#xca;" horiz-adv-x="1146" d="M1079 178.5q0 -77.5 -22 -178.5h-991v106l127 36v946l-129 18v106h999q10 -56 10 -138t-19 -175h-160l-43 176l-366 12v-407l202 5l21 97h109v-337h-109l-23 103l-200 6v-430l355 11l61 193l171 -11q7 -61 7 -138.5zM230 1308l269 322h162l225 -259l-161 -89l-189 169 h-18l-168 -143h-120z" />
<glyph unicode="&#xcb;" horiz-adv-x="1146" d="M1079 178q0 -77 -22 -178h-991v106l127 36v946l-129 18v106h999q10 -56 10 -138t-19 -175h-160l-43 176l-366 12v-407l202 5l21 97h109v-337h-109l-23 103l-200 6v-430l355 11l61 193l171 -11q7 -62 7 -139zM347 1581q64 0 96 -14q29 -42 29 -104t-47 -127h-185l-28 215 q71 30 135 30zM822.5 1581q62.5 0 95.5 -14q30 -42 30 -106t-47 -125h-186l-30 215q75 30 137.5 30z" />
<glyph unicode="&#xcc;" horiz-adv-x="677" d="M614 0h-550v106l129 36v950l-129 14v106h550v-106l-129 -36v-950l129 -14v-106zM303 1308l-279 210q38 91 100 129h151l157 -339h-129z" />
<glyph unicode="&#xcd;" horiz-adv-x="677" d="M614 1212v-106l-129 -36v-950l129 -14v-106h-550v106l129 36v950l-129 14v106h550zM261 1308l177 339h149q64 -40 102 -129l-299 -210h-129z" />
<glyph unicode="&#xce;" horiz-adv-x="677" d="M614 1212v-106l-129 -36v-950l129 -14v-106h-550v106l129 36v950l-129 14v106h550zM-5 1308l271 322h162l223 -259l-161 -89l-189 169h-19l-167 -143h-120z" />
<glyph unicode="&#xcf;" horiz-adv-x="677" d="M614 1212v-106l-129 -36v-950l129 -14v-106h-550v106l129 36v950l-129 14v106h550zM548 1590q64 0 97 -11q30 -44 30 -106t-48 -128h-186l-29 215q72 30 136 30zM157.5 1590q64.5 0 96.5 -11q29 -42 29 -104.5t-48 -129.5h-184l-31 215q73 30 137.5 30z" />
<glyph unicode="&#xd0;" horiz-adv-x="1350" d="M485 131h106q197 0 275 110.5t78 376.5q0 175 -32 278t-106 152t-201 49h-120v-406h228v-128h-228v-432zM520 1228q414 0 580 -157.5t166 -446.5q0 -290 -170 -458q-172 -166 -503 -166h-529v106l129 36v421h-118v128h118v399l-129 14v106q240 18 456 18z" />
<glyph unicode="&#xd1;" horiz-adv-x="1393" d="M508 0h-444v106l129 36v950l-129 14v106h505l335 -601q77 -141 146 -298h20l-23 779l-152 14v106h443v-106l-128 -36v-1061l-250 -31l-43 10l-428 756q-79 146 -136 286h-19l23 -912l151 -12v-106zM556.5 1598q59.5 0 111.5 -21l193 -81l87 101l69 -49 q-50 -154 -129.5 -195t-179.5 3l-194 80l-88 -100l-69 49q43 122 92 167q48 46 107.5 46z" />
<glyph unicode="&#xd2;" horiz-adv-x="1423" d="M712 1096q-150 0 -226.5 -117t-76.5 -371.5t76.5 -372.5t226.5 -118t226.5 118t76.5 372.5t-76.5 371.5t-226.5 117zM742 1236q194 -1 331 -81q268 -157 266 -524q0 -301 -182 -478t-473 -177q-194 1 -332 83q-267 159 -267 530q0 297 181 471.5t476 175.5zM671 1308 l-279 210q38 91 100 129h151l157 -339h-129z" />
<glyph unicode="&#xd3;" horiz-adv-x="1423" d="M712 1096q-150 0 -226.5 -117t-76.5 -371.5t76.5 -372.5t226.5 -118t226.5 118t76.5 372.5t-76.5 371.5t-226.5 117zM742 1236q194 -1 331 -81q268 -157 266 -524q0 -301 -182 -478t-473 -177q-194 1 -332 83q-267 159 -267 530q0 297 181 471.5t476 175.5zM804 1647h151 q64 -40 101 -129l-298 -210h-131z" />
<glyph unicode="&#xd4;" horiz-adv-x="1423" d="M712 1096q-150 0 -226.5 -117t-76.5 -371.5t76.5 -372.5t226.5 -118t226.5 118t76.5 372.5t-76.5 371.5t-226.5 117zM742 1236q194 -1 331 -81q268 -157 266 -524q0 -301 -182 -478t-473 -177q-194 1 -332 83q-267 159 -267 530q0 297 181 471.5t476 175.5zM859 1282 l-191 169h-19l-166 -143h-122l272 322h162l224 -259z" />
<glyph unicode="&#xd5;" horiz-adv-x="1423" d="M712 117q150 0 226.5 118t76.5 372.5t-76.5 371.5t-226.5 117t-226.5 -117t-76.5 -371.5t76.5 -372.5t226.5 -118zM742 1236q194 -1 331 -81q268 -157 266 -524q0 -301 -182 -478t-473 -177q-194 1 -332 83q-267 159 -267 530q0 297 181 471.5t476 175.5zM415 1464 q61 134 180 134q48 0 97 -21l194 -81l88 101l71 -49q-57 -157 -133.5 -197t-177.5 5l-193 80l-87 -100l-71 49q16 45 32 79z" />
<glyph unicode="&#xd6;" horiz-adv-x="1423" d="M712 1096q-150 0 -226.5 -117t-76.5 -371.5t76.5 -372.5t226.5 -118t226.5 118t76.5 372.5t-76.5 371.5t-226.5 117zM742 1236q194 -1 331 -81q268 -157 266 -524q0 -301 -182 -478t-473 -177q-194 1 -332 83q-267 159 -267 530q0 297 181 471.5t476 175.5zM481 1581 q64 0 95 -14q29 -42 29 -104t-47 -127h-184l-30 215q73 30 137 30zM956 1581q62 0 96 -14q28 -42 28 -106t-47 -125h-186l-28 215q75 30 137 30z" />
<glyph unicode="&#xd7;" d="M685 541l279 -280l-122 -115l-272 284l-283 -282l-121 115l274 283l-283 280l122 115l275 -283l281 283l122 -115z" />
<glyph unicode="&#xd8;" horiz-adv-x="1423" d="M713 117q151 0 226.5 115.5t75.5 383.5q0 181 -34 288l-489 -690q70 -97 221 -97zM718 1096q-158 0 -233.5 -113t-75.5 -381q-1 -155 24 -258l482 679q-68 73 -197 73zM1339 640q0 -310 -182 -487t-473 -177q-179 0 -310 69l-137 -193l-93 44l-13 33l135 191 q-181 167 -181 466.5t181 474.5t476 175q162 0 284 -55l129 181l94 -46l10 -31l-120 -173q200 -162 200 -472z" />
<glyph unicode="&#xd9;" horiz-adv-x="1337" d="M1163 397q1 -195 -129 -308t-366.5 -113t-364.5 116q-128 115 -128 318v682l-130 14v106h550v-106l-129 -36v-680q0 -193 120 -253q57 -29 145 -29q268 0 268 280v706l-146 12v106h437v-106l-127 -36v-673zM671 1308l-279 210q38 91 102 129h149l159 -339h-131z" />
<glyph unicode="&#xda;" horiz-adv-x="1337" d="M1163 397q1 -195 -129 -308t-366.5 -113t-364.5 116q-128 115 -128 318v682l-130 14v106h550v-106l-129 -36v-680q0 -193 120 -253q57 -29 145 -29q268 0 268 280v706l-146 12v106h437v-106l-127 -36v-673zM629 1308l176 339h150q66 -40 102 -129l-299 -210h-129z" />
<glyph unicode="&#xdb;" horiz-adv-x="1337" d="M466 390q0 -282 266.5 -282t266.5 280v706l-146 12v106h437v-106l-127 -36v-673q1 -195 -129 -308t-366.5 -113t-364.5 116q-128 115 -128 318v682l-130 14v106h550v-106l-129 -36v-680zM363 1308l272 322h162l224 -259l-162 -89l-190 169h-18l-168 -143h-120z" />
<glyph unicode="&#xdc;" horiz-adv-x="1337" d="M466 390q0 -282 266.5 -282t266.5 280v706l-146 12v106h437v-106l-127 -36v-673q1 -195 -129 -308t-366.5 -113t-364.5 116q-128 115 -128 318v682l-130 14v106h550v-106l-129 -36v-680zM481 1581q64 0 97 -14q29 -42 29 -104t-47 -127h-184l-32 215q73 30 137 30z M956 1581q62 0 98 -14q26 -42 26 -106t-47 -125h-184l-30 215q75 30 137 30z" />
<glyph unicode="&#xdd;" horiz-adv-x="1222" d="M922 0h-586v106l147 36v272q-202 374 -349 680l-122 12v106h534v-106l-97 -31q107 -240 236 -486h23q129 242 238 505l-144 12v106h408v-106l-109 -36q-129 -281 -327 -642v-308l148 -14v-106zM546 1308l178 339h149q66 -40 102 -129l-299 -210h-130z" />
<glyph unicode="&#xde;" horiz-adv-x="1165" d="M485 1028h113q277 0 402 -90q127 -91 127 -288.5t-106 -300t-305 -101.5q-97 0 -158 11v117h44q104 0 153.5 60.5t49.5 198.5t-47 199t-163 61h-110v-775l148 -14v-106h-567v106l127 36v950l-129 14v106h392l29 -35v-149z" />
<glyph unicode="&#xdf;" horiz-adv-x="1193" d="M666 1372q270 0 349 -154q26 -50 26 -110.5t-17 -107.5q-37 -98 -187 -179q-37 -20 -49 -30q-30 -21 -30 -57t33 -59.5t157 -78.5q213 -97 213 -293q0 -152 -104 -239t-267 -87t-235 68q-42 40 -42 108.5t52 103.5h103l23 -172q47 -10 85 -10q134 0 134 131 q0 49 -26 82.5t-87 73.5q-62 41 -109 73q-100 69 -101 155t31 134.5t55 72.5q42 56 64 115q23 60 23 161q0 198 -157 200q-94 0 -135 -60.5t-42 -175.5v-1037h-377v91l109 38v664l-120 18v104l122 24q4 209 141 321t365 112z" />
<glyph unicode="&#xe0;" horiz-adv-x="1002" d="M554 405q-213 0 -213 -144q0 -68 24 -94.5t75 -25.5q87 0 162 80v184h-48zM764 -14q-150 0 -150 122v23h-21q-93 -155 -278 -155q-120 0 -187 66t-66 173q0 209 254 267q70 16 145 16t142 -9v174q0 101 -40.5 141t-121.5 40q-31 0 -65 -6l-30 -222h-171q-64 47 -64 115 q0 98 117 161q116 62 285 63q169 0 262.5 -79t92.5 -227l-7 -491l116 -21v-101q-120 -50 -213 -50zM481 1045l-284 253q38 94 104 130h149l148 -383h-117z" />
<glyph unicode="&#xe1;" horiz-adv-x="1002" d="M554 405q-213 0 -213 -144q0 -68 24 -94.5t75 -25.5q87 0 162 80v184h-48zM764 -14q-150 0 -150 122v23h-21q-93 -155 -276 -155q-122 0 -189 66t-66 173q0 209 254 267q70 16 145 16t142 -9v174q0 101 -40.5 141t-121.5 40q-31 0 -65 -6l-30 -222h-171q-64 47 -64 115 q0 98 117 161q116 62 285 63q169 0 262.5 -79t92.5 -227l-7 -491l116 -21v-101q-120 -50 -213 -50zM423 1045l156 383h152q64 -44 100 -130l-292 -253h-116z" />
<glyph unicode="&#xe2;" horiz-adv-x="1002" d="M554 405q-213 0 -213 -144q0 -68 24 -94.5t75 -25.5q87 0 162 80v184h-48zM764 -14q-150 0 -150 122v23h-21q-93 -155 -276 -155q-122 0 -189 66t-66 173q0 209 254 267q70 16 145 16t142 -9v174q0 101 -40.5 141t-121.5 40q-31 0 -65 -6l-30 -222h-171q-64 47 -64 115 q0 98 117 161q116 62 285 63q169 0 262.5 -79t92.5 -227l-7 -491l116 -21v-101q-120 -50 -213 -50zM184 1045l248 366h163l205 -305l-160 -83l-172 198h-19l-148 -176h-117z" />
<glyph unicode="&#xe3;" horiz-adv-x="1002" d="M602 405h-48q-152 0 -193 -69q-20 -33 -20 -78.5t11 -70.5q19 -46 97 -46t153 80v184zM764 -14q-150 0 -150 122v23h-21q-93 -155 -276 -155q-122 0 -189 66t-66 173q0 209 254 267q70 16 145 16t142 -9v174q0 101 -40.5 141t-121.5 40q-31 0 -65 -6l-30 -222h-171 q-64 47 -64 116q0 97 117 160q116 62 285 63q169 0 262.5 -79t92.5 -227l-7 -491l116 -21v-101q-120 -50 -213 -50zM268 1080l-71 50q50 156 127.5 198.5t174.5 -6.5l153 -77l88 102l69 -49q-49 -156 -127.5 -198t-175.5 4l-153 77z" />
<glyph unicode="&#xe4;" horiz-adv-x="1002" d="M554 405q-213 0 -213 -144q0 -68 24 -94.5t75 -25.5q87 0 162 80v184h-48zM764 -14q-150 0 -150 122v23h-21q-93 -155 -276 -155q-122 0 -189 66t-66 173q0 209 254 267q70 16 145 16t142 -9v174q0 101 -40.5 141t-121.5 40q-31 0 -65 -6l-30 -222h-171q-64 47 -64 115 q0 98 117 161q116 62 285 63q169 0 262.5 -79t92.5 -227l-7 -491l116 -21v-101q-120 -50 -213 -50zM714 1351q64 0 93 -13q31 -46 31 -104.5t-49 -125.5h-182l-29 214q72 29 136 29zM301 1351q64 0 94 -13q31 -49 31 -106t-49 -124h-184l-27 214q71 29 135 29z" />
<glyph unicode="&#xe5;" horiz-adv-x="1002" d="M602 405h-48q-152 0 -193 -69q-20 -33 -20 -89q0 -108 99 -106q87 0 162 80v184zM764 -14q-150 0 -150 122v23h-21q-93 -155 -278 -155q-120 0 -187 66t-66 173q0 209 254 267q70 16 145 16t142 -9v174q0 101 -40.5 141t-121.5 40q-31 0 -65 -6l-30 -222h-171 q-64 47 -64 116q0 97 117 160q116 62 285 63q169 0 262.5 -79t92.5 -227l-7 -491l116 -21v-101q-120 -50 -213 -50zM503 1349q-37 0 -53.5 -23t-17.5 -76q0 -102 71 -102t71 100.5t-71 100.5zM492 1056q-230 0 -229 190q0 94 72.5 146t164.5 52q241 0 238 -185 q-1 -100 -67 -151.5t-179 -51.5z" />
<glyph unicode="&#xe6;" horiz-adv-x="1485" d="M343 261q0 -66 24.5 -93t73.5 -27q99 0 182 103q-25 76 -28 175l-17 -2q-131 -10 -183 -50t-52 -106zM1028 835q-73 0 -120 -75t-51 -226l295 33l1 31q0 237 -125 237zM640 157q-94 -181 -320 -181q-119 0 -188.5 65t-69.5 182t78 177.5t170 79t224 28.5l62 2l4 144 q2 104 -41 147t-124 43q-31 0 -61 -6l-30 -222h-170q-65 45 -65 116q0 95 111.5 159t257.5 64q214 0 271 -153h20q40 69 117.5 111t189.5 42t190 -45q148 -85 148 -289q1 -89 -25 -165l-528 -16q25 -296 264 -296q124 0 255 78l29 -83q-144 -162 -392 -162.5t-356 180.5h-21 z" />
<glyph unicode="&#xe7;" horiz-adv-x="949" d="M548 842q-191 0 -195 -332q0 -370 256 -369q115 0 242 74l29 -84q-122 -134 -308 -151v-86q94 -2 135 -38.5t41 -86t-24 -83.5q-54 -76 -195 -75t-216 57l17 86q87 -24 129 -24q80 0 80 56q0 26 -23 38q-24 11 -93 21l26 133q-197 18 -294 144.5t-96 322.5q0 239 137 374 q138 135 350 134q139 0 235.5 -55t95.5 -166q0 -87 -68 -132h-178l-26 238q-29 4 -57 4z" />
<glyph unicode="&#xe8;" horiz-adv-x="978" d="M645 607q0 228 -127 228q-71 0 -119 -67t-56 -203l302 16v26zM612 144q128 0 263 78l29 -83q-144 -162 -386 -163q-341 0 -433 286q-27 82 -26 183q0 240 136 376q137 135 358 134q180 0 267.5 -90t87.5 -242q0 -84 -26 -157h-539q16 -322 269 -322zM496 1045l-286 253 q40 94 105 130h150l146 -383h-115z" />
<glyph unicode="&#xe9;" horiz-adv-x="978" d="M645 607q0 228 -127 228q-71 0 -119 -67t-56 -203l302 16v26zM612 144q128 0 263 78l29 -83q-144 -162 -386 -163q-341 0 -433 286q-27 82 -26 183q0 240 136 376q137 135 358 134q180 0 267.5 -90t87.5 -242q0 -84 -26 -157h-539q16 -322 269 -322zM438 1045l155 383 h151q66 -44 100 -130l-291 -253h-115z" />
<glyph unicode="&#xea;" horiz-adv-x="978" d="M645 607q0 228 -127 228q-71 0 -119 -67t-56 -203l302 16v26zM612 144q128 0 263 78l29 -83q-144 -162 -386 -163q-341 0 -433 286q-27 82 -26 183q0 240 136 376q137 135 358 134q180 0 267.5 -90t87.5 -242q0 -84 -26 -157h-539q16 -322 269 -322zM197 1045l250 366 h162l205 -305l-160 -83l-173 198h-18l-150 -176h-116z" />
<glyph unicode="&#xeb;" horiz-adv-x="978" d="M645 607q0 228 -127 228q-71 0 -119 -67t-56 -203l302 16v26zM612 144q128 0 263 78l29 -83q-144 -162 -386 -163q-341 0 -433 286q-27 82 -26 183q0 240 136 376q137 135 358 134q182 0 268.5 -90t86.5 -242q0 -84 -26 -157h-539q16 -322 269 -322zM729 1351 q63 0 93 -13q68 -105 -18 -230h-183l-30 214q75 29 138 29zM317 1351q64 0 93 -13q30 -49 30 -106t-48 -124h-185l-28 214q74 29 138 29z" />
<glyph unicode="&#xec;" horiz-adv-x="572" d="M550 0h-501v102l109 37v617l-109 44v99q158 40 337 51l40 -18v-815l124 -15v-102zM250 1045l-283 253q38 94 104 130h150l146 -383h-117z" />
<glyph unicode="&#xed;" horiz-adv-x="572" d="M550 0h-501v102l109 37v617l-109 44v99q158 40 337 51l40 -18v-815l124 -15v-102zM195 1045l141 383h151q66 -40 102 -130l-277 -253h-117z" />
<glyph unicode="&#xee;" horiz-adv-x="572" d="M550 0h-501v102l109 37v617l-109 44v99q158 40 337 51l40 -18v-815l124 -15v-102zM-11 1054l208 357h164l168 -296l-162 -83l-134 178h-18l-109 -156h-117z" />
<glyph unicode="&#xef;" horiz-adv-x="572" d="M550 0h-501v102l109 37v617l-109 44v99q158 40 337 51l40 -18v-815l124 -15v-102zM464.5 1351q57.5 0 88.5 -13q68 -111 -19 -230h-171l-29 214q73 29 130.5 29zM94.5 1351q58.5 0 86.5 -13q31 -49 31 -106t-50 -124h-171l-29 214q74 29 132.5 29z" />
<glyph unicode="&#xf0;" horiz-adv-x="1076" d="M532 742q-180 0 -179 -285q0 -145 20 -218q38 -145 165 -145q94 0 142 84t49 241q0 159 -16 259q-90 64 -181 64zM1021 516q0 -252 -135.5 -397t-353.5 -145t-346 119q-127 118 -127 338t99 337q101 118 266.5 118t260.5 -104h21q-37 181 -212 322l-184 -94l-103 56 l-7 31l176 89q-103 63 -234 119l55 80q191 -40 341 -115l204 106l100 -58l5 -31l-178 -94q225 -157 309 -408q43 -130 43 -269z" />
<glyph unicode="&#xf1;" horiz-adv-x="1151" d="M1139 0h-481v102l90 37v470q0 156 -143 156q-100 0 -179 -78v-570l104 -15v-102h-481v102l109 37v617l-109 44v99q186 44 327 51l40 -18l-9 -141h21q115 164 299 164t255 -135q33 -67 33 -161v-542l124 -15v-102zM359 1080l-71 50q51 157 127.5 199t175.5 -7l153 -77 l87 102l70 -49q-8 -31 -27 -71q-54 -119 -128 -139q-73 -19 -146 16l-155 77z" />
<glyph unicode="&#xf2;" horiz-adv-x="1082" d="M541 835q-98 0 -140.5 -86.5t-42.5 -282t42 -282.5q43 -87 141 -87t142 87q42 87 42 282q0 194 -42.5 281.5t-141.5 87.5zM565.5 955q229.5 0 345 -131t115.5 -350.5t-140 -358.5q-138 -139 -368 -139q-230 -1 -344.5 131t-114.5 352.5t138 358.5q139 137 368.5 137z M520 1045l-287 253q40 94 106 130h150l147 -383h-116z" />
<glyph unicode="&#xf3;" horiz-adv-x="1082" d="M541 835q-98 0 -140.5 -86.5t-42.5 -282t42 -282.5q43 -87 141 -87t142 87q42 87 42 282q0 194 -42.5 281.5t-141.5 87.5zM565.5 955q229.5 0 345 -131t115.5 -350.5t-140 -358.5q-138 -139 -368 -139q-230 -1 -344.5 131t-114.5 352.5t138 358.5q139 137 368.5 137z M616 1428h151q66 -44 101 -130l-292 -253h-115z" />
<glyph unicode="&#xf4;" horiz-adv-x="1082" d="M541 835q-130 0 -165 -158q-18 -79 -18 -210.5t18 -211.5q36 -158 165 -158q99 0 141.5 87t42.5 282q0 194 -42.5 281.5t-141.5 87.5zM565.5 955q229.5 0 345 -131t115.5 -350.5t-140 -358.5q-138 -139 -368 -139q-230 -1 -344.5 131t-114.5 352.5t138 358.5 q139 137 368.5 137zM678 1023l-173 198h-18l-148 -176h-117l248 366h163l205 -305z" />
<glyph unicode="&#xf5;" horiz-adv-x="1082" d="M725 466q0 194 -42.5 281.5t-141.5 87.5q-98 0 -140.5 -86.5t-42.5 -250t18 -243.5q36 -158 165 -158q99 0 141.5 87t42.5 282zM565.5 955q229.5 0 345 -131t115.5 -350.5t-140 -358.5q-138 -139 -368 -139q-230 -1 -344.5 131t-114.5 352.5t138 358.5q139 137 368.5 137 zM304 1080l-69 50q51 156 128.5 198.5t174.5 -6.5l153 -77l87 102l69 -49q-49 -156 -127 -198t-175 4l-153 77z" />
<glyph unicode="&#xf6;" horiz-adv-x="1082" d="M541 97q98 0 142 87q42 87 42 250q0 162 -17 242q-36 158 -167 159q-98 0 -140.5 -86.5t-42.5 -282t42 -282.5q43 -87 141 -87zM565.5 955q229.5 0 345 -131t115.5 -350.5t-140 -358.5q-138 -139 -368 -139q-230 -1 -344.5 131t-114.5 352.5t138 358.5q139 137 368.5 137 zM753 1351q64 0 93 -13q31 -46 31 -104.5t-49 -125.5h-183l-29 214q73 29 137 29zM340 1351q64 0 93 -13q30 -49 30 -106t-47 -124h-185l-29 214q74 29 138 29z" />
<glyph unicode="&#xf7;" d="M564.5 327q77.5 0 111.5 -12q33 -60 33 -126t-46 -127h-218l-33 232q75 33 152.5 33zM99 466v153h922v-153h-922zM564.5 1052q77.5 0 111.5 -13q33 -48 33 -120t-46 -133h-218l-33 231q75 35 152.5 35z" />
<glyph unicode="&#xf8;" horiz-adv-x="1082" d="M734 469q0 133 -14 207l-315 -521q44 -59 125.5 -58.5t124.5 39.5t61 119.5t18 213.5zM545 835q-112 0 -154.5 -86t-42.5 -288q0 -98 9 -164l301 501q-42 37 -113 37zM1026 485q0 -231 -139 -370t-371 -139q-109 0 -196 33l-99 -162l-94 40l-14 31l94 157 q-149 125 -148.5 365t139 377.5t369.5 137.5q94 0 173 -26l106 172l95 -42l12 -29l-94 -159q167 -123 167 -386z" />
<glyph unicode="&#xf9;" horiz-adv-x="1136" d="M124 271v485l-112 44v99q185 44 340 51l40 -18v-607q0 -159 140 -159q101 0 179 80v516l-97 38v99q197 45 325 51l40 -18v-760l115 -33v-106q-169 -40 -332 -49l-40 16l9 142h-22q-114 -165 -299.5 -165t-252.5 135q-33 67 -33 159zM503 1045l-286 253q40 94 105 130h150 l146 -383h-115z" />
<glyph unicode="&#xfa;" horiz-adv-x="1136" d="M124 271v485l-112 44v99q185 44 340 51l40 -18v-607q0 -159 140 -159q101 0 179 80v516l-97 38v99q197 45 325 51l40 -18v-760l115 -33v-106q-169 -40 -332 -49l-40 16l9 142h-22q-114 -165 -299.5 -165t-252.5 135q-33 67 -33 159zM445 1045l155 383h151 q66 -44 100 -130l-291 -253h-115z" />
<glyph unicode="&#xfb;" horiz-adv-x="1136" d="M124 273v483l-112 44v99q185 44 340 51l40 -18v-607q0 -159 140 -159q101 0 179 80v516l-97 38v99q197 45 325 51l40 -18v-760l115 -33v-106q-169 -40 -332 -49l-40 16l9 142h-22q-114 -165 -304 -166q-134 0 -207.5 78.5t-73.5 218.5zM204 1045l250 366h162l206 -305 l-161 -83l-172 198h-19l-150 -176h-116z" />
<glyph unicode="&#xfc;" horiz-adv-x="1136" d="M124 273v483l-112 44v99q185 44 340 51l40 -18v-607q0 -159 140 -159q101 0 179 80v516l-97 38v99q197 45 325 51l40 -18v-760l115 -33v-106q-169 -40 -332 -49l-40 16l9 142h-22q-114 -165 -304 -166q-134 0 -207.5 78.5t-73.5 218.5zM737 1351q64 0 92 -13 q30 -46 30 -104.5t-48 -125.5h-182l-31 214q75 29 139 29zM324 1351q64 0 93 -13q30 -49 30 -106t-47 -124h-185l-29 214q74 29 138 29z" />
<glyph unicode="&#xfd;" horiz-adv-x="1058" d="M242.5 -386q-101.5 0 -149.5 64l11 124h312q38 60 60 113q-181 393 -356 890l-111 16v99h464v-99l-61 -33q89 -290 188 -549h21q101 276 176 566l-124 16v99h377v-99l-109 -37q-159 -470 -318 -833q-80 -173 -179.5 -255t-201 -82zM466 1045l155 383h152q65 -44 100 -130 l-292 -253h-115z" />
<glyph unicode="&#xfe;" horiz-adv-x="1091" d="M569.5 765q-92.5 0 -169.5 -78v-556q67 -35 141 -34q110 0 157 86.5t48 265.5q0 181 -42 248.5t-134.5 67.5zM688 955q174 0 259 -121t86 -347q0 -226 -114 -368.5t-330 -142.5q-104 0 -189 33v-257l132 -15v-102h-510v102l109 37v1409l-115 35v100q166 47 343 54l41 -17 v-292q0 -113 -21 -272h22q113 164 287 164z" />
<glyph unicode="&#xff;" horiz-adv-x="1058" d="M242.5 -386q-101.5 0 -149.5 64l11 124h312q38 60 60 113q-181 393 -356 890l-111 16v99h464v-99l-61 -33q89 -290 188 -549h21q101 276 176 566l-124 16v99h379v-99l-111 -37q-159 -470 -318 -833q-80 -173 -179.5 -255t-201 -82zM756.5 1351q64.5 0 94.5 -13 q29 -46 29 -104.5t-49 -125.5h-182l-30 214q73 29 137.5 29zM343.5 1351q65.5 0 94.5 -13q69 -109 -19 -230h-182l-30 214q71 29 136.5 29z" />
<glyph unicode="&#x152;" horiz-adv-x="1860" d="M729 1097q-160 0 -240 -116.5t-80 -372.5t80.5 -374.5t242.5 -118.5q114 0 185 42v891q-82 49 -188 49zM691.5 -24q-146.5 0 -265 46.5t-192.5 129.5q-149 167 -149 451.5t179.5 458.5t486.5 174q113 0 224 -24h802q9 -51 9 -138.5t-18 -174.5h-161l-41 174l-359 14v-407 l195 5l18 97h111v-337h-111l-20 103l-193 8v-432l348 11l60 193l171 -11q7 -68 7.5 -138t-21.5 -179h-798q-136 -24 -282.5 -24z" />
<glyph unicode="&#x153;" horiz-adv-x="1621" d="M1290 598q0 237 -125 237q-71 0 -118.5 -69.5t-53.5 -211.5l297 25v19zM537.5 97q97.5 0 138 87t40.5 282t-40.5 282t-138 87t-139 -87t-41.5 -282t41.5 -282t139 -87zM1261 144q124 0 256 78l31 -83q-144 -162 -367.5 -162.5t-319.5 157.5h-21q-120 -157 -338 -157.5 t-330.5 131t-112.5 352t134.5 358t351.5 137.5t317 -158h20q118 158 330 158q172 0 255.5 -91t83.5 -239q0 -87 -26 -159l-532 -7q21 -315 268 -315z" />
<glyph unicode="&#x178;" horiz-adv-x="1222" d="M922 0h-586v106l147 36v272q-202 374 -349 680l-122 12v106h534v-106l-97 -31q107 -238 236 -486h23q129 242 238 505l-144 12v106h408v-106l-109 -36q-129 -281 -327 -642v-308l148 -14v-106zM399 1581q64 0 97 -14q29 -42 29 -104t-47 -127h-184l-30 215q71 30 135 30z M874 1581q62 0 98 -14q27 -42 27 -106t-46 -125h-186l-29 215q74 30 136 30z" />
<glyph unicode="&#x2c6;" horiz-adv-x="725" d="M510 1023l-171 198h-20l-147 -176h-118l249 366h162l206 -305z" />
<glyph unicode="&#x2da;" horiz-adv-x="582" d="M293.5 1349q-71.5 0 -71.5 -100.5t71.5 -100.5t71.5 100.5t-71.5 100.5zM301 1056q-246 0 -247 175q0 109 71.5 161t182.5 52q221 0 221 -191q0 -94 -67 -145.5t-161 -51.5z" />
<glyph unicode="&#x2dc;" horiz-adv-x="721" d="M455 1080q-41 0 -90 24l-153 77l-88 -101l-70 50q51 155 128 198q35 19 80.5 19t94.5 -25l153 -77l88 102l70 -49q-51 -166 -142 -205q-30 -13 -71 -13z" />
<glyph unicode="&#x2000;" horiz-adv-x="831" />
<glyph unicode="&#x2001;" horiz-adv-x="1663" />
<glyph unicode="&#x2002;" horiz-adv-x="831" />
<glyph unicode="&#x2003;" horiz-adv-x="1663" />
<glyph unicode="&#x2004;" horiz-adv-x="554" />
<glyph unicode="&#x2005;" horiz-adv-x="415" />
<glyph unicode="&#x2006;" horiz-adv-x="277" />
<glyph unicode="&#x2007;" horiz-adv-x="277" />
<glyph unicode="&#x2008;" horiz-adv-x="207" />
<glyph unicode="&#x2009;" horiz-adv-x="332" />
<glyph unicode="&#x200a;" horiz-adv-x="92" />
<glyph unicode="&#x2010;" horiz-adv-x="683" d="M80 466v153h523v-153h-523z" />
<glyph unicode="&#x2011;" horiz-adv-x="683" d="M80 466v153h523v-153h-523z" />
<glyph unicode="&#x2012;" horiz-adv-x="683" d="M80 466v153h523v-153h-523z" />
<glyph unicode="&#x2013;" horiz-adv-x="1140" d="M80 466v153h981v-153h-981z" />
<glyph unicode="&#x2014;" horiz-adv-x="1964" d="M80 466v153h1805v-153h-1805z" />
<glyph unicode="&#x2018;" horiz-adv-x="513" d="M282 1115q0 -16 2 -30l102 -10l9 -220q-136 -39 -242 0q-51 74 -51 188q1 114 77.5 206.5t217.5 122.5l24 -76q-139 -73 -139 -181z" />
<glyph unicode="&#x2019;" horiz-adv-x="513" d="M414 1165q0 -133 -78.5 -224t-218.5 -120l-24 76q138 73 138 178q0 18 -1 33l-103 11l-9 220q141 36 243 -1q53 -75 53 -173z" />
<glyph unicode="&#x201a;" horiz-adv-x="513" d="M414 39q0 -116 -78.5 -206.5t-218.5 -120.5l-24 76q138 73 138 179q0 18 -1 33l-103 9l-9 221q137 38 243 0q53 -75 53 -191z" />
<glyph unicode="&#x201c;" horiz-adv-x="920" d="M687 1115q0 -16 2 -30l104 -10l7 -220q-136 -39 -242 0q-51 74 -51 188t77 207q77 92 218 122l26 -76q-141 -73 -141 -181zM282 1115q0 -16 2 -30l102 -10l9 -220q-136 -39 -242 0q-51 74 -51 188q1 114 77.5 206.5t217.5 122.5l24 -76q-139 -73 -139 -181z" />
<glyph unicode="&#x201d;" horiz-adv-x="920" d="M636 1075q0 18 -1 33l-103 11l-9 220q141 35 244 -1q52 -75 52 -190.5t-78.5 -206.5t-218.5 -120l-24 76q138 73 138 178zM412 1147.5q0 -115.5 -77.5 -206.5t-217.5 -120l-24 76q138 73 138 178q0 18 -1 33l-103 11l-9 220q141 36 243 -1q51 -75 51 -190.5z" />
<glyph unicode="&#x201e;" horiz-adv-x="920" d="M636 -33q0 18 -1 33l-103 9l-9 221q137 38 244 0q52 -75 52 -191t-78.5 -206.5t-218.5 -120.5l-24 76q138 73 138 179zM412 39q0 -116 -77.5 -206.5t-217.5 -120.5l-24 76q138 73 138 179q0 18 -1 33l-103 9l-9 221q137 38 243 0q51 -75 51 -191z" />
<glyph unicode="&#x2022;" horiz-adv-x="790" d="M393 821q282 0 283 -290q0 -75 -32 -138q-66 -129 -251 -129q-133 0 -206 74t-72 204q-1 129 72 204t206 75z" />
<glyph unicode="&#x2026;" horiz-adv-x="1558" d="M781.5 299q80.5 0 119.5 -11q34 -55 34 -137t-48 -151h-231l-35 264q80 35 160.5 35zM261 299q80 0 118 -11q35 -55 35 -137t-47 -151h-232l-34 264q80 35 160 35zM1303 299q80 0 120 -11q33 -55 33 -137t-47 -151h-230l-34 264q78 35 158 35z" />
<glyph unicode="&#x202f;" horiz-adv-x="332" />
<glyph unicode="&#x2039;" horiz-adv-x="628" d="M359 496l144 -290l-111 -72l-305 325v75l305 325l109 -71z" />
<glyph unicode="&#x203a;" horiz-adv-x="628" d="M541 459l-304 -325l-112 72l145 290l-143 292l112 71l302 -325v-75z" />
<glyph unicode="&#x205f;" horiz-adv-x="415" />
<glyph unicode="&#x20ac;" horiz-adv-x="1113" d="M54 372v115h120v42q0 40 3 80h-123v113h141q47 189 183 292.5t331 102.5q145 0 237.5 -54.5t92.5 -160.5q0 -80 -62 -124h-168l-27 221q-43 7 -78 7q-198 0 -236 -284h278v-113h-287v-40q0 -44 2 -82h285v-115h-270q26 -125 89 -177q64 -51 188 -51t270 78l29 -83 q-142 -162 -389 -163q-197 0 -319 105t-158 291h-132z" />
<glyph unicode="&#x2122;" horiz-adv-x="1727" d="M1701 522h-348v73l75 19q0 235 -5 498h-18q-10 -61 -34 -148l-119 -401l-133 -24l-40 7l-129 421q-11 35 -35 145h-18q0 -145 -6 -509l92 -8v-73h-282v73l85 23q9 297 21 514l-80 11v71h352q87 -297 123 -463h17q47 202 128 463h333v-71l-78 -22q14 -253 24 -519l75 -7 v-73zM673 1118q0 -64 -12 -121h-98l-25 126l-95 4v-522l86 -9v-74h-374v74l89 22v509l-96 -4l-24 -126h-98q-11 66 -11 126.5t5 90.5h648q5 -32 5 -96z" />
<glyph unicode="&#x25fc;" horiz-adv-x="921" d="M0 921h921v-921h-921v921z" />
<glyph unicode="&#xfb03;" horiz-adv-x="1849" d="M804 966q0 123 49 211q-121 61 -226 61q-106 -1 -153.5 -51t-47.5 -161v-106h289l89 24v22zM1828 0h-494v102l104 37v617l-99 39h-267v-678l144 -15v-102h-522v102l110 37v656h-378v-678l122 -15v-102h-499v102l109 37v654l-120 20v102l120 29v28q0 197 109.5 298.5 t304.5 101.5t350 -107q124 107 378.5 107t356.5 -88q49 -42 49 -107t-55 -107h-202l-23 180q-73 11 -125 11q-229 0 -229 -242v-99h388l204 30l42 -18v-815l122 -15v-102z" />
<glyph unicode="&#xfb04;" horiz-adv-x="1851" d="M804 972q0 124 40 211q-115 54 -219 54t-151.5 -50t-47.5 -161v-106h287l91 24v28zM1824 0h-501v102l112 37v1077q-93 26 -183 26q-90 -1 -135 -49t-45 -160v-113h164v-125h-164v-678l126 -15v-102h-504v102l110 37v656h-378v-678l122 -15v-102h-499v102l109 37v654 l-120 18v104l120 29v28q0 197 109.5 298.5t301 101.5t341.5 -98q102 99 300 98q148 0 268 -52q97 43 185 52l40 -16v-1239l121 -15v-102z" />
</font>
</defs>
</svg>
